<?xml version="1.0" standalone="no"?>
<!DOCTYPE svg PUBLIC "-//W3C//DTD SVG 1.1//EN" "http://www.w3.org/Graphics/SVG/1.1/DTD/svg11.dtd" >
<svg xmlns="http://www.w3.org/2000/svg" xmlns:xlink="http://www.w3.org/1999/xlink" version="1.1">
<metadata>
Created by FontForge 20170731 at Tue Aug 28 12:59:55 2018
 By Aleksey,,,
(c) 2018 Microsoft Corporation. All Rights Reserved.
</metadata>
<defs>
<font id="SegoeUIBlack" horiz-adv-x="0" >
  <font-face 
    font-family="Segoe UI Black"
    font-weight="900"
    font-stretch="normal"
    units-per-em="2048"
    panose-1="2 11 10 2 4 2 4 2 2 3"
    ascent="1638"
    descent="-410"
    x-height="1024"
    cap-height="1434"
    bbox="-936 -514 3027 2210"
    underline-thickness="119"
    underline-position="-355"
    unicode-range="U+000D-FFFD"
  />
<missing-glyph horiz-adv-x="1322" 
d="M166 0v1398h990v-1398h-990zM314 148h694v1102h-694v-1102z" />
    <glyph glyph-name=".notdef" horiz-adv-x="1322" 
d="M166 0v1398h990v-1398h-990zM314 148h694v1102h-694v-1102z" />
    <glyph glyph-name=".null" 
 />
    <glyph glyph-name="uni000D" unicode="&#xd;" 
 />
    <glyph glyph-name="space" unicode=" " horiz-adv-x="569" 
 />
    <glyph glyph-name="exclam" unicode="!" horiz-adv-x="750" 
d="M543 483h-342l-54 951h449zM612 178q0 -89 -64.5 -146t-172.5 -57q-105 0 -171.5 58t-66.5 145q0 88 64.5 142.5t173.5 54.5q106 0 171.5 -54.5t65.5 -142.5z" />
    <glyph glyph-name="quotedbl" unicode="&#x22;" horiz-adv-x="1188" 
d="M965 1024h-258l-52 444h359zM481 1024h-262l-45 444h356z" />
    <glyph glyph-name="numbersign" unicode="#" horiz-adv-x="1227" 
d="M1126 864h-122l-52 -221h142l-58 -235h-135l-67 -302h-248l63 302h-219l-65 -302h-252l63 302h-127l49 235h129l52 221h-144l47 236h146l67 317h256l-67 -317h215l67 317h256l-67 -317h123zM530 864l-51 -221h219l52 221h-220z" />
    <glyph glyph-name="dollar" unicode="$" horiz-adv-x="1227" 
d="M1100 442q0 -94 -41 -175.5t-120.5 -142t-193.5 -89.5v-230h-237v203q-112 2 -226.5 27.5t-148.5 54.5v375q207 -152 402 -152q53 0 83.5 26t30.5 71q0 38 -19 60.5t-62.5 46.5t-129.5 58q-323 128 -323 412q0 165 104.5 277t288.5 145v199h237v-189q177 -10 285 -45
v-364q-77 48 -172.5 77t-187.5 29q-55 0 -89 -25.5t-34 -64.5q0 -48 40.5 -81.5t131.5 -70.5q198 -81 289.5 -185.5t91.5 -246.5z" />
    <glyph glyph-name="percent" unicode="%" horiz-adv-x="1839" 
d="M1737 367q0 -175 -103 -281t-278 -106q-162 0 -259.5 99t-97.5 261q0 178 104 282.5t277 104.5q166 0 261.5 -95t95.5 -265zM1475 354q0 71 -27 111.5t-74 40.5q-52 0 -80 -42.5t-28 -115.5q0 -69 25.5 -108t76.5 -39q52 0 79.5 40t27.5 113zM618 0h-315l922 1434h315z
M838 1092q0 -178 -103.5 -282.5t-275.5 -104.5q-162 0 -259.5 99t-97.5 261q0 176 101.5 282.5t277.5 106.5q166 0 261.5 -97t95.5 -265zM575 1081q0 69 -25.5 109.5t-72.5 40.5q-52 0 -80 -42.5t-28 -115.5q0 -69 25.5 -108t76.5 -39q50 0 77 40t27 115z" />
    <glyph glyph-name="ampersand" unicode="&#x26;" horiz-adv-x="1513" 
d="M1081 -2l-84 98q-67 -52 -187.5 -86.5t-231.5 -34.5q-245 0 -381 106.5t-136 297.5q0 113 82 216t250 187q-143 158 -143 316q0 160 125.5 260t326.5 100q191 0 307.5 -89.5t116.5 -238.5q0 -119 -69 -205t-219 -155l204 -231q45 90 45 243h326q0 -145 -41 -260.5
t-133 -210.5l287 -313h-445zM797 1108q0 43 -31.5 73.5t-73.5 30.5q-50 0 -80 -27t-30 -75q0 -31 18.5 -63.5t85.5 -108.5q62 38 86.5 78.5t24.5 91.5zM543 608q-42 -20 -70.5 -69.5t-28.5 -110.5q0 -85 56.5 -136.5t138.5 -51.5q51 0 98.5 16.5t79.5 42.5z" />
    <glyph glyph-name="quotesingle" unicode="'" horiz-adv-x="705" 
d="M481 1026h-262l-45 442h356z" />
    <glyph glyph-name="parenleft" unicode="(" horiz-adv-x="862" 
d="M512 -326q-172 186 -254 400t-82 475q0 487 334 885h336q-150 -210 -222.5 -428.5t-72.5 -456.5q0 -247 73 -458.5t224 -416.5h-336z" />
    <glyph glyph-name="parenright" unicode=")" horiz-adv-x="862" 
d="M686 549q0 -263 -82.5 -477t-253.5 -398h-336q299 401 299 875q0 233 -71.5 451.5t-225.5 433.5h336q334 -396 334 -885z" />
    <glyph glyph-name="asterisk" unicode="*" horiz-adv-x="991" 
d="M649 989l207 -194l-231 -158l-129 250l-129 -248l-232 156l207 194l-281 27l91 256l251 -119l-59 281h303l-59 -281l252 119l90 -256z" />
    <glyph glyph-name="plus" unicode="+" horiz-adv-x="1464" 
d="M856 455v-373h-248v373h-370v247h370v371h248v-371h373v-247h-373z" />
    <glyph glyph-name="comma" unicode="," horiz-adv-x="655" 
d="M387 -238h-344l102 510h385z" />
    <glyph glyph-name="hyphen" unicode="-" horiz-adv-x="834" 
d="M143 393v287h547v-287h-547z" />
    <glyph glyph-name="period" unicode="." horiz-adv-x="655" 
d="M565 178q0 -91 -64 -147t-177 -56q-103 0 -168.5 58.5t-65.5 144.5q0 88 64.5 142.5t173.5 54.5q106 0 171.5 -54.5t65.5 -142.5z" />
    <glyph glyph-name="slash" unicode="/" horiz-adv-x="987" 
d="M307 -238h-375l709 1672h375z" />
    <glyph glyph-name="zero" unicode="0" horiz-adv-x="1227" 
d="M1163 729q0 -369 -140.5 -561.5t-410.5 -192.5q-276 0 -412.5 177t-136.5 548q0 372 147.5 565t426.5 193q526 0 526 -729zM743 729q0 214 -30 316t-97 102q-131 0 -131 -438q0 -215 30.5 -318.5t96.5 -103.5q131 0 131 442z" />
    <glyph glyph-name="one" unicode="1" horiz-adv-x="990" 
d="M395 0v1032q-70 -41 -145 -62.5t-170 -31.5v320q135 23 251.5 72.5t238.5 135.5h251v-1466h-426z" />
    <glyph glyph-name="two" unicode="2" horiz-adv-x="1227" 
d="M90 0v115q0 122 30 212t94.5 169t224.5 203q114 90 151.5 129.5t56 76.5t18.5 80q0 143 -172 143q-175 0 -331 -127v349q119 60 222.5 84t212.5 24q234 0 362 -112t128 -314q0 -155 -67 -263t-249 -225q-139 -90 -184.5 -131.5t-46.5 -70.5h560v-342h-1010z" />
    <glyph glyph-name="three" unicode="3" horiz-adv-x="1227" 
d="M1080 410q0 -207 -150 -321t-429 -114q-104 0 -206 17.5t-175 46.5v334q67 -40 153 -63t174 -23q102 0 156.5 36.5t54.5 104.5q0 69 -67 108t-187 39h-138v314h122q121 0 178.5 37.5t57.5 97.5q0 57 -43.5 90t-133.5 33q-139 0 -278 -80v319q174 72 366 72q238 0 373 -97
t135 -269q0 -134 -72.5 -225t-203.5 -119v-5q145 -20 229 -110.5t84 -222.5z" />
    <glyph glyph-name="four" unicode="4" horiz-adv-x="1271" 
d="M1028 1434v-904h203v-284h-204v-246h-375v246h-607v295q160 184 318.5 427t257.5 466h407zM651 530v420q-92 -203 -253 -420h253z" />
    <glyph glyph-name="five" unicode="5" horiz-adv-x="1227" 
d="M1090 485q0 -147 -69.5 -263.5t-200.5 -181.5t-309 -65q-99 0 -206.5 17t-176.5 43v332q150 -80 317 -80q110 0 166.5 40t56.5 113q0 158 -262 158q-131 0 -243 -25l54 861h810v-332h-480l-14 -201q58 6 109 6q210 0 329 -113.5t119 -308.5z" />
    <glyph glyph-name="six" unicode="6" horiz-adv-x="1227" 
d="M1167 496q0 -144 -66.5 -263.5t-188 -187.5t-269.5 -68q-263 0 -405 175t-142 495q0 242 86 429.5t241.5 284.5t369.5 97q164 0 264 -37v-334q-99 60 -234 60q-137 0 -222.5 -89.5t-94.5 -236.5h6q101 123 289 123q169 0 267.5 -124t98.5 -324zM762 477q0 79 -30.5 124.5
t-92.5 45.5q-59 0 -91 -47.5t-32 -128.5q0 -76 34.5 -125t88.5 -49q57 0 90 48.5t33 131.5z" />
    <glyph glyph-name="seven" unicode="7" horiz-adv-x="1227" 
d="M273 0q30 197 85 367t131.5 328t232.5 407h-624v332h1049v-252q-143 -255 -216.5 -426t-127 -355.5t-87.5 -400.5h-443z" />
    <glyph glyph-name="eight" unicode="8" horiz-adv-x="1227" 
d="M67 390q0 132 67 222t197 147q-109 55 -164 141t-55 189q0 102 65.5 187.5t182 133.5t257.5 48q147 0 264 -47.5t181 -132.5t64 -190q0 -101 -59 -189t-172 -142q140 -61 202 -151.5t62 -212.5q0 -120 -69.5 -216t-195 -148t-281.5 -52q-242 0 -394 116t-152 297z
M454 425q0 -77 44 -121t116 -44q73 0 117 47t44 118q0 72 -46 119.5t-115 47.5q-68 0 -114 -46.5t-46 -120.5zM490 1040q0 -59 37.5 -104t92.5 -45q56 0 93.5 45t37.5 104q0 64 -38 107t-93 43q-56 0 -93 -43t-37 -107z" />
    <glyph glyph-name="nine" unicode="9" horiz-adv-x="1227" 
d="M1141 776q0 -376 -175 -588.5t-483 -212.5q-189 0 -329 56v329q42 -30 123.5 -51.5t146.5 -21.5q150 0 229.5 83t81.5 244h-6q-94 -120 -274 -120q-107 0 -196.5 55.5t-140 155t-50.5 227.5q0 158 66.5 278t188 184t279.5 64q164 0 289 -85t187.5 -236t62.5 -361z
M719 963q0 73 -33 124.5t-88 51.5q-54 0 -89.5 -43.5t-35.5 -134.5q0 -85 35 -129t88 -44q60 0 91.5 48.5t31.5 126.5z" />
    <glyph glyph-name="colon" unicode=":" horiz-adv-x="655" 
d="M565 827q0 -91 -64.5 -146.5t-176.5 -55.5q-102 0 -168 58t-66 144q0 88 64.5 142.5t173.5 54.5q106 0 171.5 -54.5t65.5 -142.5zM565 178q0 -91 -64 -147t-177 -56q-103 0 -168.5 58.5t-65.5 144.5q0 88 64.5 142.5t173.5 54.5q106 0 171.5 -54.5t65.5 -142.5z" />
    <glyph glyph-name="semicolon" unicode=";" horiz-adv-x="655" 
d="M575 827q0 -91 -64.5 -146.5t-176.5 -55.5q-102 0 -168 58t-66 144q0 88 64.5 142.5t173.5 54.5q106 0 171.5 -54.5t65.5 -142.5zM387 -238h-344l102 510h385z" />
    <glyph glyph-name="less" unicode="&#x3c;" horiz-adv-x="1464" 
d="M238 436v240l991 407v-292l-703 -236v-4l703 -236v-292z" />
    <glyph glyph-name="equal" unicode="=" horiz-adv-x="1464" 
d="M238 666v247h991v-247h-991zM238 236v247h991v-247h-991z" />
    <glyph glyph-name="greater" unicode="&#x3e;" horiz-adv-x="1464" 
d="M238 43v295l700 233v4l-700 234v295l991 -408v-239z" />
    <glyph glyph-name="question" unicode="?" horiz-adv-x="866" 
d="M907 1100q0 -222 -215 -391q-73 -58 -103 -102t-30 -109v-35h-336v88q0 183 121 287q79 67 101.5 92t32 48t9.5 54q0 38 -33.5 64t-86.5 26q-161 0 -338 -129v393q65 37 175.5 64t198.5 27q245 0 374.5 -96.5t129.5 -280.5zM641 178q0 -89 -64.5 -146t-173.5 -57
q-105 0 -171 58.5t-66 144.5q0 88 64.5 142.5t172.5 54.5q107 0 172.5 -54.5t65.5 -142.5z" />
    <glyph glyph-name="at" unicode="@" horiz-adv-x="1944" 
d="M1843 766q0 -173 -66.5 -306t-187 -206.5t-268.5 -73.5q-88 0 -156 43t-84 107h-6q-35 -67 -95 -108.5t-132 -41.5q-141 0 -225 102.5t-84 278.5q0 145 47 259t140 183.5t192 69.5q136 0 180 -108h4l8 86h301q-10 -92 -27.5 -306.5t-17.5 -259.5v-20q0 -25 13 -42t38 -17
q60 0 98.5 90.5t38.5 265.5q0 137 -58 243.5t-169 166t-266 59.5q-183 0 -334.5 -87t-240.5 -242.5t-89 -332.5q0 -259 155 -398.5t441 -139.5q98 0 207.5 25.5t194.5 66.5v-236q-177 -75 -447 -75q-254 0 -450.5 97.5t-297 269.5t-100.5 405q0 234 121 438.5t331.5 317
t475.5 112.5q248 0 432 -82.5t283.5 -238.5t99.5 -365zM1092 715q0 65 -29.5 102t-77.5 37q-63 0 -106 -85t-43 -200q0 -79 25.5 -124.5t72.5 -45.5q71 0 114.5 88.5t43.5 227.5z" />
    <glyph glyph-name="A" unicode="A" horiz-adv-x="1536" 
d="M1040 0l-63 264h-428l-68 -264h-467l494 1434h536l465 -1434h-469zM768 1122h-10q-2 -24 -14 -79t-121 -472h274l-100 390q-21 86 -29 161z" />
    <glyph glyph-name="B" unicode="B" horiz-adv-x="1415" 
d="M1366 440q0 -211 -148 -325.5t-423 -114.5h-654v1434h609q571 0 571 -347q0 -75 -36 -137.5t-109.5 -109.5t-161.5 -64v-4q102 -12 183 -60.5t125 -121t44 -150.5zM862 1012q0 133 -209 133h-80v-271h125q72 0 118 38.5t46 99.5zM907 442q0 62 -45 102t-119 40h-170v-293
h144q88 0 139 40.5t51 110.5z" />
    <glyph glyph-name="C" unicode="C" horiz-adv-x="1290" 
d="M1208 39q-178 -64 -411 -64q-229 0 -395 87.5t-253.5 249t-87.5 372.5q0 227 98 404t277 273.5t412 96.5q186 0 360 -45v-399q-60 36 -143 56t-168 20q-176 0 -277.5 -101t-101.5 -274q0 -172 101.5 -271.5t271.5 -99.5q157 0 317 80v-385z" />
    <glyph glyph-name="D" unicode="D" horiz-adv-x="1554" 
d="M1493 735q0 -218 -91.5 -385.5t-261.5 -258.5t-392 -91h-607v1434h594q758 0 758 -699zM1034 731q0 105 -42.5 189t-121.5 130t-186 46h-111v-758h121q155 0 247.5 106.5t92.5 286.5z" />
    <glyph glyph-name="E" unicode="E" horiz-adv-x="1130" 
d="M141 0v1434h893v-338h-461v-209h433v-338h-433v-211h494v-338h-926z" />
    <glyph glyph-name="F" unicode="F" horiz-adv-x="1108" 
d="M573 1096v-258h426v-338h-426v-500h-432v1434h899v-338h-467z" />
    <glyph glyph-name="G" unicode="G" horiz-adv-x="1489" 
d="M1397 94q-81 -46 -242 -82.5t-307 -36.5q-377 0 -582 188.5t-205 528.5q0 228 103.5 405t291.5 269t443 92q187 0 399 -53v-377q-99 45 -190 62.5t-199 17.5q-178 0 -283.5 -107t-105.5 -294q0 -179 88.5 -280t247.5 -101q74 0 109 8v205h-275v327h707v-772z" />
    <glyph glyph-name="H" unicode="H" horiz-adv-x="1643" 
d="M1069 0v535h-496v-535h-432v1434h432v-531h496v531h432v-1434h-432z" />
    <glyph glyph-name="I" unicode="I" horiz-adv-x="714" 
d="M141 0v1434h432v-1434h-432z" />
    <glyph glyph-name="J" unicode="J" horiz-adv-x="1047" 
d="M922 612q0 -637 -619 -637q-50 0 -120 12t-142 36v399q51 -35 113.5 -56.5t103.5 -21.5q116 0 173.5 71.5t57.5 221.5v797h433v-822z" />
    <glyph glyph-name="K" unicode="K" horiz-adv-x="1413" 
d="M934 0l-318 606q-32 72 -38 99h-5v-705h-432v1434h432v-682h5q19 54 43 100l286 582h512l-407 -684l446 -750h-524z" />
    <glyph glyph-name="L" unicode="L" horiz-adv-x="1108" 
d="M141 0v1434h432v-1096h494v-338h-926z" />
    <glyph glyph-name="M" unicode="M" horiz-adv-x="2021" 
d="M1454 0v786q0 111 7 244l3 66h-12q-32 -169 -49 -234l-211 -862h-406l-221 852q-9 32 -47 244h-12q14 -336 14 -420v-676h-379v1434h647l197 -779q7 -24 18.5 -97.5t14.5 -113.5h6q11 91 35 215l184 775h637v-1434h-426z" />
    <glyph glyph-name="N" unicode="N" horiz-adv-x="1663" 
d="M1143 0l-506 692q-60 82 -98 148h-4q6 -106 6 -238v-602h-400v1434h408l485 -658q9 -13 22 -31t26 -37t24.5 -37t17.5 -32h4q-6 44 -6 152v643h400v-1434h-379z" />
    <glyph glyph-name="O" unicode="O" horiz-adv-x="1567" 
d="M1505 721q0 -216 -93 -386.5t-260 -265t-374 -94.5q-202 0 -367.5 91.5t-257.5 257t-92 374.5q0 219 93 394t261 270.5t382 95.5q206 0 368.5 -91.5t251 -261t88.5 -384.5zM1047 709q0 177 -68 279t-186 102q-129 0 -201 -98t-72 -277q0 -175 71.5 -273t194.5 -98
q75 0 135 44t93 126t33 195z" />
    <glyph glyph-name="P" unicode="P" horiz-adv-x="1343" 
d="M1313 961q0 -147 -74.5 -261t-212.5 -176.5t-321 -62.5h-132v-461h-432v1434h588q303 0 443.5 -115t140.5 -358zM856 946q0 88 -51 133t-150 45h-82v-354h97q186 0 186 176z" />
    <glyph glyph-name="Q" unicode="Q" horiz-adv-x="1567" 
d="M1505 721q0 -333 -215 -548l379 -366h-542l-182 185q-80 -17 -167 -17q-202 0 -367.5 91.5t-257.5 257t-92 374.5q0 219 93 394t261 270.5t382 95.5q206 0 368.5 -91.5t251 -261t88.5 -384.5zM1047 709q0 177 -68 279t-186 102q-129 0 -201 -98t-72 -277
q0 -175 71.5 -273t194.5 -98q117 0 189 99t72 266z" />
    <glyph glyph-name="R" unicode="R" horiz-adv-x="1397" 
d="M885 0l-107 309q-31 91 -80.5 143t-107.5 52h-17v-504h-432v1434h574q301 0 444.5 -98.5t143.5 -295.5q0 -148 -83.5 -248t-248.5 -145v-4q91 -28 151.5 -91t108.5 -187l141 -365h-487zM844 979q0 72 -44 114t-138 42h-89v-328h78q87 0 140 49t53 123z" />
    <glyph glyph-name="S" unicode="S" horiz-adv-x="1171" 
d="M1137 434q0 -143 -76.5 -249t-214.5 -158t-332 -52q-225 0 -412 76v393q90 -66 199 -106.5t203 -40.5q71 0 110 25.5t39 74.5q0 35 -19.5 61.5t-59 49.5t-146.5 63q-346 133 -346 430q0 208 158 332.5t424 124.5q75 0 138 -6t114.5 -15t144.5 -34v-365q-181 99 -356 99
q-72 0 -116 -27t-44 -74q0 -45 35.5 -74.5t148.5 -76.5q223 -90 315.5 -197t92.5 -254z" />
    <glyph glyph-name="T" unicode="T" horiz-adv-x="1303" 
d="M866 1096v-1096h-434v1096h-401v338h1241v-338h-406z" />
    <glyph glyph-name="U" unicode="U" horiz-adv-x="1516" 
d="M1391 655q0 -345 -157.5 -512.5t-485.5 -167.5q-306 0 -464.5 167.5t-158.5 504.5v787h434v-803q0 -138 51.5 -212.5t147.5 -74.5q97 0 147.5 70t50.5 207v813h435v-779z" />
    <glyph glyph-name="V" unicode="V" horiz-adv-x="1438" 
d="M958 0h-485l-463 1434h465l219 -883q26 -107 29 -160h10q6 67 31 166l213 877h450z" />
    <glyph glyph-name="W" unicode="W" horiz-adv-x="2157" 
d="M1774 0h-459l-199 817q-9 35 -20 174h-4q-15 -123 -29 -174l-215 -817h-486l-342 1434h474l120 -844q3 -16 9 -93l6 -83h6q2 26 12 88.5t19 93.5l221 838h471l184 -850l13 -85l10 -83h4l3 35l13 139l125 844h426z" />
    <glyph glyph-name="X" unicode="X" horiz-adv-x="1438" 
d="M930 0l-178 393q-17 37 -22.5 72.5t-8.5 58.5h-4q-6 -24 -14 -63t-23 -76l-166 -385h-514l430 715l-391 719h522l139 -379q19 -53 35 -140h4q16 98 37 142l162 377h481l-403 -711l422 -723h-508z" />
    <glyph glyph-name="Y" unicode="Y" horiz-adv-x="1331" 
d="M874 498v-498h-432v492l-442 942h496l155 -451q16 -46 22.5 -80t14.5 -69h4q13 91 29 141l153 459h457z" />
    <glyph glyph-name="Z" unicode="Z" horiz-adv-x="1313" 
d="M616 338h648v-338h-1203v303l662 793h-621v338h1141v-301z" />
    <glyph glyph-name="bracketleft" unicode="[" horiz-adv-x="862" 
d="M233 -326v1760h543v-258h-201v-1244h201v-258h-543z" />
    <glyph glyph-name="backslash" unicode="\" horiz-adv-x="987" 
d="M719 -238l-699 1672h373l697 -1672h-371z" />
    <glyph glyph-name="bracketright" unicode="]" horiz-adv-x="862" 
d="M86 -326v258h201v1244h-201v258h543v-1760h-543z" />
    <glyph glyph-name="asciicircum" unicode="^" horiz-adv-x="1464" 
d="M971 629l-236 553h-6l-235 -553h-306l424 829h240l424 -829h-305z" />
    <glyph glyph-name="underscore" unicode="_" horiz-adv-x="850" 
d="M0 -297v119h850v-119h-850z" />
    <glyph glyph-name="grave" unicode="`" horiz-adv-x="711" 
d="M385 1186l-356 321h358l299 -321h-301z" />
    <glyph glyph-name="a" unicode="a" horiz-adv-x="1149" 
d="M670 0v156h-4q-102 -181 -312 -181q-145 0 -227 86t-82 230q0 302 371 350l254 33q0 50 -45 82t-121 32q-172 0 -363 -98v277q83 36 208 59t214 23q261 0 378.5 -111.5t117.5 -372.5v-565h-389zM418 348q0 -42 26.5 -69t75.5 -27q67 0 108.5 50t41.5 128v39l-144 -20
q-108 -18 -108 -101z" />
    <glyph glyph-name="b" unicode="b" horiz-adv-x="1315" 
d="M1257 543q0 -168 -55.5 -297.5t-157.5 -200t-231 -70.5q-99 0 -169.5 36.5t-111.5 94.5h-4v-106h-426v1516h426v-631h4q50 76 135.5 120t188.5 44q194 0 297.5 -129t103.5 -377zM825 530q0 103 -39.5 155t-113.5 52q-65 0 -108.5 -54.5t-43.5 -141.5v-62q0 -88 39 -140
t105 -52q77 0 119 63.5t42 179.5z" />
    <glyph glyph-name="c" unicode="c" horiz-adv-x="1014" 
d="M946 29q-41 -24 -129 -39t-203 -15q-162 0 -289.5 65.5t-197.5 183.5t-70 265q0 176 74.5 301.5t212.5 192t320 66.5q100 0 179.5 -13t102.5 -30v-332q-32 25 -92 44t-111 19q-125 0 -189.5 -59.5t-64.5 -167.5q0 -106 63.5 -164.5t174.5 -58.5q119 0 219 57v-315z" />
    <glyph glyph-name="d" unicode="d" horiz-adv-x="1315" 
d="M786 0v119h-4q-51 -67 -133 -105.5t-162 -38.5q-131 0 -231 64.5t-149.5 180.5t-49.5 274q0 163 59 289t166 196t240 70q63 0 116.5 -18t93 -48.5t50.5 -60.5h4v594h426v-1516h-426zM795 543q0 92 -40.5 143t-109.5 51t-112.5 -63.5t-43.5 -169.5q0 -217 150 -217
q71 0 113.5 58.5t42.5 170.5v27z" />
    <glyph glyph-name="e" unicode="e" horiz-adv-x="1147" 
d="M469 391q11 -66 76 -103.5t172 -37.5q149 0 282 57v-270q-155 -62 -376 -62q-268 0 -417 137t-149 377q0 165 65.5 291t194 197.5t283.5 71.5q159 0 272 -62t171.5 -174t58.5 -262v-160h-633zM725 614q0 177 -127 177q-53 0 -89 -48.5t-42 -128.5h258z" />
    <glyph glyph-name="f" unicode="f" horiz-adv-x="883" 
d="M891 1206q-66 23 -123 23q-71 0 -105 -36.5t-34 -98.5v-70h237v-295h-237v-729h-426v729h-172v295h172v94q0 125 58 220.5t168.5 148.5t268.5 53q114 0 193 -22v-312z" />
    <glyph glyph-name="g" unicode="g" horiz-adv-x="1315" 
d="M1212 143q0 -295 -185.5 -459.5t-541.5 -164.5q-96 0 -186 15t-129 34v334q64 -40 150 -64t153 -24q143 0 229 69t86 183v63h-4q-46 -70 -126.5 -112t-172.5 -42q-198 0 -313 137.5t-115 379.5q0 166 60 293t167 195.5t236 68.5q177 0 264 -131h4v106h424v-881zM795 541
q0 90 -40.5 143t-107.5 53q-72 0 -115 -64t-43 -171q0 -99 36 -157t114 -58q73 0 114.5 59.5t41.5 159.5v35z" />
    <glyph glyph-name="h" unicode="h" horiz-adv-x="1264" 
d="M762 0v584q0 153 -117 153q-57 0 -87 -43.5t-30 -111.5v-582h-426v1516h426v-631h4q55 79 133.5 121.5t168.5 42.5q166 0 253 -106.5t87 -313.5v-629h-412z" />
    <glyph glyph-name="i" unicode="i" horiz-adv-x="631" 
d="M553 1300q0 -90 -65.5 -146t-172.5 -56q-104 0 -170.5 58t-66.5 144q0 88 64.5 142.5t172.5 54.5q107 0 172.5 -54.5t65.5 -142.5zM102 0v1024h426v-1024h-426z" />
    <glyph glyph-name="j" unicode="j" horiz-adv-x="631" 
d="M553 1300q0 -90 -65.5 -146t-172.5 -56q-104 0 -170.5 58t-66.5 144q0 88 64.5 142.5t172.5 54.5q107 0 172.5 -54.5t65.5 -142.5zM528 -10q0 -135 -53 -246.5t-156 -168t-245 -56.5q-78 0 -170 30v312q56 -31 102 -31q53 0 74.5 35.5t21.5 107.5v1051h426v-1034z" />
    <glyph glyph-name="k" unicode="k" horiz-adv-x="1214" 
d="M760 0l-228 526h-4v-526h-426v1516h426v-973h4l207 481h480l-277 -469l293 -555h-475z" />
    <glyph glyph-name="l" unicode="l" horiz-adv-x="631" 
d="M102 0v1516h426v-1516h-426z" />
    <glyph glyph-name="m" unicode="m" horiz-adv-x="1946" 
d="M1430 0v590q0 74 -26.5 110.5t-86.5 36.5q-59 0 -92 -44.5t-33 -123.5v-569h-426v580q0 157 -107 157q-65 0 -98 -45.5t-33 -130.5v-561h-426v1024h426v-162h4q24 43 76.5 87.5t118.5 72t143 27.5q109 0 183.5 -43t124.5 -136q54 86 144 132.5t200 46.5q161 0 247 -105
t86 -303v-641h-425z" />
    <glyph glyph-name="n" unicode="n" horiz-adv-x="1282" 
d="M766 0v559q0 95 -28.5 136.5t-92.5 41.5q-55 0 -86 -43t-31 -110v-584h-426v1024h426v-160h4q51 88 137 136.5t187 48.5q336 0 336 -424v-625h-426z" />
    <glyph glyph-name="o" unicode="o" horiz-adv-x="1298" 
d="M1241 530q0 -259 -156.5 -407t-437.5 -148q-279 0 -434.5 144.5t-155.5 398.5q0 163 73 283t208 184t311 64q182 0 315.5 -67t205 -186t71.5 -266zM809 528q0 209 -160 209t-160 -219q0 -231 162 -231q158 0 158 241z" />
    <glyph glyph-name="p" unicode="p" horiz-adv-x="1315" 
d="M1257 543q0 -168 -57 -297t-161 -200t-234 -71q-180 0 -273 131h-4v-577h-426v1495h426v-139h4q51 77 132 120.5t184 43.5q198 0 303.5 -132t105.5 -374zM825 530q0 97 -37.5 152t-115.5 55q-68 0 -110 -58t-42 -159v-20q0 -97 36 -155t108 -58q77 0 119 63.5t42 179.5z
" />
    <glyph glyph-name="q" unicode="q" horiz-adv-x="1315" 
d="M786 -471v588h-4q-48 -64 -129.5 -103t-167.5 -39q-127 0 -223.5 60t-150.5 174.5t-54 282.5q0 166 60 293t167 195.5t236 68.5q175 0 262 -131h4v106h426v-1495h-426zM795 539q0 93 -40.5 145.5t-107.5 52.5q-70 0 -114 -64t-44 -171q0 -99 37 -157t111 -58t116 58
t42 161v33z" />
    <glyph glyph-name="r" unicode="r" horiz-adv-x="893" 
d="M872 659q-24 11 -65 20t-68 9q-211 0 -211 -244v-444h-426v1024h426v-180h4q39 97 111 147.5t168 50.5q35 0 61 -12v-371z" />
    <glyph glyph-name="s" unicode="s" horiz-adv-x="989" 
d="M934 340q0 -174 -132.5 -269.5t-369.5 -95.5q-69 0 -170.5 14t-165.5 34v299q189 -84 316 -84q125 0 125 65q0 27 -29 44.5t-152 58.5q-136 43 -198 114t-62 185q0 159 126.5 251.5t355.5 92.5q134 0 284 -39v-287q-63 27 -138 45t-126 18q-42 0 -67 -14t-25 -39
q0 -29 27 -47t108 -43q157 -46 225 -118t68 -185z" />
    <glyph glyph-name="t" unicode="t" horiz-adv-x="854" 
d="M823 14q-29 -14 -95 -26.5t-159 -12.5q-178 0 -278.5 98t-100.5 279v377h-161v295h161v201l420 116v-317h213v-295h-213v-307q0 -135 107 -135q50 0 106 22v-295z" />
    <glyph glyph-name="u" unicode="u" horiz-adv-x="1282" 
d="M754 0v158h-4q-53 -73 -95.5 -107t-96 -55t-124.5 -21q-168 0 -256 109t-88 322v618h426v-586q0 -151 113 -151q62 0 93.5 41t31.5 116v580h426v-1024h-426z" />
    <glyph glyph-name="v" unicode="v" horiz-adv-x="1204" 
d="M848 0h-506l-342 1024h444l125 -559q30 -135 33 -203h6q2 20 5.5 41t148.5 721h442z" />
    <glyph glyph-name="w" unicode="w" horiz-adv-x="1731" 
d="M1430 0h-443l-102 498q-19 90 -19 159h-6q-11 -106 -22 -153l-111 -504h-442l-271 1024h428l88 -596l15 -133h6q13 117 18 137l131 592h406l113 -592l9 -71l5 -64h6l3 29l91 698h383z" />
    <glyph glyph-name="x" unicode="x" horiz-adv-x="1272" 
d="M944 545l330 -545h-490l-110 233q-19 39 -43 107h-4q-21 -68 -27 -83.5t-117 -256.5h-487l340 516l-320 508h492l110 -238q22 -41 44 -112h4q29 87 41 114l104 236h465z" />
    <glyph glyph-name="y" unicode="y" horiz-adv-x="1176" 
d="M301 -481q-60 0 -129 10.5t-123 30.5v321q25 -19 74.5 -35t93.5 -16q119 0 158 94l33 80l-428 1020h471l124 -494q36 -138 39 -186h4q3 22 8.5 49t155.5 631h414l-377 -1053q-85 -242 -210.5 -347t-307.5 -105z" />
    <glyph glyph-name="z" unicode="z" horiz-adv-x="1042" 
d="M584 295h422v-295h-981v197l460 532h-417v295h929v-242z" />
    <glyph glyph-name="braceleft" unicode="{" horiz-adv-x="862" 
d="M762 -326q-185 0 -292 38.5t-154.5 120t-47.5 249.5v180q0 180 -149 180v224q149 0 149 182v168q0 176 46.5 258.5t153 121t294.5 38.5v-224q-82 0 -121 -37t-39 -126v-142q0 -136 -37 -222t-121 -126v-4q83 -40 120.5 -129t37.5 -234v-127q0 -90 37 -127.5t123 -37.5
v-224z" />
    <glyph glyph-name="bar" unicode="|" horiz-adv-x="815" 
d="M244 -481v2048h327v-2048h-327z" />
    <glyph glyph-name="braceright" unicode="}" horiz-adv-x="862" 
d="M743 442q-149 0 -149 -182v-168q0 -176 -46.5 -258.5t-153 -121t-294.5 -38.5v224q83 0 121.5 37t38.5 126v142q0 135 36.5 221t121.5 127v4q-83 41 -120.5 131t-37.5 232v126q0 89 -36 127.5t-124 38.5v224q186 0 292.5 -38.5t154 -120t47.5 -249.5v-180
q0 -180 149 -180v-224z" />
    <glyph glyph-name="asciitilde" unicode="~" horiz-adv-x="1464" 
d="M1270 776q-6 -175 -93 -281t-231 -106q-80 0 -139 20.5t-134 64.5q-76 44 -116 44q-48 0 -78.5 -36t-36.5 -105h-247q5 181 93 285t238 104q69 0 121.5 -17t102.5 -44q47 -26 86 -47t77 -21q48 0 77 39.5t32 99.5h248z" />
    <glyph glyph-name="uni00A0" unicode="&#xa0;" horiz-adv-x="561" 
 />
    <glyph glyph-name="exclamdown" unicode="&#xa1;" horiz-adv-x="750" 
d="M612 846q0 -88 -64.5 -142.5t-172.5 -54.5t-173 55.5t-65 141.5q0 89 64.5 146t173.5 57q105 0 171 -58.5t66 -144.5zM154 -410l53 951h342l53 -951h-448z" />
    <glyph glyph-name="cent" unicode="&#xa2;" horiz-adv-x="1227" 
d="M1032 205q-48 -27 -147 -41v-195h-238v185q-139 8 -258 79.5t-178 182.5t-59 252q0 151 57 267.5t172.5 192t265.5 91.5v206h238v-206q103 -10 147 -37v-334q-25 23 -98.5 44t-126.5 21q-131 0 -201.5 -58t-70.5 -167q0 -105 67 -165t186 -60q58 0 126 15t118 44v-317z
" />
    <glyph glyph-name="sterling" unicode="&#xa3;" horiz-adv-x="1227" 
d="M166 0v291q95 24 139.5 83.5t44.5 164.5v65h-164v262h164v144q0 209 130.5 328.5t363.5 119.5q117 0 241 -55v-324q-31 26 -92.5 47t-105.5 21q-82 0 -120 -48t-38 -126v-107h246v-262h-246v-33q0 -77 -33 -144.5t-90 -115.5h584v-311h-1024z" />
    <glyph glyph-name="currency" unicode="&#xa4;" horiz-adv-x="1139" 
d="M946 188l-145 142q-110 -60 -232 -60q-121 0 -231 60l-145 -142l-173 174l146 138q-62 113 -62 225q0 116 62 225l-146 140l173 174l145 -142q110 60 231 60q122 0 232 -60l145 142l172 -174l-145 -140q61 -108 61 -225q0 -114 -61 -225l145 -138zM788 727q0 87 -66 150
t-153 63q-92 0 -155.5 -63t-63.5 -150q0 -88 64 -151.5t155 -63.5q89 0 154 62t65 153z" />
    <glyph glyph-name="yen" unicode="&#xa5;" horiz-adv-x="1227" 
d="M877 793h243v-209h-293v-123h293v-213h-293v-248h-409v248h-301v213h301v123h-301v209h245l-344 641h406l192 -478l25 -59h4l25 59l182 478h385z" />
    <glyph glyph-name="brokenbar" unicode="&#xa6;" horiz-adv-x="815" 
d="M244 657v910h327v-910h-327zM244 -481v934h327v-934h-327z" />
    <glyph glyph-name="section" unicode="&#xa7;" horiz-adv-x="1063" 
d="M971 713q0 -72 -42 -146t-108 -121q34 -34 55 -79t21 -88q0 -160 -112.5 -252.5t-303.5 -92.5q-80 0 -171 22t-154 56v303q212 -127 352 -127q47 0 73.5 20t26.5 58q0 28 -19.5 47t-66.5 39l-96 41q-115 52 -168.5 96.5t-84 103.5t-30.5 138q0 77 33 132t80 98
q-34 38 -56 90.5t-22 111.5q0 151 106.5 239.5t293.5 88.5q70 0 149 -18t135 -43v-312q-93 66 -157.5 95.5t-126.5 29.5q-99 0 -99 -72q0 -32 33 -58t105 -52l81 -31q150 -58 211.5 -133.5t61.5 -183.5zM694 682q0 38 -18 58t-63 43t-146 63q-51 -34 -51 -86
q0 -55 51.5 -94.5t165.5 -83.5q23 11 42 36.5t19 63.5z" />
    <glyph glyph-name="dieresis" unicode="&#xa8;" horiz-adv-x="1024" 
d="M954 1339q0 -73 -52 -118.5t-140 -45.5q-84 0 -138.5 46.5t-54.5 117.5t53 115t140 44t139.5 -44.5t52.5 -114.5zM453 1339q0 -71 -51.5 -117.5t-141.5 -46.5q-85 0 -138.5 47.5t-53.5 116.5q0 71 53 115t139 44q87 0 140 -43.5t53 -115.5z" />
    <glyph glyph-name="copyright" unicode="&#xa9;" horiz-adv-x="1755" 
d="M1653 719q0 -206 -102 -376.5t-282 -269t-395 -98.5q-219 0 -396.5 94.5t-276.5 264.5t-99 379q0 207 102 378t281 269t398 98q217 0 394 -94.5t276.5 -265t99.5 -379.5zM1485 715q0 170 -77 307.5t-216 215t-313 77.5q-172 0 -312.5 -79t-218.5 -217t-78 -304
q0 -169 79 -306.5t220 -213.5t310 -76q164 0 304 77.5t221 215t81 303.5zM1186 324q-128 -66 -273 -66q-135 0 -244.5 57t-171 158.5t-61.5 224.5q0 216 141 348t369 132q120 0 240 -58v-284q-42 31 -103.5 52t-130.5 21q-89 0 -148 -56t-59 -144q0 -82 62.5 -135.5
t150.5 -53.5q133 0 228 72v-268z" />
    <glyph glyph-name="ordfeminine" unicode="&#xaa;" horiz-adv-x="852" 
d="M498 717v88h-4q-58 -66 -104.5 -87.5t-113.5 -21.5q-92 0 -154.5 62.5t-62.5 156.5q0 115 69 174.5t210 77.5l160 21q0 45 -34 63.5t-102 18.5q-39 0 -108.5 -22t-128.5 -50v203q64 24 144.5 38.5t158.5 14.5q132 0 203.5 -32t106 -103t34.5 -191v-411h-274zM336 961
q0 -32 22.5 -51t53.5 -19q35 0 60.5 28.5t25.5 63.5v59l-76 -8q-34 -3 -60 -21t-26 -52z" />
    <glyph glyph-name="guillemotleft" unicode="&#xab;" horiz-adv-x="1294" 
d="M926 201l-346 336l346 344h334l-351 -344l353 -336h-336zM379 201l-346 336l346 344h334l-351 -344l353 -336h-336z" />
    <glyph glyph-name="logicalnot" unicode="&#xac;" horiz-adv-x="1464" 
d="M981 236v342h-743v247h991v-589h-248z" />
    <glyph glyph-name="uni00AD" unicode="&#xad;" horiz-adv-x="834" 
d="M143 393v287h547v-287h-547z" />
    <glyph glyph-name="registered" unicode="&#xae;" horiz-adv-x="1755" 
d="M1653 717q0 -206 -103.5 -377t-283 -268t-392.5 -97q-219 0 -396.5 94.5t-276.5 264.5t-99 379q0 207 102 378t281 269t398 98q215 0 392.5 -94.5t277.5 -265t100 -381.5zM1485 713q0 171 -78 309.5t-217 215.5t-311 77t-312.5 -79t-218.5 -217t-78 -304
q0 -169 79 -306.5t220 -213.5t310 -76q165 0 305 77t220.5 214t80.5 303zM979 276l-53 242q-8 38 -27.5 61t-44.5 23h-70v-326h-266v898h365q186 0 284.5 -65.5t98.5 -199.5q0 -170 -197 -229v-4q39 -7 76 -42t49 -75l96 -283h-311zM977 879q0 34 -25.5 58t-85.5 24h-82
v-170h101q42 0 67 23.5t25 64.5z" />
    <glyph glyph-name="macron" unicode="&#xaf;" horiz-adv-x="741" 
d="M43 1145v223h655v-223h-655z" />
    <glyph glyph-name="degree" unicode="&#xb0;" horiz-adv-x="791" 
d="M700 1184q0 -74 -37.5 -138t-104 -101.5t-140.5 -37.5q-118 0 -200.5 80.5t-82.5 196.5q0 113 81.5 193.5t201.5 80.5q117 0 199.5 -80t82.5 -194zM522 1184q0 46 -30 77t-74 31q-47 0 -78 -31t-31 -77t32 -78.5t77 -32.5q43 0 73.5 32.5t30.5 78.5z" />
    <glyph glyph-name="plusminus" unicode="&#xb1;" horiz-adv-x="1464" 
d="M856 725v-373h-248v373h-364v248h364v383h248v-383h375v-248h-375zM238 0v248h985v-248h-985z" />
    <glyph glyph-name="uni00B2" unicode="&#xb2;" horiz-adv-x="758" 
d="M49 584v90q0 69 26 118t65 86.5t85 67.5t85 61t65 66t26 84q0 28 -24 50t-72 22q-40 0 -96 -21t-109 -61v246q60 32 123 46.5t135 14.5q76 0 135 -18.5t99.5 -51.5t61 -78.5t20.5 -99.5q0 -70 -22.5 -123t-56.5 -93t-73.5 -68.5t-73.5 -50t-56.5 -37.5t-22.5 -31v-4h319
v-215h-639z" />
    <glyph glyph-name="uni00B3" unicode="&#xb3;" horiz-adv-x="758" 
d="M690 836q0 -125 -106.5 -199t-276.5 -74q-80 0 -136 16.5t-99 34.5v197q106 -53 217 -53q135 0 135 80q0 37 -34.5 58.5t-100.5 21.5h-139v194h131q56 0 87 20t31 56q0 32 -27 52t-75 20q-113 0 -203 -56v193q124 57 256 57q147 0 230.5 -59t83.5 -164q0 -74 -38 -123.5
t-104 -67.5v-4q77 -16 122.5 -70t45.5 -130z" />
    <glyph glyph-name="acute" unicode="&#xb4;" horiz-adv-x="633" 
d="M285 1186h-301l299 321h358z" />
    <glyph glyph-name="mu" unicode="&#xb5;" horiz-adv-x="1294" 
d="M772 0l2 137h-4q-18 -59 -68 -103t-102 -44q-48 0 -76 14h-4l4 -305h-422v1325h426v-539q0 -186 107 -186q45 0 79.5 23t51.5 65v637h426v-1024h-420z" />
    <glyph glyph-name="paragraph" unicode="&#xb6;" horiz-adv-x="1147" 
d="M948 1225v-1225h-227v1225h-98v-1225h-228v774q-125 14 -204.5 108t-79.5 226q0 141 93.5 233.5t237.5 92.5h615v-209h-109z" />
    <glyph glyph-name="periodcentered" unicode="&#xb7;" horiz-adv-x="655" 
d="M565 713q0 -91 -64 -147t-177 -56q-102 0 -168 58t-66 145q0 89 65.5 142.5t172.5 53.5q105 0 171 -53.5t66 -142.5z" />
    <glyph glyph-name="cedilla" unicode="&#xb8;" horiz-adv-x="457" 
d="M514 -244q0 -111 -90.5 -170t-257.5 -59q-53 0 -115 6v172q37 -8 82 -8q57 0 86 16.5t29 42.5q0 31 -23.5 45.5t-79.5 14.5h-18l-21 -2v186h213v-66q195 -14 195 -178z" />
    <glyph glyph-name="uni00B9" unicode="&#xb9;" horiz-adv-x="758" 
d="M285 584v610q-54 -34 -105.5 -53.5t-103.5 -29.5v209q34 4 75 17.5t81.5 33t77 41.5t62.5 42h173v-870h-260z" />
    <glyph glyph-name="ordmasculine" unicode="&#xba;" horiz-adv-x="950" 
d="M893 1087q0 -183 -110.5 -287t-309.5 -104q-196 0 -306 102t-110 281q0 174 112 274.5t306 100.5q131 0 225 -48t143.5 -131.5t49.5 -187.5zM586 1083q0 73 -30 113.5t-81 40.5q-113 0 -113 -158q0 -164 113 -164q54 0 82.5 43.5t28.5 124.5z" />
    <glyph glyph-name="guillemotright" unicode="&#xbb;" horiz-adv-x="1294" 
d="M915 201h-335l352 336l-350 344h333l347 -344zM369 201h-336l352 336l-350 344h334l346 -344z" />
    <glyph glyph-name="onequarter" unicode="&#xbc;" horiz-adv-x="1950" 
d="M285 584v610q-54 -34 -105.5 -53.5t-103.5 -29.5v209q34 4 75 17.5t81.5 33t77 41.5t62.5 42h173v-870h-260zM648 0h-316l922 1434h315zM1862 157h-100v-156h-241v156h-385v178q101 118 176.5 247.5t146.5 268.5h303v-499h100v-195zM1521 352v272q-2 -6 -11 -24
t-22 -42.5t-29.5 -53.5t-34.5 -57t-36.5 -53t-35.5 -42h169z" />
    <glyph glyph-name="onehalf" unicode="&#xbd;" horiz-adv-x="1976" 
d="M285 584v610q-54 -34 -105.5 -53.5t-103.5 -29.5v209q34 4 75 17.5t81.5 33t77 41.5t62.5 42h173v-870h-260zM648 0h-316l922 1434h315zM1229 1v90q0 69 26 118t65 86.5t85 67.5t85 61t65 66t26 84q0 28 -24 50t-72 22q-40 0 -96 -21t-109 -61v246q60 32 123 46.5
t135 14.5q76 0 135 -18.5t99.5 -51.5t61 -78.5t20.5 -99.5q0 -70 -22.5 -123t-56.5 -93t-73.5 -68.5t-73.5 -50t-56.5 -37.5t-22.5 -31v-4h319v-215h-639z" />
    <glyph glyph-name="threequarters" unicode="&#xbe;" horiz-adv-x="2005" 
d="M701 0h-316l922 1434h315zM1862 157h-100v-156h-241v156h-385v178q101 118 176.5 247.5t146.5 268.5h303v-499h100v-195zM1521 352v272q-2 -6 -11 -24t-22 -42.5t-29.5 -53.5t-34.5 -57t-36.5 -53t-35.5 -42h169zM690 836q0 -125 -106.5 -199t-276.5 -74q-80 0 -136 16.5
t-99 34.5v197q106 -53 217 -53q135 0 135 80q0 37 -34.5 58.5t-100.5 21.5h-139v194h131q56 0 87 20t31 56q0 32 -27 52t-75 20q-113 0 -203 -56v193q124 57 256 57q147 0 230.5 -59t83.5 -164q0 -74 -38 -123.5t-104 -67.5v-4q77 -16 122.5 -70t45.5 -130z" />
    <glyph glyph-name="questiondown" unicode="&#xbf;" horiz-adv-x="866" 
d="M721 846q0 -88 -64.5 -142.5t-173.5 -54.5q-106 0 -171.5 54.5t-65.5 142.5q0 89 64.5 146t172.5 57q106 0 172 -58.5t66 -144.5zM858 -362q-65 -37 -176.5 -64t-198.5 -27q-245 0 -374 96.5t-129 280.5q0 222 215 391q73 58 103 102t30 109v35h336v-88q0 -90 -28 -160.5
t-93 -126.5q-91 -77 -109.5 -98.5t-26.5 -43t-8 -50.5q0 -40 33.5 -66t87.5 -26q156 0 338 129v-393z" />
    <glyph glyph-name="Agrave" unicode="&#xc0;" horiz-adv-x="1536" 
d="M1040 0l-63 264h-428l-68 -264h-467l494 1434h536l465 -1434h-469zM768 1122h-10q-2 -24 -14 -79t-121 -472h274l-100 390q-21 86 -29 161zM716 1567l-356 321h358l299 -321h-301z" />
    <glyph glyph-name="Aacute" unicode="&#xc1;" horiz-adv-x="1536" 
d="M1040 0l-63 264h-428l-68 -264h-467l494 1434h536l465 -1434h-469zM768 1122h-10q-2 -24 -14 -79t-121 -472h274l-100 390q-21 86 -29 161zM821 1567h-301l299 321h358z" />
    <glyph glyph-name="Acircumflex" unicode="&#xc2;" horiz-adv-x="1536" 
d="M1040 0l-63 264h-428l-68 -264h-467l494 1434h536l465 -1434h-469zM768 1122h-10q-2 -24 -14 -79t-121 -472h274l-100 390q-21 86 -29 161zM914 1567l-148 153l-147 -153h-262l256 321h317l256 -321h-272z" />
    <glyph glyph-name="Atilde" unicode="&#xc3;" horiz-adv-x="1536" 
d="M1040 0l-63 264h-428l-68 -264h-467l494 1434h536l465 -1434h-469zM768 1122h-10q-2 -24 -14 -79t-121 -472h274l-100 390q-21 86 -29 161zM1159 1921q0 -165 -60 -252.5t-173 -87.5q-88 0 -170 49q-34 20 -62.5 38t-60.5 18q-38 0 -60 -31t-22 -88h-174q0 170 61.5 255
t167.5 85q102 0 189 -58q29 -18 55 -32.5t57 -14.5q34 0 55 29.5t21 89.5h176z" />
    <glyph glyph-name="Adieresis" unicode="&#xc4;" horiz-adv-x="1536" 
d="M1040 0l-63 264h-428l-68 -264h-467l494 1434h536l465 -1434h-469zM768 1122h-10q-2 -24 -14 -79t-121 -472h274l-100 390q-21 86 -29 161zM1210 1720q0 -73 -52 -118.5t-140 -45.5q-84 0 -138.5 46.5t-54.5 117.5t53 115t140 44t139.5 -44.5t52.5 -114.5zM709 1720
q0 -71 -51.5 -117.5t-141.5 -46.5q-85 0 -138.5 47.5t-53.5 116.5q0 71 53 115t139 44q87 0 140 -43.5t53 -115.5z" />
    <glyph glyph-name="Aring" unicode="&#xc5;" horiz-adv-x="1536" 
d="M1040 0l-63 264h-428l-68 -264h-467l494 1434q-27 54 -27 114q0 116 81.5 186t209.5 70q136 0 216.5 -71t80.5 -185q0 -67 -25 -114l465 -1434h-469zM879 1548q0 35 -26.5 61.5t-80.5 26.5q-49 0 -73.5 -25.5t-24.5 -62.5t27 -62.5t71 -25.5q48 0 77.5 25t29.5 63z
M768 1106h-10q-9 -57 -13 -74t-114 -430h258l-94 359q-14 55 -19 90z" />
    <glyph glyph-name="AE" unicode="&#xc6;" horiz-adv-x="2030" 
d="M1040 0v264h-432l-119 -264h-501l747 1434h1198v-338h-460v-209h432v-338h-432v-211h493v-338h-926zM1040 1096h-55l-240 -525h295v525z" />
    <glyph glyph-name="Ccedilla" unicode="&#xc7;" horiz-adv-x="1290" 
d="M1208 39q-132 -50 -346 -62v-43q195 -14 195 -178q0 -111 -90.5 -170t-257.5 -59q-53 0 -115 6v172q37 -8 82 -8q57 0 86 16.5t29 42.5q0 31 -23.5 45.5t-79.5 14.5h-18l-21 -2v172q-184 25 -316 118t-202 241.5t-70 338.5q0 227 98 404t277 273.5t412 96.5
q186 0 360 -45v-399q-60 36 -143 56t-168 20q-176 0 -277.5 -101t-101.5 -274q0 -172 101.5 -271.5t271.5 -99.5q157 0 317 80v-385z" />
    <glyph glyph-name="Egrave" unicode="&#xc8;" horiz-adv-x="1130" 
d="M141 0v1434h893v-338h-461v-209h433v-338h-433v-211h494v-338h-926zM537 1567l-356 321h358l299 -321h-301z" />
    <glyph glyph-name="Eacute" unicode="&#xc9;" horiz-adv-x="1130" 
d="M141 0v1434h893v-338h-461v-209h433v-338h-433v-211h494v-338h-926zM665 1567h-301l299 321h358z" />
    <glyph glyph-name="Ecircumflex" unicode="&#xca;" horiz-adv-x="1130" 
d="M141 0v1434h893v-338h-461v-209h433v-338h-433v-211h494v-338h-926zM726 1567l-148 153l-147 -153h-262l256 321h317l256 -321h-272z" />
    <glyph glyph-name="Edieresis" unicode="&#xcb;" horiz-adv-x="1130" 
d="M141 0v1434h893v-338h-461v-209h433v-338h-433v-211h494v-338h-926zM1028 1720q0 -73 -52 -118.5t-140 -45.5q-84 0 -138.5 46.5t-54.5 117.5t53 115t140 44t139.5 -44.5t52.5 -114.5zM527 1720q0 -71 -51.5 -117.5t-141.5 -46.5q-85 0 -138.5 47.5t-53.5 116.5
q0 71 53 115t139 44q87 0 140 -43.5t53 -115.5z" />
    <glyph glyph-name="Igrave" unicode="&#xcc;" horiz-adv-x="714" 
d="M141 0v1434h432v-1434h-432zM337 1567l-356 321h358l299 -321h-301z" />
    <glyph glyph-name="Iacute" unicode="&#xcd;" horiz-adv-x="714" 
d="M141 0v1434h432v-1434h-432zM441 1567h-301l299 321h358z" />
    <glyph glyph-name="Icircumflex" unicode="&#xce;" horiz-adv-x="772" 
d="M141 0v1434h432v-1434h-432zM532 1567l-148 153l-147 -153h-262l256 321h317l256 -321h-272z" />
    <glyph glyph-name="Idieresis" unicode="&#xcf;" horiz-adv-x="772" 
d="M141 0v1434h432v-1434h-432zM832 1720q0 -73 -52 -118.5t-140 -45.5q-84 0 -138.5 46.5t-54.5 117.5t53 115t140 44t139.5 -44.5t52.5 -114.5zM331 1720q0 -71 -51.5 -117.5t-141.5 -46.5q-85 0 -138.5 47.5t-53.5 116.5q0 71 53 115t139 44q87 0 140 -43.5t53 -115.5z
" />
    <glyph glyph-name="Eth" unicode="&#xd0;" horiz-adv-x="1554" 
d="M1493 735q0 -218 -91.5 -385.5t-261.5 -258.5t-392 -91h-607v549h-166v338h166v547h594q758 0 758 -699zM1034 731q0 105 -42.5 189t-121.5 130t-186 46h-111v-209h240v-338h-240v-211h121q155 0 247.5 106.5t92.5 286.5z" />
    <glyph glyph-name="Ntilde" unicode="&#xd1;" horiz-adv-x="1663" 
d="M1143 0l-506 692q-60 82 -98 148h-4q6 -106 6 -238v-602h-400v1434h408l485 -658q9 -13 22 -31t26 -37t24.5 -37t17.5 -32h4q-6 44 -6 152v643h400v-1434h-379zM1223 1921q0 -165 -60 -252.5t-173 -87.5q-88 0 -170 49q-34 20 -62.5 38t-60.5 18q-38 0 -60 -31t-22 -88
h-174q0 170 61.5 255t167.5 85q102 0 189 -58q29 -18 55 -32.5t57 -14.5q34 0 55 29.5t21 89.5h176z" />
    <glyph glyph-name="Ograve" unicode="&#xd2;" horiz-adv-x="1567" 
d="M1505 721q0 -216 -93 -386.5t-260 -265t-374 -94.5q-202 0 -367.5 91.5t-257.5 257t-92 374.5q0 219 93 394t261 270.5t382 95.5q206 0 368.5 -91.5t251 -261t88.5 -384.5zM1047 709q0 177 -68 279t-186 102q-129 0 -201 -98t-72 -277q0 -175 71.5 -273t194.5 -98
q75 0 135 44t93 126t33 195zM727 1567l-356 321h358l299 -321h-301z" />
    <glyph glyph-name="Oacute" unicode="&#xd3;" horiz-adv-x="1567" 
d="M1505 721q0 -216 -93 -386.5t-260 -265t-374 -94.5q-202 0 -367.5 91.5t-257.5 257t-92 374.5q0 219 93 394t261 270.5t382 95.5q206 0 368.5 -91.5t251 -261t88.5 -384.5zM1047 709q0 177 -68 279t-186 102q-129 0 -201 -98t-72 -277q0 -175 71.5 -273t194.5 -98
q75 0 135 44t93 126t33 195zM830 1567h-301l299 321h358z" />
    <glyph glyph-name="Ocircumflex" unicode="&#xd4;" horiz-adv-x="1567" 
d="M1505 721q0 -216 -93 -386.5t-260 -265t-374 -94.5q-202 0 -367.5 91.5t-257.5 257t-92 374.5q0 219 93 394t261 270.5t382 95.5q206 0 368.5 -91.5t251 -261t88.5 -384.5zM1047 709q0 177 -68 279t-186 102q-129 0 -201 -98t-72 -277q0 -175 71.5 -273t194.5 -98
q75 0 135 44t93 126t33 195zM930 1567l-148 153l-147 -153h-262l256 321h317l256 -321h-272z" />
    <glyph glyph-name="Otilde" unicode="&#xd5;" horiz-adv-x="1567" 
d="M1505 721q0 -216 -93 -386.5t-260 -265t-374 -94.5q-202 0 -367.5 91.5t-257.5 257t-92 374.5q0 219 93 394t261 270.5t382 95.5q206 0 368.5 -91.5t251 -261t88.5 -384.5zM1047 709q0 177 -68 279t-186 102q-129 0 -201 -98t-72 -277q0 -175 71.5 -273t194.5 -98
q75 0 135 44t93 126t33 195zM1179 1921q0 -165 -60 -252.5t-173 -87.5q-88 0 -170 49q-34 20 -62.5 38t-60.5 18q-38 0 -60 -31t-22 -88h-174q0 170 61.5 255t167.5 85q102 0 189 -58q29 -18 55 -32.5t57 -14.5q34 0 55 29.5t21 89.5h176z" />
    <glyph glyph-name="Odieresis" unicode="&#xd6;" horiz-adv-x="1567" 
d="M1505 721q0 -216 -93 -386.5t-260 -265t-374 -94.5q-202 0 -367.5 91.5t-257.5 257t-92 374.5q0 219 93 394t261 270.5t382 95.5q206 0 368.5 -91.5t251 -261t88.5 -384.5zM1047 709q0 177 -68 279t-186 102q-129 0 -201 -98t-72 -277q0 -175 71.5 -273t194.5 -98
q75 0 135 44t93 126t33 195zM1225 1720q0 -73 -52 -118.5t-140 -45.5q-84 0 -138.5 46.5t-54.5 117.5t53 115t140 44t139.5 -44.5t52.5 -114.5zM724 1720q0 -71 -51.5 -117.5t-141.5 -46.5q-85 0 -138.5 47.5t-53.5 116.5q0 71 53 115t139 44q87 0 140 -43.5t53 -115.5z" />
    <glyph glyph-name="multiply" unicode="&#xd7;" horiz-adv-x="1464" 
d="M1071 66l-336 340l-336 -340l-178 176l336 333l-338 340l170 179l346 -340l344 340l164 -189l-334 -330l338 -335z" />
    <glyph glyph-name="Oslash" unicode="&#xd8;" horiz-adv-x="1567" 
d="M1505 721q0 -216 -93 -386.5t-260 -265t-374 -94.5q-228 0 -409 117l-146 -164l-160 133l150 172q-152 193 -152 465q0 219 93 394t261 270.5t382 95.5q230 0 401 -112l127 143l162 -133l-133 -152q151 -195 151 -483zM1094 707q0 86 -11 194l-481 -547q82 -61 186 -61
q84 0 155 51.5t111 144t40 218.5zM969 1083q-79 58 -174 58q-150 0 -236 -119.5t-86 -319.5q0 -97 10 -165z" />
    <glyph glyph-name="Ugrave" unicode="&#xd9;" horiz-adv-x="1516" 
d="M1391 655q0 -345 -157.5 -512.5t-485.5 -167.5q-306 0 -464.5 167.5t-158.5 504.5v787h434v-803q0 -138 51.5 -212.5t147.5 -74.5q97 0 147.5 70t50.5 207v813h435v-779zM706 1567l-356 321h358l299 -321h-301z" />
    <glyph glyph-name="Uacute" unicode="&#xda;" horiz-adv-x="1516" 
d="M1391 655q0 -345 -157.5 -512.5t-485.5 -167.5q-306 0 -464.5 167.5t-158.5 504.5v787h434v-803q0 -138 51.5 -212.5t147.5 -74.5q97 0 147.5 70t50.5 207v813h435v-779zM811 1567h-301l299 321h358z" />
    <glyph glyph-name="Ucircumflex" unicode="&#xdb;" horiz-adv-x="1516" 
d="M1391 655q0 -345 -157.5 -512.5t-485.5 -167.5q-306 0 -464.5 167.5t-158.5 504.5v787h434v-803q0 -138 51.5 -212.5t147.5 -74.5q97 0 147.5 70t50.5 207v813h435v-779zM901 1567l-148 153l-147 -153h-262l256 321h317l256 -321h-272z" />
    <glyph glyph-name="Udieresis" unicode="&#xdc;" horiz-adv-x="1516" 
d="M1391 655q0 -345 -157.5 -512.5t-485.5 -167.5q-306 0 -464.5 167.5t-158.5 504.5v787h434v-803q0 -138 51.5 -212.5t147.5 -74.5q97 0 147.5 70t50.5 207v813h435v-779zM1200 1720q0 -73 -52 -118.5t-140 -45.5q-84 0 -138.5 46.5t-54.5 117.5t53 115t140 44
t139.5 -44.5t52.5 -114.5zM699 1720q0 -71 -51.5 -117.5t-141.5 -46.5q-85 0 -138.5 47.5t-53.5 116.5q0 71 53 115t139 44q87 0 140 -43.5t53 -115.5z" />
    <glyph glyph-name="Yacute" unicode="&#xdd;" horiz-adv-x="1331" 
d="M874 498v-498h-432v492l-442 942h496l155 -451q16 -46 22.5 -80t14.5 -69h4q13 91 29 141l153 459h457zM738 1534h-301l299 321h358z" />
    <glyph glyph-name="Thorn" unicode="&#xde;" horiz-adv-x="1343" 
d="M1313 758q0 -147 -74.5 -261t-212.5 -176.5t-321 -62.5h-132v-258h-432v1434h432v-203h156q303 0 443.5 -115t140.5 -358zM856 743q0 88 -50.5 133.5t-150.5 45.5h-82v-355h97q186 0 186 176z" />
    <glyph glyph-name="germandbls" unicode="&#xdf;" horiz-adv-x="1417" 
d="M1360 416q0 -126 -69 -230.5t-185 -157.5t-266 -53q-50 0 -99 5.5t-133 27.5v330q88 -51 172 -51q75 0 111.5 40t36.5 109q0 87 -84 134.5t-236 47.5v283q98 0 156.5 41.5t58.5 132.5q0 65 -38.5 109.5t-102.5 44.5q-74 0 -114 -55.5t-40 -149.5v-1024h-426v989
q0 167 70.5 291t206 192t328.5 68q168 0 291.5 -55.5t190 -153.5t66.5 -217q0 -114 -63 -198.5t-172 -118.5v-4q159 -34 249.5 -131t90.5 -246z" />
    <glyph glyph-name="agrave" unicode="&#xe0;" horiz-adv-x="1149" 
d="M670 0v156h-4q-102 -181 -312 -181q-145 0 -227 86t-82 230q0 302 371 350l254 33q0 50 -45 82t-121 32q-172 0 -363 -98v277q83 36 208 59t214 23q261 0 378.5 -111.5t117.5 -372.5v-565h-389zM418 348q0 -42 26.5 -69t75.5 -27q67 0 108.5 50t41.5 128v39l-144 -20
q-108 -18 -108 -101zM500 1186l-356 321h358l299 -321h-301z" />
    <glyph glyph-name="aacute" unicode="&#xe1;" horiz-adv-x="1149" 
d="M670 0v156h-4q-102 -181 -312 -181q-145 0 -227 86t-82 230q0 302 371 350l254 33q0 50 -45 82t-121 32q-172 0 -363 -98v277q83 36 208 59t214 23q261 0 378.5 -111.5t117.5 -372.5v-565h-389zM418 348q0 -42 26.5 -69t75.5 -27q67 0 108.5 50t41.5 128v39l-144 -20
q-108 -18 -108 -101zM607 1186h-301l299 321h358z" />
    <glyph glyph-name="acircumflex" unicode="&#xe2;" horiz-adv-x="1149" 
d="M670 0v156h-4q-102 -181 -312 -181q-145 0 -227 86t-82 230q0 302 371 350l254 33q0 50 -45 82t-121 32q-172 0 -363 -98v277q83 36 208 59t214 23q261 0 378.5 -111.5t117.5 -372.5v-565h-389zM418 348q0 -42 26.5 -69t75.5 -27q67 0 108.5 50t41.5 128v39l-144 -20
q-108 -18 -108 -101zM725 1186l-148 153l-147 -153h-262l256 321h317l256 -321h-272z" />
    <glyph glyph-name="atilde" unicode="&#xe3;" horiz-adv-x="1149" 
d="M670 0v156h-4q-102 -181 -312 -181q-145 0 -227 86t-82 230q0 302 371 350l254 33q0 50 -45 82t-121 32q-172 0 -363 -98v277q83 36 208 59t214 23q261 0 378.5 -111.5t117.5 -372.5v-565h-389zM418 348q0 -42 26.5 -69t75.5 -27q67 0 108.5 50t41.5 128v39l-144 -20
q-108 -18 -108 -101zM970 1540q0 -165 -60 -252.5t-173 -87.5q-88 0 -170 49q-34 20 -62.5 38t-60.5 18q-38 0 -60 -31t-22 -88h-174q0 170 61.5 255t167.5 85q102 0 189 -58q29 -18 55 -32.5t57 -14.5q34 0 55 29.5t21 89.5h176z" />
    <glyph glyph-name="adieresis" unicode="&#xe4;" horiz-adv-x="1149" 
d="M670 0v156h-4q-102 -181 -312 -181q-145 0 -227 86t-82 230q0 302 371 350l254 33q0 50 -45 82t-121 32q-172 0 -363 -98v277q83 36 208 59t214 23q261 0 378.5 -111.5t117.5 -372.5v-565h-389zM418 348q0 -42 26.5 -69t75.5 -27q67 0 108.5 50t41.5 128v39l-144 -20
q-108 -18 -108 -101zM1017 1339q0 -73 -52 -118.5t-140 -45.5q-84 0 -138.5 46.5t-54.5 117.5t53 115t140 44t139.5 -44.5t52.5 -114.5zM516 1339q0 -71 -51.5 -117.5t-141.5 -46.5q-85 0 -138.5 47.5t-53.5 116.5q0 71 53 115t139 44q87 0 140 -43.5t53 -115.5z" />
    <glyph glyph-name="aring" unicode="&#xe5;" horiz-adv-x="1149" 
d="M670 0v156h-4q-102 -181 -312 -181q-145 0 -227 86t-82 230q0 302 371 350l254 33q0 50 -45 82t-121 32q-172 0 -363 -98v277q83 36 208 59t214 23q261 0 378.5 -111.5t117.5 -372.5v-565h-389zM418 348q0 -42 26.5 -69t75.5 -27q67 0 108.5 50t41.5 128v39l-144 -20
q-108 -18 -108 -101zM846 1421q0 -106 -75.5 -170.5t-195.5 -64.5q-115 0 -189.5 65.5t-74.5 169.5q0 72 34.5 124.5t95.5 81t134 28.5q124 0 197.5 -64.5t73.5 -169.5zM672 1421q0 32 -23.5 56t-73.5 24q-45 0 -67.5 -23t-22.5 -57t25.5 -57t64.5 -23q42 0 69.5 22.5
t27.5 57.5z" />
    <glyph glyph-name="ae" unicode="&#xe6;" horiz-adv-x="1716" 
d="M1038 391q31 -141 250 -141q149 0 285 59v-270q-163 -64 -395 -64q-133 0 -242.5 41t-171.5 111h-4q-143 -152 -344 -152q-181 0 -276 84.5t-95 237.5q0 146 96 235.5t271 106.5l258 25q0 59 -45 91.5t-123 32.5q-81 0 -177 -25.5t-184 -72.5v277q95 36 207 59t187 23
q206 0 342 -93h4q149 93 307 93q220 0 351.5 -136.5t131.5 -367.5v-154h-633zM1294 614q0 177 -127 177q-53 0 -91 -52t-38 -125h256zM668 459l-138 -10q-55 -5 -84.5 -33.5t-29.5 -69.5q0 -40 30 -67t76 -27q65 0 105.5 49t40.5 123v35z" />
    <glyph glyph-name="ccedilla" unicode="&#xe7;" horiz-adv-x="1014" 
d="M946 29q-84 -50 -316 -54v-41q195 -14 195 -178q0 -111 -90.5 -170t-257.5 -59q-54 0 -115 6v172q37 -8 82 -8q57 0 86 16.5t29 42.5q0 31 -23 45.5t-80 14.5h-18l-21 -2v189q-169 52 -264.5 182t-95.5 304q0 176 74.5 301.5t212.5 192t320 66.5q100 0 179.5 -13
t102.5 -30v-332q-32 25 -92 44t-111 19q-126 0 -190 -59t-64 -168q0 -106 63 -164.5t175 -58.5q119 0 219 57v-315z" />
    <glyph glyph-name="egrave" unicode="&#xe8;" horiz-adv-x="1147" 
d="M469 391q11 -66 76 -103.5t172 -37.5q149 0 282 57v-270q-155 -62 -376 -62q-268 0 -417 137t-149 377q0 165 65.5 291t194 197.5t283.5 71.5q159 0 272 -62t171.5 -174t58.5 -262v-160h-633zM725 614q0 177 -127 177q-53 0 -89 -48.5t-42 -128.5h258zM511 1186l-356 321
h358l299 -321h-301z" />
    <glyph glyph-name="eacute" unicode="&#xe9;" horiz-adv-x="1147" 
d="M469 391q11 -66 76 -103.5t172 -37.5q149 0 282 57v-270q-155 -62 -376 -62q-268 0 -417 137t-149 377q0 165 65.5 291t194 197.5t283.5 71.5q159 0 272 -62t171.5 -174t58.5 -262v-160h-633zM725 614q0 177 -127 177q-53 0 -89 -48.5t-42 -128.5h258zM646 1186h-301
l299 321h358z" />
    <glyph glyph-name="ecircumflex" unicode="&#xea;" horiz-adv-x="1147" 
d="M469 391q11 -66 76 -103.5t172 -37.5q149 0 282 57v-270q-155 -62 -376 -62q-268 0 -417 137t-149 377q0 165 65.5 291t194 197.5t283.5 71.5q159 0 272 -62t171.5 -174t58.5 -262v-160h-633zM725 614q0 177 -127 177q-53 0 -89 -48.5t-42 -128.5h258zM733 1186l-148 153
l-147 -153h-262l256 321h317l256 -321h-272z" />
    <glyph glyph-name="edieresis" unicode="&#xeb;" horiz-adv-x="1147" 
d="M469 391q11 -66 76 -103.5t172 -37.5q149 0 282 57v-270q-155 -62 -376 -62q-268 0 -417 137t-149 377q0 165 65.5 291t194 197.5t283.5 71.5q159 0 272 -62t171.5 -174t58.5 -262v-160h-633zM725 614q0 177 -127 177q-53 0 -89 -48.5t-42 -128.5h258zM1035 1339
q0 -73 -52 -118.5t-140 -45.5q-84 0 -138.5 46.5t-54.5 117.5t53 115t140 44t139.5 -44.5t52.5 -114.5zM534 1339q0 -71 -51.5 -117.5t-141.5 -46.5q-85 0 -138.5 47.5t-53.5 116.5q0 71 53 115t139 44q87 0 140 -43.5t53 -115.5z" />
    <glyph glyph-name="igrave" unicode="&#xec;" horiz-adv-x="631" 
d="M102 0v1024h426v-1024h-426zM264 1186l-356 321h358l299 -321h-301z" />
    <glyph glyph-name="iacute" unicode="&#xed;" horiz-adv-x="631" 
d="M102 0v1024h426v-1024h-426zM368 1186h-301l299 321h358z" />
    <glyph glyph-name="icircumflex" unicode="&#xee;" horiz-adv-x="631" 
d="M102 0v1024h426v-1024h-426zM463 1186l-148 153l-147 -153h-262l256 321h317l256 -321h-272z" />
    <glyph glyph-name="idieresis" unicode="&#xef;" horiz-adv-x="631" 
d="M102 0v1024h426v-1024h-426zM758 1339q0 -73 -52 -118.5t-140 -45.5q-84 0 -138.5 46.5t-54.5 117.5t53 115t140 44t139.5 -44.5t52.5 -114.5zM257 1339q0 -71 -51.5 -117.5t-141.5 -46.5q-85 0 -138.5 47.5t-53.5 116.5q0 71 53 115t139 44q87 0 140 -43.5t53 -115.5z
" />
    <glyph glyph-name="eth" unicode="&#xf0;" horiz-adv-x="1278" 
d="M1221 590q0 -180 -74.5 -321t-209 -217.5t-306.5 -76.5q-270 0 -422 146.5t-152 406.5q0 146 61 261.5t171.5 180t245.5 64.5q53 0 109 -20t101 -58l5 2q-81 135 -201 226l-285 -137l-102 167l221 103l-272 199h438l102 -70l262 127l91 -168l-177 -86
q190 -137 292 -325.5t102 -403.5zM788 528q0 213 -147 213q-71 0 -111.5 -59t-40.5 -160q0 -118 41 -174.5t107 -56.5q72 0 111.5 60t39.5 177z" />
    <glyph glyph-name="ntilde" unicode="&#xf1;" horiz-adv-x="1282" 
d="M766 0v559q0 95 -28.5 136.5t-92.5 41.5q-55 0 -86 -43t-31 -110v-584h-426v1024h426v-160h4q51 88 137 136.5t187 48.5q336 0 336 -424v-625h-426zM1032 1540q0 -165 -60 -252.5t-173 -87.5q-88 0 -170 49q-34 20 -62.5 38t-60.5 18q-38 0 -60 -31t-22 -88h-174
q0 170 61.5 255t167.5 85q102 0 189 -58q29 -18 55 -32.5t57 -14.5q34 0 55 29.5t21 89.5h176z" />
    <glyph glyph-name="ograve" unicode="&#xf2;" horiz-adv-x="1298" 
d="M1241 530q0 -259 -156.5 -407t-437.5 -148q-279 0 -434.5 144.5t-155.5 398.5q0 163 73 283t208 184t311 64q182 0 315.5 -67t205 -186t71.5 -266zM809 528q0 209 -160 209t-160 -219q0 -231 162 -231q158 0 158 241zM597 1186l-356 321h358l299 -321h-301z" />
    <glyph glyph-name="oacute" unicode="&#xf3;" horiz-adv-x="1298" 
d="M1241 530q0 -259 -156.5 -407t-437.5 -148q-279 0 -434.5 144.5t-155.5 398.5q0 163 73 283t208 184t311 64q182 0 315.5 -67t205 -186t71.5 -266zM809 528q0 209 -160 209t-160 -219q0 -231 162 -231q158 0 158 241zM702 1186h-301l299 321h358z" />
    <glyph glyph-name="ocircumflex" unicode="&#xf4;" horiz-adv-x="1298" 
d="M1241 530q0 -259 -156.5 -407t-437.5 -148q-279 0 -434.5 144.5t-155.5 398.5q0 163 73 283t208 184t311 64q182 0 315.5 -67t205 -186t71.5 -266zM809 528q0 209 -160 209t-160 -219q0 -231 162 -231q158 0 158 241zM795 1186l-148 153l-147 -153h-262l256 321h317
l256 -321h-272z" />
    <glyph glyph-name="otilde" unicode="&#xf5;" horiz-adv-x="1298" 
d="M1241 530q0 -259 -156.5 -407t-437.5 -148q-279 0 -434.5 144.5t-155.5 398.5q0 163 73 283t208 184t311 64q182 0 315.5 -67t205 -186t71.5 -266zM809 528q0 209 -160 209t-160 -219q0 -231 162 -231q158 0 158 241zM1040 1540q0 -165 -60 -252.5t-173 -87.5
q-88 0 -170 49q-34 20 -62.5 38t-60.5 18q-38 0 -60 -31t-22 -88h-174q0 170 61.5 255t167.5 85q102 0 189 -58q29 -18 55 -32.5t57 -14.5q34 0 55 29.5t21 89.5h176z" />
    <glyph glyph-name="odieresis" unicode="&#xf6;" horiz-adv-x="1298" 
d="M1241 530q0 -259 -156.5 -407t-437.5 -148q-279 0 -434.5 144.5t-155.5 398.5q0 163 73 283t208 184t311 64q182 0 315.5 -67t205 -186t71.5 -266zM809 528q0 209 -160 209t-160 -219q0 -231 162 -231q158 0 158 241zM1091 1339q0 -73 -52 -118.5t-140 -45.5
q-84 0 -138.5 46.5t-54.5 117.5t53 115t140 44t139.5 -44.5t52.5 -114.5zM590 1339q0 -71 -51.5 -117.5t-141.5 -46.5q-85 0 -138.5 47.5t-53.5 116.5q0 71 53 115t139 44q87 0 140 -43.5t53 -115.5z" />
    <glyph glyph-name="divide" unicode="&#xf7;" horiz-adv-x="1464" 
d="M893 983q0 -69 -45 -114.5t-113 -45.5q-67 0 -115.5 47.5t-48.5 110.5q0 68 46.5 117t117.5 49q70 0 114 -46.5t44 -117.5zM238 455v247h991v-247h-991zM893 170q0 -69 -45 -114.5t-113 -45.5q-67 0 -115.5 47.5t-48.5 110.5q0 69 46 116.5t118 47.5q68 0 113 -44.5
t45 -117.5z" />
    <glyph glyph-name="oslash" unicode="&#xf8;" horiz-adv-x="1298" 
d="M1116 862q125 -148 125 -338q0 -256 -153.5 -401.5t-440.5 -145.5q-198 0 -338 78l-133 -135l-143 125l133 135q-109 144 -109 340q0 163 73 283t208 184t311 64q182 0 318 -70l125 125l143 -125zM750 762q-48 20 -99 20q-105 0 -152.5 -66.5t-47.5 -193.5v-29l2 -26z
M850 528v33l-2 33l-318 -320q49 -28 121 -28q97 0 148 71.5t51 210.5z" />
    <glyph glyph-name="ugrave" unicode="&#xf9;" horiz-adv-x="1282" 
d="M754 0v158h-4q-53 -73 -95.5 -107t-96 -55t-124.5 -21q-168 0 -256 109t-88 322v618h426v-586q0 -151 113 -151q62 0 93.5 41t31.5 116v580h426v-1024h-426zM583 1186l-356 321h358l299 -321h-301z" />
    <glyph glyph-name="uacute" unicode="&#xfa;" horiz-adv-x="1282" 
d="M754 0v158h-4q-53 -73 -95.5 -107t-96 -55t-124.5 -21q-168 0 -256 109t-88 322v618h426v-586q0 -151 113 -151q62 0 93.5 41t31.5 116v580h426v-1024h-426zM686 1186h-301l299 321h358z" />
    <glyph glyph-name="ucircumflex" unicode="&#xfb;" horiz-adv-x="1282" 
d="M754 0v158h-4q-53 -73 -95.5 -107t-96 -55t-124.5 -21q-168 0 -256 109t-88 322v618h426v-586q0 -151 113 -151q62 0 93.5 41t31.5 116v580h426v-1024h-426zM787 1186l-148 153l-147 -153h-262l256 321h317l256 -321h-272z" />
    <glyph glyph-name="udieresis" unicode="&#xfc;" horiz-adv-x="1282" 
d="M754 0v158h-4q-53 -73 -95.5 -107t-96 -55t-124.5 -21q-168 0 -256 109t-88 322v618h426v-586q0 -151 113 -151q62 0 93.5 41t31.5 116v580h426v-1024h-426zM1083 1339q0 -73 -52 -118.5t-140 -45.5q-84 0 -138.5 46.5t-54.5 117.5t53 115t140 44t139.5 -44.5
t52.5 -114.5zM582 1339q0 -71 -51.5 -117.5t-141.5 -46.5q-85 0 -138.5 47.5t-53.5 116.5q0 71 53 115t139 44q87 0 140 -43.5t53 -115.5z" />
    <glyph glyph-name="yacute" unicode="&#xfd;" horiz-adv-x="1176" 
d="M301 -481q-60 0 -129 10.5t-123 30.5v321q25 -19 74.5 -35t93.5 -16q119 0 158 94l33 80l-428 1020h471l124 -494q36 -138 39 -186h4q3 22 8.5 49t155.5 631h414l-377 -1053q-85 -242 -210.5 -347t-307.5 -105zM661 1186h-301l299 321h358z" />
    <glyph glyph-name="thorn" unicode="&#xfe;" horiz-adv-x="1315" 
d="M1257 543q0 -168 -57 -297t-161 -200t-234 -71q-180 0 -273 131h-4v-577h-426v1987h426v-631h4q51 77 132 120.5t184 43.5q198 0 303.5 -132t105.5 -374zM825 530q0 97 -37.5 152t-115.5 55q-68 0 -110 -58t-42 -159v-20q0 -97 36 -155t108 -58q77 0 119 63.5t42 179.5z
" />
    <glyph glyph-name="ydieresis" unicode="&#xff;" horiz-adv-x="1176" 
d="M301 -481q-60 0 -129 10.5t-123 30.5v321q25 -19 74.5 -35t93.5 -16q119 0 158 94l33 80l-428 1020h471l124 -494q36 -138 39 -186h4q3 22 8.5 49t155.5 631h414l-377 -1053q-85 -242 -210.5 -347t-307.5 -105zM1040 1339q0 -73 -52 -118.5t-140 -45.5q-84 0 -138.5 46.5
t-54.5 117.5t53 115t140 44t139.5 -44.5t52.5 -114.5zM539 1339q0 -71 -51.5 -117.5t-141.5 -46.5q-85 0 -138.5 47.5t-53.5 116.5q0 71 53 115t139 44q87 0 140 -43.5t53 -115.5z" />
    <glyph glyph-name="Amacron" unicode="&#x100;" horiz-adv-x="1536" 
d="M1040 0l-63 264h-428l-68 -264h-467l494 1434h536l465 -1434h-469zM768 1122h-10q-2 -24 -14 -79t-121 -472h274l-100 390q-21 86 -29 161zM439 1568v223h655v-223h-655z" />
    <glyph glyph-name="amacron" unicode="&#x101;" horiz-adv-x="1149" 
d="M670 0v156h-4q-102 -181 -312 -181q-145 0 -227 86t-82 230q0 302 371 350l254 33q0 50 -45 82t-121 32q-172 0 -363 -98v277q83 36 208 59t214 23q261 0 378.5 -111.5t117.5 -372.5v-565h-389zM418 348q0 -42 26.5 -69t75.5 -27q67 0 108.5 50t41.5 128v39l-144 -20
q-108 -18 -108 -101zM263 1187v223h655v-223h-655z" />
    <glyph glyph-name="Abreve" unicode="&#x102;" horiz-adv-x="1536" 
d="M1040 0l-63 264h-428l-68 -264h-467l494 1434h536l465 -1434h-469zM768 1122h-10q-2 -24 -14 -79t-121 -472h274l-100 390q-21 86 -29 161zM1156 1913q-16 -167 -117 -256.5t-276 -89.5q-112 0 -199 44t-136 124t-50 178h240q10 -55 49 -87t102 -32q62 0 100 32t48 87
h239z" />
    <glyph glyph-name="abreve" unicode="&#x103;" horiz-adv-x="1149" 
d="M670 0v156h-4q-102 -181 -312 -181q-145 0 -227 86t-82 230q0 302 371 350l254 33q0 50 -45 82t-121 32q-172 0 -363 -98v277q83 36 208 59t214 23q261 0 378.5 -111.5t117.5 -372.5v-565h-389zM418 348q0 -42 26.5 -69t75.5 -27q67 0 108.5 50t41.5 128v39l-144 -20
q-108 -18 -108 -101zM979 1532q-16 -167 -117 -256.5t-276 -89.5q-112 0 -199 44t-136 124t-50 178h240q10 -55 49 -87t102 -32q62 0 100 32t48 87h239z" />
    <glyph glyph-name="Aogonek" unicode="&#x104;" horiz-adv-x="1536" 
d="M1333 0q-24 -38 -42 -85.5t-18 -85.5q0 -37 20 -56t53 -19q56 0 118 28v-154q-34 -19 -86.5 -31.5t-93.5 -12.5q-116 0 -174 54.5t-58 148.5q0 58 27.5 113.5t76.5 99.5h-116l-63 264h-428l-68 -264h-467l494 1434h536l465 -1434h-176zM768 1122h-10q-2 -24 -14 -79
t-121 -472h274l-100 390q-21 86 -29 161z" />
    <glyph glyph-name="aogonek" unicode="&#x105;" horiz-adv-x="1149" 
d="M932 0q-24 -38 -42 -85.5t-18 -85.5q0 -37 20 -56t53 -19q56 0 118 28v-154q-34 -19 -86.5 -31.5t-93.5 -12.5q-116 0 -174 54.5t-58 148.5q0 58 27.5 113.5t76.5 99.5h-85v156h-4q-102 -181 -312 -181q-145 0 -227 86t-82 230q0 302 371 350l254 33q0 50 -45 82t-121 32
q-172 0 -363 -98v277q83 36 208 59t214 23q261 0 378.5 -111.5t117.5 -372.5v-565h-127zM418 348q0 -42 26.5 -69t75.5 -27q67 0 108.5 50t41.5 128v39l-144 -20q-108 -18 -108 -101z" />
    <glyph glyph-name="Cacute" unicode="&#x106;" horiz-adv-x="1290" 
d="M1208 39q-178 -64 -411 -64q-229 0 -395 87.5t-253.5 249t-87.5 372.5q0 227 98 404t277 273.5t412 96.5q186 0 360 -45v-399q-60 36 -143 56t-168 20q-176 0 -277.5 -101t-101.5 -274q0 -172 101.5 -271.5t271.5 -99.5q157 0 317 80v-385zM848 1567h-301l299 321h358z
" />
    <glyph glyph-name="cacute" unicode="&#x107;" horiz-adv-x="1014" 
d="M946 29q-41 -24 -129 -39t-203 -15q-162 0 -289.5 65.5t-197.5 183.5t-70 265q0 176 74.5 301.5t212.5 192t320 66.5q100 0 179.5 -13t102.5 -30v-332q-32 25 -92 44t-111 19q-125 0 -189.5 -59.5t-64.5 -167.5q0 -106 63.5 -164.5t174.5 -58.5q119 0 219 57v-315z
M665 1186h-301l299 321h358z" />
    <glyph glyph-name="Ccircumflex" unicode="&#x108;" horiz-adv-x="1290" 
d="M1208 39q-178 -64 -411 -64q-229 0 -395 87.5t-253.5 249t-87.5 372.5q0 227 98 404t277 273.5t412 96.5q186 0 360 -45v-399q-60 36 -143 56t-168 20q-176 0 -277.5 -101t-101.5 -274q0 -172 101.5 -271.5t271.5 -99.5q157 0 317 80v-385zM877 1567l-148 153l-147 -153
h-262l256 321h317l256 -321h-272z" />
    <glyph glyph-name="ccircumflex" unicode="&#x109;" horiz-adv-x="1014" 
d="M946 29q-41 -24 -129 -39t-203 -15q-162 0 -289.5 65.5t-197.5 183.5t-70 265q0 176 74.5 301.5t212.5 192t320 66.5q100 0 179.5 -13t102.5 -30v-332q-32 25 -92 44t-111 19q-125 0 -189.5 -59.5t-64.5 -167.5q0 -106 63.5 -164.5t174.5 -58.5q119 0 219 57v-315z
M692 1186l-148 153l-147 -153h-262l256 321h317l256 -321h-272z" />
    <glyph glyph-name="Cdotaccent" unicode="&#x10a;" horiz-adv-x="1290" 
d="M1208 39q-178 -64 -411 -64q-229 0 -395 87.5t-253.5 249t-87.5 372.5q0 227 98 404t277 273.5t412 96.5q186 0 360 -45v-399q-60 36 -143 56t-168 20q-176 0 -277.5 -101t-101.5 -274q0 -172 101.5 -271.5t271.5 -99.5q157 0 317 80v-385zM898 1731q0 -73 -53 -118.5
t-139 -45.5q-84 0 -138.5 47t-54.5 117q0 72 53.5 115.5t139.5 43.5q87 0 139.5 -43.5t52.5 -115.5z" />
    <glyph glyph-name="cdotaccent" unicode="&#x10b;" horiz-adv-x="1014" 
d="M946 29q-41 -24 -129 -39t-203 -15q-162 0 -289.5 65.5t-197.5 183.5t-70 265q0 176 74.5 301.5t212.5 192t320 66.5q100 0 179.5 -13t102.5 -30v-332q-32 25 -92 44t-111 19q-125 0 -189.5 -59.5t-64.5 -167.5q0 -106 63.5 -164.5t174.5 -58.5q119 0 219 57v-315z
M733 1350q0 -73 -53 -118.5t-139 -45.5q-84 0 -138.5 47t-54.5 117q0 72 53.5 115.5t139.5 43.5q87 0 139.5 -43.5t52.5 -115.5z" />
    <glyph glyph-name="Ccaron" unicode="&#x10c;" horiz-adv-x="1290" 
d="M1208 39q-178 -64 -411 -64q-229 0 -395 87.5t-253.5 249t-87.5 372.5q0 227 98 404t277 273.5t412 96.5q186 0 360 -45v-399q-60 36 -143 56t-168 20q-176 0 -277.5 -101t-101.5 -274q0 -172 101.5 -271.5t271.5 -99.5q157 0 317 80v-385zM1140 1888l-256 -321h-317
l-256 321h262l147 -153l148 153h272z" />
    <glyph glyph-name="ccaron" unicode="&#x10d;" horiz-adv-x="1014" 
d="M946 29q-41 -24 -129 -39t-203 -15q-162 0 -289.5 65.5t-197.5 183.5t-70 265q0 176 74.5 301.5t212.5 192t320 66.5q100 0 179.5 -13t102.5 -30v-332q-32 25 -92 44t-111 19q-125 0 -189.5 -59.5t-64.5 -167.5q0 -106 63.5 -164.5t174.5 -58.5q119 0 219 57v-315z
M964 1507l-256 -321h-317l-256 321h262l147 -153l148 153h272z" />
    <glyph glyph-name="Dcaron" unicode="&#x10e;" horiz-adv-x="1554" 
d="M1493 735q0 -218 -91.5 -385.5t-261.5 -258.5t-392 -91h-607v1434h594q758 0 758 -699zM1034 731q0 105 -42.5 189t-121.5 130t-186 46h-111v-758h121q155 0 247.5 106.5t92.5 286.5zM1152 1888l-256 -321h-317l-256 321h262l147 -153l148 153h272z" />
    <glyph glyph-name="dcaron" unicode="&#x10f;" horiz-adv-x="1662" 
d="M786 0v119h-4q-51 -67 -133 -105.5t-162 -38.5q-131 0 -231 64.5t-149.5 180.5t-49.5 274q0 163 59 289t166 196t240 70q63 0 116.5 -18t93 -48.5t50.5 -60.5h4v594h426v-1516h-426zM795 543q0 92 -40.5 143t-109.5 51t-112.5 -63.5t-43.5 -169.5q0 -217 150 -217
q71 0 113.5 58.5t42.5 170.5v27zM1702 1516l-201 -364h-220l63 364h358z" />
    <glyph glyph-name="Dcroat" unicode="&#x110;" horiz-adv-x="1554" 
d="M1493 735q0 -218 -91.5 -385.5t-261.5 -258.5t-392 -91h-607v549h-166v338h166v547h594q758 0 758 -699zM1034 731q0 105 -42.5 189t-121.5 130t-186 46h-111v-209h240v-338h-240v-211h121q155 0 247.5 106.5t92.5 286.5z" />
    <glyph glyph-name="dcroat" unicode="&#x111;" horiz-adv-x="1315" 
d="M786 0v119h-4q-51 -67 -133 -105.5t-162 -38.5q-131 0 -231 64.5t-149.5 180.5t-49.5 274q0 163 59 289t166 196t240 70q63 0 116.5 -18t93 -48.5t50.5 -60.5h4v233h-275v195h275v166h426v-166h103v-195h-103v-1155h-426zM795 543q0 92 -40.5 143t-109.5 51t-112.5 -63.5
t-43.5 -169.5q0 -217 150 -217q71 0 113.5 58.5t42.5 170.5v27z" />
    <glyph glyph-name="Emacron" unicode="&#x112;" horiz-adv-x="1130" 
d="M141 0v1434h893v-338h-461v-209h433v-338h-433v-211h494v-338h-926zM261 1568v223h655v-223h-655z" />
    <glyph glyph-name="emacron" unicode="&#x113;" horiz-adv-x="1147" 
d="M469 391q11 -66 76 -103.5t172 -37.5q149 0 282 57v-270q-155 -62 -376 -62q-268 0 -417 137t-149 377q0 165 65.5 291t194 197.5t283.5 71.5q159 0 272 -62t171.5 -174t58.5 -262v-160h-633zM725 614q0 177 -127 177q-53 0 -89 -48.5t-42 -128.5h258zM263 1187v223h655
v-223h-655z" />
    <glyph glyph-name="Ebreve" unicode="&#x114;" horiz-adv-x="1130" 
d="M141 0v1434h893v-338h-461v-209h433v-338h-433v-211h494v-338h-926zM973 1913q-16 -167 -117 -256.5t-276 -89.5q-112 0 -199 44t-136 124t-50 178h240q10 -55 49 -87t102 -32q62 0 100 32t48 87h239z" />
    <glyph glyph-name="ebreve" unicode="&#x115;" horiz-adv-x="1147" 
d="M469 391q11 -66 76 -103.5t172 -37.5q149 0 282 57v-270q-155 -62 -376 -62q-268 0 -417 137t-149 377q0 165 65.5 291t194 197.5t283.5 71.5q159 0 272 -62t171.5 -174t58.5 -262v-160h-633zM725 614q0 177 -127 177q-53 0 -89 -48.5t-42 -128.5h258zM981 1532
q-16 -167 -117 -256.5t-276 -89.5q-112 0 -199 44t-136 124t-50 178h240q10 -55 49 -87t102 -32q62 0 100 32t48 87h239z" />
    <glyph glyph-name="Edotaccent" unicode="&#x116;" horiz-adv-x="1130" 
d="M141 0v1434h893v-338h-461v-209h433v-338h-433v-211h494v-338h-926zM778 1731q0 -73 -53 -118.5t-139 -45.5q-84 0 -138.5 47t-54.5 117q0 72 53.5 115.5t139.5 43.5q87 0 139.5 -43.5t52.5 -115.5z" />
    <glyph glyph-name="edotaccent" unicode="&#x117;" horiz-adv-x="1147" 
d="M469 391q11 -66 76 -103.5t172 -37.5q149 0 282 57v-270q-155 -62 -376 -62q-268 0 -417 137t-149 377q0 165 65.5 291t194 197.5t283.5 71.5q159 0 272 -62t171.5 -174t58.5 -262v-160h-633zM725 614q0 177 -127 177q-53 0 -89 -48.5t-42 -128.5h258zM784 1350
q0 -73 -53 -118.5t-139 -45.5q-84 0 -138.5 47t-54.5 117q0 72 53.5 115.5t139.5 43.5q87 0 139.5 -43.5t52.5 -115.5z" />
    <glyph glyph-name="Eogonek" unicode="&#x118;" horiz-adv-x="1130" 
d="M909 0q-24 -38 -42 -85.5t-18 -85.5q0 -37 20 -56t53 -19q56 0 118 28v-154q-34 -19 -86.5 -31.5t-93.5 -12.5q-116 0 -174 54.5t-58 148.5q0 58 27.5 113.5t76.5 99.5h-591v1434h893v-338h-461v-209h433v-338h-433v-211h494v-338h-158z" />
    <glyph glyph-name="eogonek" unicode="&#x119;" horiz-adv-x="1147" 
d="M469 391q11 -66 76 -103.5t172 -37.5q149 0 282 57v-270q-127 -52 -306 -60q-46 -80 -46 -148q0 -37 20 -56t53 -19q56 0 118 28v-154q-34 -19 -86.5 -31.5t-93.5 -12.5q-116 0 -174 54.5t-58 148.5q0 105 85 195q-220 29 -337 163t-117 344q0 165 65.5 291t194 197.5
t283.5 71.5q159 0 272 -62t171.5 -174t58.5 -262v-160h-633zM725 614q0 177 -127 177q-53 0 -89 -48.5t-42 -128.5h258z" />
    <glyph glyph-name="Ecaron" unicode="&#x11a;" horiz-adv-x="1130" 
d="M141 0v1434h893v-338h-461v-209h433v-338h-433v-211h494v-338h-926zM994 1888l-256 -321h-317l-256 321h262l147 -153l148 153h272z" />
    <glyph glyph-name="ecaron" unicode="&#x11b;" horiz-adv-x="1147" 
d="M469 391q11 -66 76 -103.5t172 -37.5q149 0 282 57v-270q-155 -62 -376 -62q-268 0 -417 137t-149 377q0 165 65.5 291t194 197.5t283.5 71.5q159 0 272 -62t171.5 -174t58.5 -262v-160h-633zM725 614q0 177 -127 177q-53 0 -89 -48.5t-42 -128.5h258zM1000 1507
l-256 -321h-317l-256 321h262l147 -153l148 153h272z" />
    <glyph glyph-name="Gcircumflex" unicode="&#x11c;" horiz-adv-x="1489" 
d="M1397 94q-81 -46 -242 -82.5t-307 -36.5q-377 0 -582 188.5t-205 528.5q0 228 103.5 405t291.5 269t443 92q187 0 399 -53v-377q-99 45 -190 62.5t-199 17.5q-178 0 -283.5 -107t-105.5 -294q0 -179 88.5 -280t247.5 -101q74 0 109 8v205h-275v327h707v-772zM940 1567
l-148 153l-147 -153h-262l256 321h317l256 -321h-272z" />
    <glyph glyph-name="gcircumflex" unicode="&#x11d;" horiz-adv-x="1315" 
d="M1212 143q0 -295 -185.5 -459.5t-541.5 -164.5q-96 0 -186 15t-129 34v334q64 -40 150 -64t153 -24q143 0 229 69t86 183v63h-4q-46 -70 -126.5 -112t-172.5 -42q-198 0 -313 137.5t-115 379.5q0 166 60 293t167 195.5t236 68.5q177 0 264 -131h4v106h424v-881zM795 541
q0 90 -40.5 143t-107.5 53q-72 0 -115 -64t-43 -171q0 -99 36 -157t114 -58q73 0 114.5 59.5t41.5 159.5v35zM798 1186l-148 153l-147 -153h-262l256 321h317l256 -321h-272z" />
    <glyph glyph-name="Gbreve" unicode="&#x11e;" horiz-adv-x="1489" 
d="M1397 94q-81 -46 -242 -82.5t-307 -36.5q-377 0 -582 188.5t-205 528.5q0 228 103.5 405t291.5 269t443 92q187 0 399 -53v-377q-99 45 -190 62.5t-199 17.5q-178 0 -283.5 -107t-105.5 -294q0 -179 88.5 -280t247.5 -101q74 0 109 8v205h-275v327h707v-772zM1169 1913
q-16 -167 -117 -256.5t-276 -89.5q-112 0 -199 44t-136 124t-50 178h240q10 -55 49 -87t102 -32q62 0 100 32t48 87h239z" />
    <glyph glyph-name="gbreve" unicode="&#x11f;" horiz-adv-x="1315" 
d="M1212 143q0 -295 -185.5 -459.5t-541.5 -164.5q-96 0 -186 15t-129 34v334q64 -40 150 -64t153 -24q143 0 229 69t86 183v63h-4q-46 -70 -126.5 -112t-172.5 -42q-198 0 -313 137.5t-115 379.5q0 166 60 293t167 195.5t236 68.5q177 0 264 -131h4v106h424v-881zM795 541
q0 90 -40.5 143t-107.5 53q-72 0 -115 -64t-43 -171q0 -99 36 -157t114 -58q73 0 114.5 59.5t41.5 159.5v35zM1043 1532q-16 -167 -117 -256.5t-276 -89.5q-112 0 -199 44t-136 124t-50 178h240q10 -55 49 -87t102 -32q62 0 100 32t48 87h239z" />
    <glyph glyph-name="Gdotaccent" unicode="&#x120;" horiz-adv-x="1489" 
d="M1397 94q-81 -46 -242 -82.5t-307 -36.5q-377 0 -582 188.5t-205 528.5q0 228 103.5 405t291.5 269t443 92q187 0 399 -53v-377q-99 45 -190 62.5t-199 17.5q-178 0 -283.5 -107t-105.5 -294q0 -179 88.5 -280t247.5 -101q74 0 109 8v205h-275v327h707v-772zM1005 1731
q0 -73 -53 -118.5t-139 -45.5q-84 0 -138.5 47t-54.5 117q0 72 53.5 115.5t139.5 43.5q87 0 139.5 -43.5t52.5 -115.5z" />
    <glyph glyph-name="gdotaccent" unicode="&#x121;" horiz-adv-x="1315" 
d="M1212 143q0 -295 -185.5 -459.5t-541.5 -164.5q-96 0 -186 15t-129 34v334q64 -40 150 -64t153 -24q143 0 229 69t86 183v63h-4q-46 -70 -126.5 -112t-172.5 -42q-198 0 -313 137.5t-115 379.5q0 166 60 293t167 195.5t236 68.5q177 0 264 -131h4v106h424v-881zM795 541
q0 90 -40.5 143t-107.5 53q-72 0 -115 -64t-43 -171q0 -99 36 -157t114 -58q73 0 114.5 59.5t41.5 159.5v35zM861 1350q0 -73 -53 -118.5t-139 -45.5q-84 0 -138.5 47t-54.5 117q0 72 53.5 115.5t139.5 43.5q87 0 139.5 -43.5t52.5 -115.5z" />
    <glyph glyph-name="uni0122" unicode="&#x122;" horiz-adv-x="1489" 
d="M1397 94q-81 -46 -242 -82.5t-307 -36.5q-377 0 -582 188.5t-205 528.5q0 228 103.5 405t291.5 269t443 92q187 0 399 -53v-377q-99 45 -190 62.5t-199 17.5q-178 0 -283.5 -107t-105.5 -294q0 -179 88.5 -280t247.5 -101q74 0 109 8v205h-275v327h707v-772zM1031 -107
l-201 -364h-220l63 364h358z" />
    <glyph glyph-name="uni0123" unicode="&#x123;" horiz-adv-x="1315" 
d="M651 1541h219l-84 -322h-358zM1212 143q0 -295 -185.5 -459.5t-541.5 -164.5q-96 0 -186 15t-129 34v334q64 -40 150 -64t153 -24q143 0 229 69t86 183v63h-4q-46 -70 -126.5 -112t-172.5 -42q-198 0 -313 137.5t-115 379.5q0 166 60 293t167 195.5t236 68.5
q177 0 264 -131h4v106h424v-881zM795 541q0 90 -40.5 143t-107.5 53q-72 0 -115 -64t-43 -171q0 -99 36 -157t114 -58q73 0 114.5 59.5t41.5 159.5v35z" />
    <glyph glyph-name="Hcircumflex" unicode="&#x124;" horiz-adv-x="1645" 
d="M1069 0v535h-496v-535h-432v1434h432v-531h496v531h432v-1434h-432zM969 1567l-148 153l-147 -153h-262l256 321h317l256 -321h-272z" />
    <glyph glyph-name="hcircumflex" unicode="&#x125;" horiz-adv-x="1264" 
d="M762 0v584q0 153 -117 153q-57 0 -87 -43.5t-30 -111.5v-582h-426v1516h426v-631h4q55 79 133.5 121.5t168.5 42.5q166 0 253 -106.5t87 -313.5v-629h-412zM783 1567l-148 153l-147 -153h-262l256 321h317l256 -321h-272z" />
    <glyph glyph-name="Hbar" unicode="&#x126;" horiz-adv-x="1645" 
d="M1069 0v535h-496v-535h-432v1058h-110v195h110v181h432v-181h496v181h432v-181h113v-195h-113v-1058h-432zM1069 903v155h-496v-155h496z" />
    <glyph glyph-name="hbar" unicode="&#x127;" horiz-adv-x="1264" 
d="M528 1155v-300h4q55 79 133.5 121.5t168.5 42.5q166 0 253 -106.5t87 -313.5v-599h-412v554q0 153 -117 153q-57 0 -87 -43.5t-30 -111.5v-552h-426v1155h-102v195h102v166h426v-166h276v-195h-276z" />
    <glyph glyph-name="Itilde" unicode="&#x128;" horiz-adv-x="772" 
d="M141 0v1434h432v-1434h-432zM781 1903q0 -165 -60 -252.5t-173 -87.5q-88 0 -170 49q-34 20 -62.5 38t-60.5 18q-38 0 -60 -31t-22 -88h-174q0 170 61.5 255t167.5 85q102 0 189 -58q29 -18 55 -32.5t57 -14.5q34 0 55 29.5t21 89.5h176z" />
    <glyph glyph-name="itilde" unicode="&#x129;" horiz-adv-x="631" 
d="M102 0v1024h426v-1024h-426zM708 1540q0 -165 -60 -252.5t-173 -87.5q-88 0 -170 49q-34 20 -62.5 38t-60.5 18q-38 0 -60 -31t-22 -88h-174q0 170 61.5 255t167.5 85q102 0 189 -58q29 -18 55 -32.5t57 -14.5q34 0 55 29.5t21 89.5h176z" />
    <glyph glyph-name="Imacron" unicode="&#x12a;" horiz-adv-x="714" 
d="M141 0v1434h432v-1434h-432zM31 1568v223h655v-223h-655z" />
    <glyph glyph-name="imacron" unicode="&#x12b;" horiz-adv-x="631" 
d="M102 0v1024h426v-1024h-426zM-13 1187v223h655v-223h-655z" />
    <glyph glyph-name="Ibreve" unicode="&#x12c;" horiz-adv-x="772" 
d="M141 0v1434h432v-1434h-432zM777 1913q-16 -167 -117 -256.5t-276 -89.5q-112 0 -199 44t-136 124t-50 178h240q10 -55 49 -87t102 -32q62 0 100 32t48 87h239z" />
    <glyph glyph-name="ibreve" unicode="&#x12d;" horiz-adv-x="631" 
d="M102 0v1024h426v-1024h-426zM705 1532q-16 -167 -117 -256.5t-276 -89.5q-112 0 -199 44t-136 124t-50 178h240q10 -55 49 -87t102 -32q62 0 100 32t48 87h239z" />
    <glyph glyph-name="Iogonek" unicode="&#x12e;" horiz-adv-x="714" 
d="M141 0v1434h432v-1434h-432zM425 0q-24 -38 -42 -85.5t-18 -85.5q0 -37 20 -56t53 -19q56 0 118 28v-154q-34 -19 -86.5 -31.5t-93.5 -12.5q-116 0 -174 54.5t-58 148.5q0 58 27.5 113.5t76.5 99.5h177z" />
    <glyph glyph-name="iogonek" unicode="&#x12f;" horiz-adv-x="631" 
d="M390 0q-24 -38 -42 -85.5t-18 -85.5q0 -37 20 -56t53 -19q56 0 118 28v-154q-34 -19 -86.5 -31.5t-93.5 -12.5q-116 0 -174 54.5t-58 148.5q0 58 27.5 113.5t76.5 99.5h-111v1024h426v-1024h-138zM553 1300q0 -90 -65.5 -146t-172.5 -56q-104 0 -170.5 58t-66.5 144
q0 88 64.5 142.5t172.5 54.5q107 0 172.5 -54.5t65.5 -142.5z" />
    <glyph glyph-name="Idotaccent" unicode="&#x130;" horiz-adv-x="714" 
d="M141 0v1434h432v-1434h-432zM559 1731q0 -73 -53 -118.5t-139 -45.5q-84 0 -138.5 47t-54.5 117q0 72 53.5 115.5t139.5 43.5q87 0 139.5 -43.5t52.5 -115.5z" />
    <glyph glyph-name="dotlessi" unicode="&#x131;" horiz-adv-x="631" 
d="M102 0v1024h426v-1024h-426z" />
    <glyph glyph-name="IJ" unicode="&#x132;" horiz-adv-x="1823" 
d="M141 0v1434h432v-1434h-432zM1698 612q0 -637 -619 -637q-50 0 -120 12t-142 36v399q51 -35 113.5 -56.5t103.5 -21.5q116 0 173.5 71.5t57.5 221.5v797h433v-822z" />
    <glyph glyph-name="ij" unicode="&#x133;" horiz-adv-x="1262" 
d="M553 1300q0 -90 -65.5 -146t-172.5 -56q-104 0 -170.5 58t-66.5 144q0 88 64.5 142.5t172.5 54.5q107 0 172.5 -54.5t65.5 -142.5zM102 0v1024h426v-1024h-426zM1184 1300q0 -90 -65.5 -146t-172.5 -56q-104 0 -170.5 58t-66.5 144q0 88 64.5 142.5t172.5 54.5
q107 0 172.5 -54.5t65.5 -142.5zM1159 -10q0 -135 -53 -246.5t-156 -168t-245 -56.5q-78 0 -170 30v312q56 -31 102 -31q53 0 74.5 35.5t21.5 107.5v1051h426v-1034z" />
    <glyph glyph-name="Jcircumflex" unicode="&#x134;" horiz-adv-x="1047" 
d="M922 612q0 -637 -619 -637q-50 0 -120 12t-142 36v399q51 -35 113.5 -56.5t103.5 -21.5q116 0 173.5 71.5t57.5 221.5v797h433v-822zM845 1567l-148 153l-147 -153h-262l256 321h317l256 -321h-272z" />
    <glyph glyph-name="jcircumflex" unicode="&#x135;" horiz-adv-x="631" 
d="M528 -10q0 -135 -53 -246.5t-156 -168t-245 -56.5q-78 0 -170 30v312q56 -31 102 -31q53 0 74.5 35.5t21.5 107.5v1051h426v-1034zM459 1186l-148 153l-147 -153h-262l256 321h317l256 -321h-272z" />
    <glyph glyph-name="uni0136" unicode="&#x136;" horiz-adv-x="1413" 
d="M934 0l-318 606q-32 72 -38 99h-5v-705h-432v1434h432v-682h5q19 54 43 100l286 582h512l-407 -684l446 -750h-524zM945 -107l-201 -364h-220l63 364h358z" />
    <glyph glyph-name="uni0137" unicode="&#x137;" horiz-adv-x="1214" 
d="M760 0l-228 526h-4v-526h-426v1516h426v-973h4l207 481h480l-277 -469l293 -555h-475zM828 -107l-201 -364h-220l63 364h358z" />
    <glyph glyph-name="kgreenlandic" unicode="&#x138;" horiz-adv-x="1214" 
d="M760 0l-228 526h-4v-526h-426v1023h426v-480h4l207 481h480l-277 -469l293 -555h-475z" />
    <glyph glyph-name="Lacute" unicode="&#x139;" horiz-adv-x="1108" 
d="M141 0v1434h432v-1096h494v-338h-926zM590 1567h-301l299 321h358z" />
    <glyph glyph-name="lacute" unicode="&#x13a;" horiz-adv-x="631" 
d="M102 0v1516h426v-1516h-426zM388 1649h-301l299 321h358z" />
    <glyph glyph-name="uni013B" unicode="&#x13b;" horiz-adv-x="1108" 
d="M679 0v-66q195 -14 195 -178q0 -111 -90.5 -170t-257.5 -59q-53 0 -115 6v172q37 -8 82 -8q57 0 86 16.5t29 42.5q0 31 -23.5 45.5t-79.5 14.5h-18l-21 -2v186h-325v1434h432v-1096h494v-338h-388z" />
    <glyph glyph-name="uni013C" unicode="&#x13c;" horiz-adv-x="631" 
d="M379 0v-66q195 -14 195 -178q0 -111 -90.5 -170t-257.5 -59q-53 0 -115 6v172q37 -8 82 -8q57 0 86 16.5t29 42.5q0 31 -23.5 45.5t-79.5 14.5h-18l-21 -2v186h-64v1516h426v-1516h-149z" />
    <glyph glyph-name="Lcaron" unicode="&#x13d;" horiz-adv-x="1108" 
d="M141 0v1434h432v-1096h494v-338h-926zM1118 1433l-201 -364h-220l63 364h358z" />
    <glyph glyph-name="lcaron" unicode="&#x13e;" horiz-adv-x="978" 
d="M102 0v1516h426v-1516h-426zM1018 1516l-201 -364h-220l63 364h358z" />
    <glyph glyph-name="Ldot" unicode="&#x13f;" horiz-adv-x="1108" 
d="M141 0v1434h432v-1096h494v-338h-926zM1063 765q0 -73 -53 -118.5t-139 -45.5q-84 0 -138.5 47t-54.5 117q0 72 53.5 115.5t139.5 43.5q87 0 139.5 -43.5t52.5 -115.5z" />
    <glyph glyph-name="ldot" unicode="&#x140;" horiz-adv-x="1024" 
d="M102 0v1516h426v-1516h-426zM1016 704q0 -73 -53 -118.5t-139 -45.5q-84 0 -138.5 47t-54.5 117q0 72 53.5 115.5t139.5 43.5q87 0 139.5 -43.5t52.5 -115.5z" />
    <glyph glyph-name="Lslash" unicode="&#x141;" horiz-adv-x="1108" 
d="M141 0v406l-153 -66v338l153 65v691h432v-506l261 110v-338l-261 -110v-252h494v-338h-926z" />
    <glyph glyph-name="lslash" unicode="&#x142;" horiz-adv-x="692" 
d="M559 651v-651h-426v399l-98 -57v322l98 57v795h426v-543l103 59v-321z" />
    <glyph glyph-name="Nacute" unicode="&#x143;" horiz-adv-x="1663" 
d="M1143 0l-506 692q-60 82 -98 148h-4q6 -106 6 -238v-602h-400v1434h408l485 -658q9 -13 22 -31t26 -37t24.5 -37t17.5 -32h4q-6 44 -6 152v643h400v-1434h-379zM884 1567h-301l299 321h358z" />
    <glyph glyph-name="nacute" unicode="&#x144;" horiz-adv-x="1282" 
d="M766 0v559q0 95 -28.5 136.5t-92.5 41.5q-55 0 -86 -43t-31 -110v-584h-426v1024h426v-160h4q51 88 137 136.5t187 48.5q336 0 336 -424v-625h-426zM714 1186h-301l299 321h358z" />
    <glyph glyph-name="uni0145" unicode="&#x145;" horiz-adv-x="1663" 
d="M1143 0l-506 692q-60 82 -98 148h-4q6 -106 6 -238v-602h-400v1434h408l485 -658q9 -13 22 -31t26 -37t24.5 -37t17.5 -32h4q-6 44 -6 152v643h400v-1434h-379zM1040 -107l-201 -364h-220l63 364h358z" />
    <glyph glyph-name="uni0146" unicode="&#x146;" horiz-adv-x="1282" 
d="M766 0v559q0 95 -28.5 136.5t-92.5 41.5q-55 0 -86 -43t-31 -110v-584h-426v1024h426v-160h4q51 88 137 136.5t187 48.5q336 0 336 -424v-625h-426zM835 -107l-201 -364h-220l63 364h358z" />
    <glyph glyph-name="Ncaron" unicode="&#x147;" horiz-adv-x="1663" 
d="M1143 0l-506 692q-60 82 -98 148h-4q6 -106 6 -238v-602h-400v1434h408l485 -658q9 -13 22 -31t26 -37t24.5 -37t17.5 -32h4q-6 44 -6 152v643h400v-1434h-379zM1246 1888l-256 -321h-317l-256 321h262l147 -153l148 153h272z" />
    <glyph glyph-name="ncaron" unicode="&#x148;" horiz-adv-x="1282" 
d="M766 0v559q0 95 -28.5 136.5t-92.5 41.5q-55 0 -86 -43t-31 -110v-584h-426v1024h426v-160h4q51 88 137 136.5t187 48.5q336 0 336 -424v-625h-426zM1059 1507l-256 -321h-317l-256 321h262l147 -153l148 153h272z" />
    <glyph glyph-name="napostrophe" unicode="&#x149;" horiz-adv-x="1610" 
d="M223 1024h-248l123 444h366zM1094 0v559q0 95 -28.5 136.5t-92.5 41.5q-55 0 -86 -43t-31 -110v-584h-426v1024h426v-160h4q51 88 137 136.5t187 48.5q336 0 336 -424v-625h-426z" />
    <glyph glyph-name="Eng" unicode="&#x14a;" horiz-adv-x="1663" 
d="M1522 108q0 -300 -135.5 -444.5t-403.5 -144.5q-46 0 -115 13t-117 32v378q33 -19 91 -36.5t96 -17.5q77 0 117 41.5t55 115.5l-473 647q-60 82 -98 148h-4q6 -106 6 -238v-602h-400v1434h408l485 -658q9 -13 22 -31t26 -37t24.5 -37t17.5 -32h4q-6 44 -6 152v643h400
v-1326z" />
    <glyph glyph-name="eng" unicode="&#x14b;" horiz-adv-x="1282" 
d="M766 559q0 95 -28.5 136.5t-92.5 41.5q-55 0 -86 -43t-31 -110v-584h-426v1024h426v-160h4q51 88 137 136.5t187 48.5q336 0 336 -424v-625q-5 -135 -60.5 -240t-156 -158t-237.5 -53q-78 0 -170 30v312q56 -31 102 -31q53 0 74.5 35.5t21.5 107.5v556z" />
    <glyph glyph-name="Omacron" unicode="&#x14c;" horiz-adv-x="1567" 
d="M1505 721q0 -216 -93 -386.5t-260 -265t-374 -94.5q-202 0 -367.5 91.5t-257.5 257t-92 374.5q0 219 93 394t261 270.5t382 95.5q206 0 368.5 -91.5t251 -261t88.5 -384.5zM1047 709q0 177 -68 279t-186 102q-129 0 -201 -98t-72 -277q0 -175 71.5 -273t194.5 -98
q75 0 135 44t93 126t33 195zM454 1568v223h655v-223h-655z" />
    <glyph glyph-name="omacron" unicode="&#x14d;" horiz-adv-x="1298" 
d="M1241 530q0 -259 -156.5 -407t-437.5 -148q-279 0 -434.5 144.5t-155.5 398.5q0 163 73 283t208 184t311 64q182 0 315.5 -67t205 -186t71.5 -266zM809 528q0 209 -160 209t-160 -219q0 -231 162 -231q158 0 158 241zM320 1187v223h655v-223h-655z" />
    <glyph glyph-name="Obreve" unicode="&#x14e;" horiz-adv-x="1567" 
d="M1505 721q0 -216 -93 -386.5t-260 -265t-374 -94.5q-202 0 -367.5 91.5t-257.5 257t-92 374.5q0 219 93 394t261 270.5t382 95.5q206 0 368.5 -91.5t251 -261t88.5 -384.5zM1047 709q0 177 -68 279t-186 102q-129 0 -201 -98t-72 -277q0 -175 71.5 -273t194.5 -98
q75 0 135 44t93 126t33 195zM1172 1913q-16 -167 -117 -256.5t-276 -89.5q-112 0 -199 44t-136 124t-50 178h240q10 -55 49 -87t102 -32q62 0 100 32t48 87h239z" />
    <glyph glyph-name="obreve" unicode="&#x14f;" horiz-adv-x="1298" 
d="M1241 530q0 -259 -156.5 -407t-437.5 -148q-279 0 -434.5 144.5t-155.5 398.5q0 163 73 283t208 184t311 64q182 0 315.5 -67t205 -186t71.5 -266zM809 528q0 209 -160 209t-160 -219q0 -231 162 -231q158 0 158 241zM1037 1532q-16 -167 -117 -256.5t-276 -89.5
q-112 0 -199 44t-136 124t-50 178h240q10 -55 49 -87t102 -32q62 0 100 32t48 87h239z" />
    <glyph glyph-name="Ohungarumlaut" unicode="&#x150;" horiz-adv-x="1567" 
d="M1505 721q0 -216 -93 -386.5t-260 -265t-374 -94.5q-202 0 -367.5 91.5t-257.5 257t-92 374.5q0 219 93 394t261 270.5t382 95.5q206 0 368.5 -91.5t251 -261t88.5 -384.5zM1047 709q0 177 -68 279t-186 102q-129 0 -201 -98t-72 -277q0 -175 71.5 -273t194.5 -98
q75 0 135 44t93 126t33 195zM1168 1567h-303l217 323h346zM682 1567h-303l217 323h346z" />
    <glyph glyph-name="ohungarumlaut" unicode="&#x151;" horiz-adv-x="1298" 
d="M1241 530q0 -259 -156.5 -407t-437.5 -148q-279 0 -434.5 144.5t-155.5 398.5q0 163 73 283t208 184t311 64q182 0 315.5 -67t205 -186t71.5 -266zM809 528q0 209 -160 209t-160 -219q0 -231 162 -231q158 0 158 241zM1034 1186h-303l217 323h346zM548 1186h-303l217 323
h346z" />
    <glyph glyph-name="OE" unicode="&#x152;" horiz-adv-x="1954" 
d="M979 0q-84 -25 -221 -25q-202 0 -361 93t-247.5 261t-88.5 369q0 222 89.5 396t253 269t372.5 95q62 0 126 -7t97 -17h859v-338h-461v-209h432v-338h-432v-211h493v-338h-911zM946 1022q-65 68 -153 68q-130 0 -201.5 -99.5t-71.5 -285.5q0 -170 70.5 -265.5t195.5 -95.5
q94 0 160 66v612z" />
    <glyph glyph-name="oe" unicode="&#x153;" horiz-adv-x="1898" 
d="M1221 391q11 -67 75.5 -104t171.5 -37q73 0 150 16t133 41v-270q-70 -28 -163 -45t-173 -17q-235 0 -401 166h-4q-63 -74 -167.5 -119t-240.5 -45q-156 0 -280.5 65t-194.5 188t-70 290q0 160 68.5 280.5t192 185.5t278.5 65q117 0 220 -37t173 -107h4q64 70 161.5 106
t215.5 36q151 0 260 -63t166 -177t57 -258v-160h-632zM1477 614q0 177 -127 177q-54 0 -89.5 -49.5t-41.5 -127.5h258zM809 526q0 98 -41 155.5t-117 57.5q-162 0 -162 -219q0 -231 162 -231q158 0 158 237z" />
    <glyph glyph-name="Racute" unicode="&#x154;" horiz-adv-x="1397" 
d="M885 0l-107 309q-31 91 -80.5 143t-107.5 52h-17v-504h-432v1434h574q301 0 444.5 -98.5t143.5 -295.5q0 -148 -83.5 -248t-248.5 -145v-4q91 -28 151.5 -91t108.5 -187l141 -365h-487zM844 979q0 72 -44 114t-138 42h-89v-328h78q87 0 140 49t53 123zM751 1567h-301
l299 321h358z" />
    <glyph glyph-name="racute" unicode="&#x155;" horiz-adv-x="893" 
d="M872 659q-24 11 -65 20t-68 9q-211 0 -211 -244v-444h-426v1024h426v-180h4q39 97 111 147.5t168 50.5q35 0 61 -12v-371zM519 1186h-301l299 321h358z" />
    <glyph glyph-name="uni0156" unicode="&#x156;" horiz-adv-x="1397" 
d="M885 0l-107 309q-31 91 -80.5 143t-107.5 52h-17v-504h-432v1434h574q301 0 444.5 -98.5t143.5 -295.5q0 -148 -83.5 -248t-248.5 -145v-4q91 -28 151.5 -91t108.5 -187l141 -365h-487zM844 979q0 72 -44 114t-138 42h-89v-328h78q87 0 140 49t53 123zM916 -107
l-201 -364h-220l63 364h358z" />
    <glyph glyph-name="uni0157" unicode="&#x157;" horiz-adv-x="893" 
d="M872 659q-24 11 -65 20t-68 9q-211 0 -211 -244v-444h-426v1024h426v-180h4q39 97 111 147.5t168 50.5q35 0 61 -12v-371zM529 -107l-201 -364h-220l63 364h358z" />
    <glyph glyph-name="Rcaron" unicode="&#x158;" horiz-adv-x="1397" 
d="M885 0l-107 309q-31 91 -80.5 143t-107.5 52h-17v-504h-432v1434h574q301 0 444.5 -98.5t143.5 -295.5q0 -148 -83.5 -248t-248.5 -145v-4q91 -28 151.5 -91t108.5 -187l141 -365h-487zM844 979q0 72 -44 114t-138 42h-89v-328h78q87 0 140 49t53 123zM1085 1888
l-256 -321h-317l-256 321h262l147 -153l148 153h272z" />
    <glyph glyph-name="rcaron" unicode="&#x159;" horiz-adv-x="893" 
d="M872 659q-24 11 -65 20t-68 9q-211 0 -211 -244v-444h-426v1024h426v-180h4q39 97 111 147.5t168 50.5q35 0 61 -12v-371zM884 1507l-256 -321h-317l-256 321h262l147 -153l148 153h272z" />
    <glyph glyph-name="Sacute" unicode="&#x15a;" horiz-adv-x="1171" 
d="M1137 434q0 -143 -76.5 -249t-214.5 -158t-332 -52q-225 0 -412 76v393q90 -66 199 -106.5t203 -40.5q71 0 110 25.5t39 74.5q0 35 -19.5 61.5t-59 49.5t-146.5 63q-346 133 -346 430q0 208 158 332.5t424 124.5q75 0 138 -6t114.5 -15t144.5 -34v-365q-181 99 -356 99
q-72 0 -116 -27t-44 -74q0 -45 35.5 -74.5t148.5 -76.5q223 -90 315.5 -197t92.5 -254zM638 1567h-301l299 321h358z" />
    <glyph glyph-name="sacute" unicode="&#x15b;" horiz-adv-x="989" 
d="M934 340q0 -174 -132.5 -269.5t-369.5 -95.5q-69 0 -170.5 14t-165.5 34v299q189 -84 316 -84q125 0 125 65q0 27 -29 44.5t-152 58.5q-136 43 -198 114t-62 185q0 159 126.5 251.5t355.5 92.5q134 0 284 -39v-287q-63 27 -138 45t-126 18q-42 0 -67 -14t-25 -39
q0 -29 27 -47t108 -43q157 -46 225 -118t68 -185zM547 1186h-301l299 321h358z" />
    <glyph glyph-name="Scircumflex" unicode="&#x15c;" horiz-adv-x="1171" 
d="M1137 434q0 -143 -76.5 -249t-214.5 -158t-332 -52q-225 0 -412 76v393q90 -66 199 -106.5t203 -40.5q71 0 110 25.5t39 74.5q0 35 -19.5 61.5t-59 49.5t-146.5 63q-346 133 -346 430q0 208 158 332.5t424 124.5q75 0 138 -6t114.5 -15t144.5 -34v-365q-181 99 -356 99
q-72 0 -116 -27t-44 -74q0 -45 35.5 -74.5t148.5 -76.5q223 -90 315.5 -197t92.5 -254zM732 1567l-148 153l-147 -153h-262l256 321h317l256 -321h-272z" />
    <glyph glyph-name="scircumflex" unicode="&#x15d;" horiz-adv-x="989" 
d="M934 340q0 -174 -132.5 -269.5t-369.5 -95.5q-69 0 -170.5 14t-165.5 34v299q189 -84 316 -84q125 0 125 65q0 27 -29 44.5t-152 58.5q-136 43 -198 114t-62 185q0 159 126.5 251.5t355.5 92.5q134 0 284 -39v-287q-63 27 -138 45t-126 18q-42 0 -67 -14t-25 -39
q0 -29 27 -47t108 -43q157 -46 225 -118t68 -185zM639 1186l-148 153l-147 -153h-262l256 321h317l256 -321h-272z" />
    <glyph glyph-name="Scedilla" unicode="&#x15e;" horiz-adv-x="1171" 
d="M1137 434q0 -181 -120.5 -300t-349.5 -149v-51q195 -14 195 -178q0 -111 -90.5 -170t-257.5 -59q-53 0 -115 6v172q37 -8 82 -8q57 0 86 16.5t29 42.5q0 31 -23.5 45.5t-79.5 14.5h-18l-21 -2l1 163q-193 8 -353 74v393q90 -66 199 -106.5t203 -40.5q71 0 110 25.5
t39 74.5q0 35 -19.5 61.5t-59 49.5t-146.5 63q-346 133 -346 430q0 208 158 332.5t424 124.5q75 0 138 -6t114.5 -15t144.5 -34v-365q-181 99 -356 99q-72 0 -116 -27t-44 -74q0 -45 35.5 -74.5t148.5 -76.5q223 -90 315.5 -197t92.5 -254z" />
    <glyph glyph-name="scedilla" unicode="&#x15f;" horiz-adv-x="989" 
d="M934 340q0 -147 -94.5 -238.5t-268.5 -116.5v-51q195 -14 195 -178q0 -111 -90.5 -170t-257.5 -59q-53 0 -115 6v172q37 -8 82 -8q57 0 86 16.5t29 42.5q0 31 -23.5 45.5t-79.5 14.5h-18l-21 -2l1 164q-152 13 -263 45v299q189 -84 316 -84q125 0 125 65q0 27 -29 44.5
t-152 58.5q-136 43 -198 114t-62 185q0 159 126.5 251.5t355.5 92.5q134 0 284 -39v-287q-63 27 -138 45t-126 18q-42 0 -67 -14t-25 -39q0 -29 27 -47t108 -43q157 -46 225 -118t68 -185z" />
    <glyph glyph-name="Scaron" unicode="&#x160;" horiz-adv-x="1171" 
d="M1137 434q0 -143 -76.5 -249t-214.5 -158t-332 -52q-225 0 -412 76v393q90 -66 199 -106.5t203 -40.5q71 0 110 25.5t39 74.5q0 35 -19.5 61.5t-59 49.5t-146.5 63q-346 133 -346 430q0 208 158 332.5t424 124.5q75 0 138 -6t114.5 -15t144.5 -34v-365q-181 99 -356 99
q-72 0 -116 -27t-44 -74q0 -45 35.5 -74.5t148.5 -76.5q223 -90 315.5 -197t92.5 -254zM1011 1857l-256 -321h-317l-256 321h262l147 -153l148 153h272z" />
    <glyph glyph-name="scaron" unicode="&#x161;" horiz-adv-x="989" 
d="M934 340q0 -174 -132.5 -269.5t-369.5 -95.5q-69 0 -170.5 14t-165.5 34v299q189 -84 316 -84q125 0 125 65q0 27 -29 44.5t-152 58.5q-136 43 -198 114t-62 185q0 159 126.5 251.5t355.5 92.5q134 0 284 -39v-287q-63 27 -138 45t-126 18q-42 0 -67 -14t-25 -39
q0 -29 27 -47t108 -43q157 -46 225 -118t68 -185zM915 1507l-256 -321h-317l-256 321h262l147 -153l148 153h272z" />
    <glyph glyph-name="uni0162" unicode="&#x162;" horiz-adv-x="1303" 
d="M866 1096v-1096h-157v-66q195 -14 195 -178q0 -111 -90.5 -170t-257.5 -59q-53 0 -115 6v172q37 -8 82 -8q57 0 86 16.5t29 42.5q0 31 -23.5 45.5t-79.5 14.5h-18l-21 -2l1 186h-65v1096h-401v338h1241v-338h-406z" />
    <glyph glyph-name="uni0163" unicode="&#x163;" horiz-adv-x="854" 
d="M823 14q-29 -14 -95 -26.5t-158 -12.5v-41q195 -14 195 -178q0 -111 -90.5 -170t-257.5 -59q-53 0 -115 6v172q37 -8 82 -8q57 0 86 16.5t29 42.5q0 31 -23.5 45.5t-79.5 14.5h-18l-21 -2l1 208q-86 48 -127 134t-41 196v377h-161v295h161v201l420 116v-317h213v-295
h-213v-307q0 -135 107 -135q50 0 106 22v-295z" />
    <glyph glyph-name="Tcaron" unicode="&#x164;" horiz-adv-x="1303" 
d="M866 1096v-1096h-434v1096h-401v338h1241v-338h-406zM1070 1888l-256 -321h-317l-256 321h262l147 -153l148 153h272z" />
    <glyph glyph-name="tcaron" unicode="&#x165;" horiz-adv-x="1111" 
d="M823 14q-29 -14 -95 -26.5t-159 -12.5q-178 0 -278.5 98t-100.5 279v377h-161v295h161v201l420 116v-317h213v-295h-213v-307q0 -135 107 -135q50 0 106 22v-295zM1151 1516l-201 -364h-220l63 364h358z" />
    <glyph glyph-name="Tbar" unicode="&#x166;" horiz-adv-x="1303" 
d="M866 1096v-300h286v-194h-286v-602h-434v602h-291v194h291v300h-401v338h1241v-338h-406z" />
    <glyph glyph-name="tbar" unicode="&#x167;" horiz-adv-x="854" 
d="M823 14q-29 -14 -95 -26.5t-159 -12.5q-178 0 -278.5 98t-100.5 279v74h-129v195h129v108h-161v295h161v201l420 116v-317h213v-295h-213v-108h167v-195h-167v-4q0 -135 107 -135q50 0 106 22v-295z" />
    <glyph glyph-name="Utilde" unicode="&#x168;" horiz-adv-x="1516" 
d="M1391 655q0 -345 -157.5 -512.5t-485.5 -167.5q-306 0 -464.5 167.5t-158.5 504.5v787h434v-803q0 -138 51.5 -212.5t147.5 -74.5q97 0 147.5 70t50.5 207v813h435v-779zM1149 1872q0 -165 -60 -252.5t-173 -87.5q-88 0 -170 49q-34 20 -62.5 38t-60.5 18q-38 0 -60 -31
t-22 -88h-174q0 170 61.5 255t167.5 85q102 0 189 -58q29 -18 55 -32.5t57 -14.5q34 0 55 29.5t21 89.5h176z" />
    <glyph glyph-name="utilde" unicode="&#x169;" horiz-adv-x="1282" 
d="M754 0v158h-4q-53 -73 -95.5 -107t-96 -55t-124.5 -21q-168 0 -256 109t-88 322v618h426v-586q0 -151 113 -151q62 0 93.5 41t31.5 116v580h426v-1024h-426zM1032 1540q0 -165 -60 -252.5t-173 -87.5q-88 0 -170 49q-34 20 -62.5 38t-60.5 18q-38 0 -60 -31t-22 -88h-174
q0 170 61.5 255t167.5 85q102 0 189 -58q29 -18 55 -32.5t57 -14.5q34 0 55 29.5t21 89.5h176z" />
    <glyph glyph-name="Umacron" unicode="&#x16a;" horiz-adv-x="1516" 
d="M1391 655q0 -345 -157.5 -512.5t-485.5 -167.5q-306 0 -464.5 167.5t-158.5 504.5v787h434v-803q0 -138 51.5 -212.5t147.5 -74.5q97 0 147.5 70t50.5 207v813h435v-779zM429 1568v223h655v-223h-655z" />
    <glyph glyph-name="umacron" unicode="&#x16b;" horiz-adv-x="1282" 
d="M754 0v158h-4q-53 -73 -95.5 -107t-96 -55t-124.5 -21q-168 0 -256 109t-88 322v618h426v-586q0 -151 113 -151q62 0 93.5 41t31.5 116v580h426v-1024h-426zM312 1187v223h655v-223h-655z" />
    <glyph glyph-name="Ubreve" unicode="&#x16c;" horiz-adv-x="1516" 
d="M1391 655q0 -345 -157.5 -512.5t-485.5 -167.5q-306 0 -464.5 167.5t-158.5 504.5v787h434v-803q0 -138 51.5 -212.5t147.5 -74.5q97 0 147.5 70t50.5 207v813h435v-779zM1146 1913q-16 -167 -117 -256.5t-276 -89.5q-112 0 -199 44t-136 124t-50 178h240q10 -55 49 -87
t102 -32q62 0 100 32t48 87h239z" />
    <glyph glyph-name="ubreve" unicode="&#x16d;" horiz-adv-x="1282" 
d="M754 0v158h-4q-53 -73 -95.5 -107t-96 -55t-124.5 -21q-168 0 -256 109t-88 322v618h426v-586q0 -151 113 -151q62 0 93.5 41t31.5 116v580h426v-1024h-426zM1029 1532q-16 -167 -117 -256.5t-276 -89.5q-112 0 -199 44t-136 124t-50 178h240q10 -55 49 -87t102 -32
q62 0 100 32t48 87h239z" />
    <glyph glyph-name="Uring" unicode="&#x16e;" horiz-adv-x="1516" 
d="M1391 655q0 -345 -157.5 -512.5t-485.5 -167.5q-306 0 -464.5 167.5t-158.5 504.5v787h434v-803q0 -138 51.5 -212.5t147.5 -74.5q97 0 147.5 70t50.5 207v813h435v-779zM1021 1802q0 -106 -75.5 -170.5t-195.5 -64.5q-115 0 -189.5 65.5t-74.5 169.5q0 72 34.5 124.5
t95.5 81t134 28.5q124 0 197.5 -64.5t73.5 -169.5zM847 1802q0 32 -23.5 56t-73.5 24q-45 0 -67.5 -23t-22.5 -57t25.5 -57t64.5 -23q42 0 69.5 22.5t27.5 57.5z" />
    <glyph glyph-name="uring" unicode="&#x16f;" horiz-adv-x="1282" 
d="M754 0v158h-4q-53 -73 -95.5 -107t-96 -55t-124.5 -21q-168 0 -256 109t-88 322v618h426v-586q0 -151 113 -151q62 0 93.5 41t31.5 116v580h426v-1024h-426zM904 1421q0 -106 -75.5 -170.5t-195.5 -64.5q-115 0 -189.5 65.5t-74.5 169.5q0 72 34.5 124.5t95.5 81
t134 28.5q124 0 197.5 -64.5t73.5 -169.5zM730 1421q0 32 -23.5 56t-73.5 24q-45 0 -67.5 -23t-22.5 -57t25.5 -57t64.5 -23q42 0 69.5 22.5t27.5 57.5z" />
    <glyph glyph-name="Uhungarumlaut" unicode="&#x170;" horiz-adv-x="1516" 
d="M1391 655q0 -345 -157.5 -512.5t-485.5 -167.5q-306 0 -464.5 167.5t-158.5 504.5v787h434v-803q0 -138 51.5 -212.5t147.5 -74.5q97 0 147.5 70t50.5 207v813h435v-779zM1143 1567h-303l217 323h346zM657 1567h-303l217 323h346z" />
    <glyph glyph-name="uhungarumlaut" unicode="&#x171;" horiz-adv-x="1282" 
d="M754 0v158h-4q-53 -73 -95.5 -107t-96 -55t-124.5 -21q-168 0 -256 109t-88 322v618h426v-586q0 -151 113 -151q62 0 93.5 41t31.5 116v580h426v-1024h-426zM1016 1186h-303l217 323h346zM530 1186h-303l217 323h346z" />
    <glyph glyph-name="Uogonek" unicode="&#x172;" horiz-adv-x="1516" 
d="M1391 655q0 -321 -135.5 -487.5t-412.5 -188.5q-47 -82 -47 -150q0 -37 20 -56t53 -19q56 0 118 28v-154q-34 -19 -86.5 -31.5t-93.5 -12.5q-116 0 -174 54.5t-58 148.5q0 103 82 192q-262 23 -397 190t-135 478v787h434v-803q0 -138 51.5 -212.5t147.5 -74.5
q97 0 147.5 70t50.5 207v813h435v-779z" />
    <glyph glyph-name="uogonek" unicode="&#x173;" horiz-adv-x="1282" 
d="M754 0v158h-4q-53 -73 -95.5 -107t-96 -55t-124.5 -21q-168 0 -256 109t-88 322v618h426v-586q0 -151 113 -151q62 0 93.5 41t31.5 116v580h426v-1024h-426zM963 0q-24 -38 -42 -85.5t-18 -85.5q0 -37 20 -56t53 -19q56 0 118 28v-154q-34 -19 -86.5 -31.5t-93.5 -12.5
q-116 0 -174 54.5t-58 148.5q0 58 27.5 113.5t76.5 99.5h177z" />
    <glyph glyph-name="Wcircumflex" unicode="&#x174;" horiz-adv-x="2157" 
d="M1774 0h-459l-199 817q-9 35 -20 174h-4q-15 -123 -29 -174l-215 -817h-486l-342 1434h474l120 -844q3 -16 9 -93l6 -83h6q2 26 12 88.5t19 93.5l221 838h471l184 -850l13 -85l10 -83h4l3 35l13 139l125 844h426zM1225 1567l-148 153l-147 -153h-262l256 321h317
l256 -321h-272z" />
    <glyph glyph-name="wcircumflex" unicode="&#x175;" horiz-adv-x="1731" 
d="M1430 0h-443l-102 498q-19 90 -19 159h-6q-11 -106 -22 -153l-111 -504h-442l-271 1024h428l88 -596l15 -133h6q13 117 18 137l131 592h406l113 -592l9 -71l5 -64h6l3 29l91 698h383zM1012 1186l-148 153l-147 -153h-262l256 321h317l256 -321h-272z" />
    <glyph glyph-name="Ycircumflex" unicode="&#x176;" horiz-adv-x="1331" 
d="M874 498v-498h-432v492l-442 942h496l155 -451q16 -46 22.5 -80t14.5 -69h4q13 91 29 141l153 459h457zM812 1567l-148 153l-147 -153h-262l256 321h317l256 -321h-272z" />
    <glyph glyph-name="ycircumflex" unicode="&#x177;" horiz-adv-x="1176" 
d="M301 -481q-60 0 -129 10.5t-123 30.5v321q25 -19 74.5 -35t93.5 -16q119 0 158 94l33 80l-428 1020h471l124 -494q36 -138 39 -186h4q3 22 8.5 49t155.5 631h414l-377 -1053q-85 -242 -210.5 -347t-307.5 -105zM734 1186l-148 153l-147 -153h-262l256 321h317l256 -321
h-272z" />
    <glyph glyph-name="Ydieresis" unicode="&#x178;" horiz-adv-x="1331" 
d="M874 498v-498h-432v492l-442 942h496l155 -451q16 -46 22.5 -80t14.5 -69h4q13 91 29 141l153 459h457zM1107 1720q0 -73 -52 -118.5t-140 -45.5q-84 0 -138.5 46.5t-54.5 117.5t53 115t140 44t139.5 -44.5t52.5 -114.5zM606 1720q0 -71 -51.5 -117.5t-141.5 -46.5
q-85 0 -138.5 47.5t-53.5 116.5q0 71 53 115t139 44q87 0 140 -43.5t53 -115.5z" />
    <glyph glyph-name="Zacute" unicode="&#x179;" horiz-adv-x="1313" 
d="M616 338h648v-338h-1203v303l662 793h-621v338h1141v-301zM751 1567h-301l299 321h358z" />
    <glyph glyph-name="zacute" unicode="&#x17a;" horiz-adv-x="1042" 
d="M584 295h422v-295h-981v197l460 532h-417v295h929v-242zM594 1186h-301l299 321h358z" />
    <glyph glyph-name="Zdotaccent" unicode="&#x17b;" horiz-adv-x="1313" 
d="M616 338h648v-338h-1203v303l662 793h-621v338h1141v-301zM869 1731q0 -73 -53 -118.5t-139 -45.5q-84 0 -138.5 47t-54.5 117q0 72 53.5 115.5t139.5 43.5q87 0 139.5 -43.5t52.5 -115.5z" />
    <glyph glyph-name="zdotaccent" unicode="&#x17c;" horiz-adv-x="1042" 
d="M584 295h422v-295h-981v197l460 532h-417v295h929v-242zM727 1350q0 -73 -53 -118.5t-139 -45.5q-84 0 -138.5 47t-54.5 117q0 72 53.5 115.5t139.5 43.5q87 0 139.5 -43.5t52.5 -115.5z" />
    <glyph glyph-name="Zcaron" unicode="&#x17d;" horiz-adv-x="1313" 
d="M616 338h648v-338h-1203v303l662 793h-621v338h1141v-301zM1082 1854l-256 -321h-317l-256 321h262l147 -153l148 153h272z" />
    <glyph glyph-name="zcaron" unicode="&#x17e;" horiz-adv-x="1042" 
d="M584 295h422v-295h-981v197l460 532h-417v295h929v-242zM947 1507l-256 -321h-317l-256 321h262l147 -153l148 153h272z" />
    <glyph glyph-name="longs" unicode="&#x17f;" horiz-adv-x="782" 
d="M782 1206q-66 23 -123 23q-71 0 -105 -36.5t-34 -98.5v-1094h-426v1118q0 125 58 220.5t168.5 148.5t268.5 53q114 0 193 -22v-312z" />
    <glyph glyph-name="uni0180" unicode="&#x180;" horiz-adv-x="1315" 
d="M1257 530q0 -165 -56 -291.5t-158 -195t-230 -68.5q-99 0 -169.5 36.5t-111.5 94.5h-4v-106h-426v1155h-102v195h102v166h426v-166h276v-195h-276v-291h4q51 75 135.5 117.5t188.5 42.5q194 0 297.5 -125.5t103.5 -368.5zM825 516q0 96 -39 146t-114 50q-64 0 -108 -51
t-44 -134v-59q0 -83 38.5 -132t105.5 -49q77 0 119 60t42 169z" />
    <glyph glyph-name="uni0181" unicode="&#x181;" horiz-adv-x="1786" 
d="M1737 440q0 -211 -148 -325.5t-423 -114.5h-654v1145h-33q-88 0 -139 -50t-51 -133q0 -41 17 -90h-304q-22 62 -22 138q0 195 135.5 309.5t363.5 114.5h642q571 0 571 -347q0 -75 -36 -137.5t-109.5 -109.5t-161.5 -64v-4q102 -12 183 -60.5t125 -121t44 -150.5z
M1278 442q0 62 -45 102t-119 40h-170v-293h144q88 0 139 40.5t51 110.5zM1233 1012q0 133 -209 133h-80v-271h125q72 0 118 38.5t46 99.5z" />
    <glyph glyph-name="uni0182" unicode="&#x182;" horiz-adv-x="1415" 
d="M1366 473q0 -227 -139 -350t-402 -123h-684v1434h1039v-338h-607v-222h304q159 0 268.5 -50t165 -140t55.5 -211zM907 442q0 65 -40 103.5t-111 38.5h-183v-293h164q81 0 125.5 38.5t44.5 112.5z" />
    <glyph glyph-name="uni0183" unicode="&#x183;" horiz-adv-x="1315" 
d="M1257 543q0 -168 -55.5 -297.5t-157.5 -200t-231 -70.5q-99 0 -169.5 36.5t-111.5 94.5h-4v-106h-426v1516h1010v-295h-584v-336h4q50 76 135.5 120t188.5 44q194 0 297.5 -129t103.5 -377zM825 530q0 103 -39.5 155t-113.5 52q-65 0 -108.5 -54.5t-43.5 -141.5v-62
q0 -88 39 -140t105 -52q77 0 119 63.5t42 179.5z" />
    <glyph glyph-name="uni0184" unicode="&#x184;" horiz-adv-x="1343" 
d="M1313 510q0 -242 -152 -376t-432 -134h-588v1001l-205 181v30l607 300h30v-560h181q194 0 317.5 -47.5t182.5 -141.5t59 -253zM856 477q0 84 -46 125t-142 41h-95v-334h84q103 0 151 42t48 126z" />
    <glyph glyph-name="uni0185" unicode="&#x185;" horiz-adv-x="1354" 
d="M1296 543q0 -168 -55.5 -297.5t-157.5 -200t-231 -70.5q-186 0 -281 131h-4v-106h-426v1058l-205 181v30l601 299h30v-683h4q50 76 135.5 120t188.5 44q194 0 297.5 -129t103.5 -377zM864 530q0 103 -39.5 155t-113.5 52q-65 0 -108.5 -54.5t-43.5 -141.5v-62
q0 -88 39 -140t105 -52q77 0 119 63.5t42 179.5z" />
    <glyph glyph-name="uni0186" unicode="&#x186;" horiz-adv-x="1290" 
d="M82 1394q178 64 411 64q229 0 395 -87.5t253.5 -249t87.5 -372.5q0 -227 -98 -404t-277 -273.5t-412 -96.5q-186 0 -360 45v399q60 -36 143 -56t168 -20q176 0 277.5 101t101.5 274q0 172 -101.5 271.5t-271.5 99.5q-157 0 -317 -80v385z" />
    <glyph glyph-name="uni0187" unicode="&#x187;" horiz-adv-x="1290" 
d="M1208 39q-178 -64 -411 -64q-229 0 -395 87.5t-253.5 249t-87.5 372.5q0 227 98 404t277 273.5t412 96.5q52 0 92 -6q46 103 132.5 159t210.5 56q82 0 148 -19v-304q-48 14 -90 14q-77 0 -111.5 -53.5t-34.5 -141.5q0 -70 15 -145l-10 -7q-94 47 -159 63t-144 16
q-176 0 -277.5 -101t-101.5 -274q0 -172 101.5 -271.5t271.5 -99.5q157 0 317 80v-385z" />
    <glyph glyph-name="uni0188" unicode="&#x188;" horiz-adv-x="1014" 
d="M946 29q-30 -18 -111 -36t-221 -18q-162 0 -289.5 65.5t-197.5 183.5t-70 265q0 176 74.5 301.5t212.5 192t320 66.5l48 -4q30 100 101 151.5t176 51.5q79 0 127 -15v-270q-38 11 -72 11q-103 0 -103 -153q0 -59 16 -142l-9 -6q-81 42 -120.5 53t-90.5 11
q-116 0 -182 -58.5t-66 -168.5q0 -106 63 -164.5t175 -58.5q119 0 219 57v-315z" />
    <glyph glyph-name="uni0189" unicode="&#x189;" horiz-adv-x="1554" 
d="M1493 735q0 -218 -91.5 -385.5t-261.5 -258.5t-392 -91h-607v549h-166v338h166v547h594q758 0 758 -699zM1034 731q0 105 -42.5 189t-121.5 130t-186 46h-111v-209h240v-338h-240v-211h121q155 0 247.5 106.5t92.5 286.5z" />
    <glyph glyph-name="uni018A" unicode="&#x18a;" horiz-adv-x="1925" 
d="M1864 735q0 -218 -91.5 -385.5t-261.5 -258.5t-392 -91h-607v1096h-30q-93 0 -143 -36t-50 -102q0 -37 17 -86h-304q-22 65 -22 148q0 189 135 301.5t364 112.5h627q758 0 758 -699zM1405 731q0 163 -94.5 264t-255.5 101h-111v-758h121q155 0 247.5 106.5t92.5 286.5z
" />
    <glyph glyph-name="uni018B" unicode="&#x18b;" horiz-adv-x="1415" 
d="M49 453q0 125 57 220t166 148t266 53h304v222h-607v338h1039v-1434h-684q-267 0 -404 115t-137 338zM508 442q0 -75 44.5 -113t125.5 -38h164v293h-183q-72 0 -111.5 -38t-39.5 -104z" />
    <glyph glyph-name="uni018C" unicode="&#x18c;" horiz-adv-x="1315" 
d="M786 0v119h-4q-51 -67 -133 -105.5t-162 -38.5q-131 0 -231 64.5t-149.5 180.5t-49.5 274q0 163 59 289t166 196t240 70q63 0 116.5 -18t93 -48.5t50.5 -60.5h4v299h-584v295h1010v-1516h-426zM795 543q0 92 -40.5 143t-109.5 51t-112.5 -63.5t-43.5 -169.5
q0 -217 150 -217q71 0 113.5 58.5t42.5 170.5v27z" />
    <glyph glyph-name="uni018D" unicode="&#x18d;" horiz-adv-x="1298" 
d="M57 527q0 159 70 276.5t205.5 181.5t324.5 64q178 0 309.5 -64.5t203 -177t71.5 -244.5q0 -148 -81 -267t-240 -196q177 -109 177 -269q0 -146 -124.5 -229t-340.5 -83q-236 0 -428 74v356q193 -119 371 -119q42 0 66 14.5t24 42.5q0 24 -34.5 48t-136.5 70
q-230 101 -333.5 224t-103.5 298zM489 530q0 -76 48.5 -142.5t129.5 -98.5q59 20 100.5 89t41.5 146q0 99 -42.5 156t-117.5 57q-76 0 -118 -53.5t-42 -153.5z" />
    <glyph glyph-name="uni018E" unicode="&#x18e;" horiz-adv-x="1133" 
d="M63 0v338h494v211h-433v338h433v209h-461v338h893v-1434h-926z" />
    <glyph glyph-name="uni018F" unicode="&#x18f;" horiz-adv-x="1568" 
d="M62 850h994q-30 125 -128.5 187.5t-246.5 62.5q-275 0 -505 -152v381q111 69 246.5 99t313.5 30q232 0 407 -86.5t269 -250.5t94 -386t-92.5 -395.5t-262.5 -269t-388 -95.5q-205 0 -366 92t-248 259t-87 381v143zM1060 594h-546q14 -132 83.5 -204t175.5 -72
q115 0 190.5 75.5t96.5 200.5z" />
    <glyph glyph-name="uni0190" unicode="&#x190;" horiz-adv-x="1176" 
d="M54 399q0 132 95.5 226.5t254.5 117.5v5q-146 28 -222.5 111.5t-76.5 212.5q0 179 137 282.5t385 103.5q228 0 436 -80v-321q-70 36 -149.5 63t-178.5 27q-98 0 -147 -29.5t-49 -93.5q0 -71 59 -103t172 -32h197v-314h-217q-124 0 -191 -38.5t-67 -108.5
q0 -68 58.5 -104.5t174.5 -36.5q103 0 207.5 28.5t188.5 79.5v-342q-81 -37 -202 -57.5t-251 -20.5q-299 0 -456.5 109.5t-157.5 314.5z" />
    <glyph glyph-name="uni0191" unicode="&#x191;" horiz-adv-x="1108" 
d="M573 1096v-258h426v-338h-426v-513q0 -226 -113.5 -347t-329.5 -121q-127 0 -221 27v352q44 -24 97 -24q76 0 105.5 59t29.5 207v1294h899v-338h-467z" />
    <glyph glyph-name="florin" unicode="&#x192;" horiz-adv-x="1178" 
d="M1044 1174q-64 30 -133 30q-124 0 -147 -137l-23 -137h158v-215h-192l-91 -594q-30 -196 -140 -311t-277 -115q-50 0 -121 20v242q39 -20 92 -20q123 0 154 202l88 576h-105v215h142l22 149q25 167 135 267t279 100q82 0 159 -23v-249z" />
    <glyph glyph-name="uni0193" unicode="&#x193;" horiz-adv-x="1489" 
d="M1397 94q-81 -46 -242 -82.5t-307 -36.5q-377 0 -582 188.5t-205 528.5q0 226 99.5 400.5t286.5 270t438 95.5q74 0 158 -7q97 216 343 216q82 0 148 -19v-304q-48 14 -90 14q-146 0 -146 -177q0 -69 16 -149l-10 -7q-107 45 -198.5 64t-196.5 19q-178 0 -283.5 -107
t-105.5 -294q0 -179 88.5 -280t247.5 -101q74 0 109 8v205h-275v327h707v-772z" />
    <glyph glyph-name="uni0194" unicode="&#x194;" horiz-adv-x="1438" 
d="M717 652q26 120 57 219l184 563h467l-467 -1151q82 -118 127.5 -221.5t45.5 -208.5q0 -157 -111.5 -245.5t-302.5 -88.5q-192 0 -303 89t-111 245q0 83 35 176.5t140 254.5l-469 1150h467l184 -563q31 -99 57 -219zM788 -117q0 60 -71 174q-71 -114 -71 -174
q0 -100 71 -100t71 100z" />
    <glyph glyph-name="uni0195" unicode="&#x195;" horiz-adv-x="1906" 
d="M528 0h-426v1516h426v-631h4q52 76 130 120t172 44q165 0 252.5 -104.5t87.5 -315.5v-150q0 -162 138 -162q52 0 81.5 43t29.5 121q0 248 -129 543h437q118 -269 118 -533q0 -249 -146 -383t-418 -134q-266 0 -394.5 124t-128.5 356v130q0 153 -117 153q-57 0 -87 -43
t-30 -112v-582z" />
    <glyph glyph-name="uni0196" unicode="&#x196;" horiz-adv-x="818" 
d="M125 1434h432v-838q0 -152 29 -209t104 -57q53 0 97 24v-352q-94 -27 -221 -27q-441 0 -441 468v991z" />
    <glyph glyph-name="uni0197" unicode="&#x197;" horiz-adv-x="772" 
d="M31 871h141v225h-141v338h710v-338h-142v-225h143v-295h-143v-238h142v-338h-710v338h141v238h-141v295z" />
    <glyph glyph-name="uni0198" unicode="&#x198;" horiz-adv-x="1413" 
d="M1458 0h-524l-320 611q-4 6 -17.5 41t-18.5 53h-5v-705h-432v1434h432v-682h5l18 43l154 296q36 68 73.5 134t86 117.5t111 83.5t147.5 32q124 0 215 -29v-311q-37 11 -70 11q-36 0 -57 -11t-45 -38.5t-50 -73.5l-149 -256z" />
    <glyph glyph-name="uni0199" unicode="&#x199;" horiz-adv-x="1214" 
d="M760 0l-228 526h-4v-526h-426v1165q0 180 100.5 278.5t278.5 98.5q150 0 228 -39v-310q-52 25 -93 25q-88 0 -88 -135v-540h4l207 481h480l-277 -469l293 -555h-475z" />
    <glyph glyph-name="uni019A" unicode="&#x19a;" horiz-adv-x="692" 
d="M133 0v615h-133v278h133v623h426v-623h133v-278h-133v-615h-426z" />
    <glyph glyph-name="uni019B" unicode="&#x19b;" horiz-adv-x="1217" 
d="M756 0l-140 612l-141 -612h-448l424 971l-170 -82l-86 172l175 84q-43 26 -100 26q-79 0 -147 -51v344q109 41 246 41q239 0 372 -183l177 85l83 -169l-171 -83l10 -28l356 -1127h-440z" />
    <glyph glyph-name="uni019C" unicode="&#x19c;" horiz-adv-x="2112" 
d="M1972 0h-409v188h-4q-51 -96 -142.5 -154.5t-197.5 -58.5q-118 0 -193.5 46t-131.5 154q-63 -105 -146.5 -152.5t-203.5 -47.5q-214 0 -311.5 119t-97.5 357v983h432v-922q0 -168 123 -168q64 0 106 49.5t42 128.5v912h432v-930q0 -160 125 -160q66 0 105.5 49.5
t39.5 134.5v906h432v-1434z" />
    <glyph glyph-name="uni019D" unicode="&#x19d;" horiz-adv-x="1663" 
d="M1143 0l-506 692q-66 92 -98 148h-4q6 -108 6 -238v-602q0 -231 -110 -356t-319 -125q-109 0 -203 27v352q44 -24 97 -24q76 0 105.5 59t29.5 207v1294h408l507 -688q53 -72 68 -107h4q-6 44 -6 152v643h400v-1434h-379z" />
    <glyph glyph-name="uni019E" unicode="&#x19e;" horiz-adv-x="1282" 
d="M766 -471v1030q0 95 -28.5 136.5t-92.5 41.5q-55 0 -86 -43t-31 -110v-584h-426v1024h426v-160h4q51 88 137 136.5t187 48.5q336 0 336 -424v-1096h-426z" />
    <glyph glyph-name="uni019F" unicode="&#x19f;" horiz-adv-x="1567" 
d="M1505 721q0 -216 -93 -386.5t-260 -265t-374 -94.5q-202 0 -367.5 91.5t-257.5 257t-92 374.5q0 219 93 394t261 270.5t382 95.5q206 0 368.5 -91.5t251 -261t88.5 -384.5zM793 1090q-98 0 -165 -58.5t-92 -165.5h494l-2 6q-26 103 -87 160.5t-148 57.5zM786 344
q89 0 154 59.5t91 164.5h-496q27 -107 91.5 -165.5t159.5 -58.5z" />
    <glyph glyph-name="Ohorn" unicode="&#x1a0;" horiz-adv-x="1618" 
d="M1505 721q0 -216 -93 -386.5t-260 -265t-374 -94.5q-202 0 -367.5 91.5t-257.5 257t-92 374.5q0 219 93 394t261 270.5t382 95.5q83 0 163.5 -17.5t180.5 -61.5q47 -20 93 -20q65 0 97 36.5t32 99.5q0 49 -16 104h258q23 -71 23 -148q0 -115 -67 -185t-196 -78
q140 -192 140 -467zM1047 709q0 177 -68 279t-186 102q-129 0 -201 -98t-72 -277q0 -175 71.5 -273t194.5 -98q75 0 135 44t93 126t33 195z" />
    <glyph glyph-name="ohorn" unicode="&#x1a1;" horiz-adv-x="1298" 
d="M1241 530q0 -259 -156.5 -407t-437.5 -148q-279 0 -434.5 144.5t-155.5 398.5q0 163 73 283t208 184t311 64q61 0 129 -7t116 -7q71 0 105 37t34 100q0 49 -16 104h258q23 -71 23 -148q0 -99 -50.5 -165.5t-147.5 -88.5q141 -135 141 -344zM809 528q0 209 -160 209
t-160 -219q0 -231 162 -231q158 0 158 241z" />
    <glyph glyph-name="uni01A2" unicode="&#x1a2;" horiz-adv-x="2218" 
d="M2074 0h-432v1028q-66 -12 -132 -12q-64 0 -138 10v-932q-240 -119 -586 -119q-216 0 -381 90t-254.5 255.5t-89.5 377.5q0 220 93.5 394.5t262.5 270t380 95.5q79 0 195.5 -12t204.5 -27q231 -39 375 -39q271 0 502 78v-1458zM940 374v699q-70 17 -149 17
q-127 0 -199 -100.5t-72 -278.5q0 -169 71 -268t195 -99q100 0 154 30z" />
    <glyph glyph-name="uni01A3" unicode="&#x1a3;" horiz-adv-x="1921" 
d="M1819 0h-425v678q-47 -7 -102 -7q-59 0 -136 11v-610q-232 -97 -516 -97q-272 0 -427.5 146t-155.5 397q0 243 159.5 387t426.5 144q134 0 361 -35q193 -29 329 -29q263 0 486 64v-1049zM731 298v429q-34 10 -82 10q-160 0 -160 -219q0 -231 162 -231q51 0 80 11z" />
    <glyph glyph-name="uni01A4" unicode="&#x1a4;" horiz-adv-x="1714" 
d="M1684 961q0 -226 -165.5 -363t-442.5 -137h-132v-461h-432v1096h-30q-93 0 -143 -36t-50 -102q0 -37 17 -86h-304q-22 65 -22 148q0 189 135 301.5t364 112.5h621q303 0 443.5 -115t140.5 -358zM1227 946q0 88 -51 133t-150 45h-82v-354h97q186 0 186 176z" />
    <glyph glyph-name="uni01A5" unicode="&#x1a5;" horiz-adv-x="1315" 
d="M1257 543q0 -168 -57 -297t-161 -200t-234 -71q-180 0 -273 131h-4v-577h-426v1636q0 180 100.5 278.5t278.5 98.5q150 0 228 -39v-310q-52 25 -93 25q-88 0 -88 -135v-198h4q51 77 132 120.5t184 43.5q198 0 303.5 -132t105.5 -374zM825 530q0 97 -37.5 152t-115.5 55
q-68 0 -110 -58t-42 -159v-20q0 -97 36 -155t108 -58q77 0 119 63.5t42 179.5z" />
    <glyph glyph-name="uni01A6" unicode="&#x1a6;" horiz-adv-x="1397" 
d="M885 -195l-107 309q-30 90 -80 142.5t-108 52.5h-17v-309h-432v1434h432v-195h142q301 0 444.5 -98.5t143.5 -295.5q0 -148 -83.5 -248t-248.5 -145v-4q91 -28 151.5 -91t108.5 -187l141 -365h-487zM844 784q0 72 -44 114t-138 42h-89v-328h78q87 0 140 49t53 123z" />
    <glyph glyph-name="uni01A7" unicode="&#x1a7;" horiz-adv-x="1171" 
d="M58 434q0 147 92.5 254t315.5 197q112 46 148 76t36 75q0 47 -44 74t-116 27q-175 0 -356 -99v365q103 28 158 36.5t116.5 13.5t122.5 5q267 0 424.5 -124.5t157.5 -332.5q0 -297 -346 -430q-107 -41 -146 -63.5t-59 -48.5t-20 -62q0 -48 39 -74t110 -26q94 0 203.5 40.5
t198.5 106.5v-393q-187 -76 -412 -76q-195 0 -332.5 52.5t-214 158.5t-76.5 248z" />
    <glyph glyph-name="uni01A8" unicode="&#x1a8;" horiz-adv-x="989" 
d="M75 340q0 113 68 184.5t225 118.5q82 25 108.5 43.5t26.5 46.5q0 25 -25 39t-67 14q-54 0 -128 -18.5t-136 -44.5v287q150 39 284 39q230 0 356 -92.5t126 -251.5q0 -113 -61.5 -184.5t-198.5 -114.5q-123 -41 -152 -58.5t-29 -44.5q0 -65 125 -65q127 0 316 84v-299
q-67 -20 -166 -34t-170 -14q-238 0 -370 95.5t-132 269.5z" />
    <glyph glyph-name="uni01A9" unicode="&#x1a9;" horiz-adv-x="1260" 
d="M29 0v240l487 477l-465 465v252h1118v-338h-510l351 -359l-383 -399h598v-338h-1196z" />
    <glyph glyph-name="uni01AA" unicode="&#x1aa;" horiz-adv-x="1146" 
d="M539 -104v963q-85 -35 -175 -35q-105 0 -188.5 42.5t-129.5 122t-46 186.5q0 179 122 286t326 107q259 0 388 -134t129 -394v-1062q0 -135 88 -135q41 0 93 25v-310q-78 -39 -228 -39q-178 0 -278.5 98t-100.5 279zM537 1119v15q0 164 -125 164q-49 0 -75.5 -29
t-26.5 -74q0 -46 29.5 -76t78.5 -30q61 0 119 30z" />
    <glyph glyph-name="uni01AB" unicode="&#x1ab;" horiz-adv-x="854" 
d="M823 63q0 -485 -410 -485q-89 0 -172 31v248q65 -37 117 -37q67 0 104 40.5t40 118.5q-147 17 -229.5 114t-82.5 259v377h-161v295h161v201l420 116v-317h213v-295h-213v-307q0 -135 107 -135q50 0 106 22v-246z" />
    <glyph glyph-name="uni01AC" unicode="&#x1ac;" horiz-adv-x="1423" 
d="M986 1096v-1096h-434v1096h-41q-86 0 -134 -35t-48 -103q0 -37 17 -86h-304q-22 65 -22 148q0 189 135 301.5t364 112.5h873v-338h-406z" />
    <glyph glyph-name="uni01AD" unicode="&#x1ad;" horiz-adv-x="854" 
d="M823 14q-29 -14 -94.5 -26.5t-159.5 -12.5q-178 0 -278.5 98t-100.5 279v377h-161v295h161v141q0 180 97 278.5t277 98.5q150 0 228 -39v-310q-52 25 -93 25q-88 0 -88 -135v-59h212v-295h-213v-307q0 -135 107 -135q50 0 106 22v-295z" />
    <glyph glyph-name="uni01AE" unicode="&#x1ae;" horiz-adv-x="1303" 
d="M866 1096v-956q0 -152 29 -209t104 -57q53 0 97 24v-352q-94 -27 -221 -27q-443 0 -443 468v1109h-401v338h1241v-338h-406z" />
    <glyph glyph-name="Uhorn" unicode="&#x1af;" horiz-adv-x="1689" 
d="M1391 655q0 -345 -157.5 -512.5t-485.5 -167.5q-306 0 -464.5 167.5t-158.5 504.5v787h434v-803q0 -138 51.5 -212.5t147.5 -74.5q97 0 147.5 70t50.5 207v813h321q157 0 157 148q0 49 -16 104h258q23 -71 23 -148q0 -127 -81 -198t-227 -77v-608z" />
    <glyph glyph-name="uhorn" unicode="&#x1b0;" horiz-adv-x="1458" 
d="M754 0v158h-4q-53 -73 -95.5 -107t-96 -55t-124.5 -21q-168 0 -256 109t-88 322v618h426v-586q0 -151 113 -151q125 0 125 157v580h280q78 0 118.5 38.5t40.5 109.5q0 49 -16 104h258q23 -71 23 -148q0 -114 -69 -187t-209 -86v-855h-426z" />
    <glyph glyph-name="uni01B1" unicode="&#x1b1;" horiz-adv-x="1587" 
d="M730 1434v-338q-113 -113 -157 -217t-44 -233q0 -132 72 -217t182 -85q77 0 139 38t98 110.5t36 173.5q0 79 -21.5 148.5t-58.5 132.5t-115 149v338h657v-338h-336q166 -89 249 -223.5t83 -304.5t-93.5 -306t-260.5 -211t-367 -75q-210 0 -371.5 73.5t-256.5 211.5
t-95 299q0 184 89 315.5t262 220.5h-349v338h658z" />
    <glyph glyph-name="uni01B2" unicode="&#x1b2;" horiz-adv-x="1582" 
d="M125 1434h434v-816q0 -138 52.5 -206t147.5 -68q146 0 228 121.5t82 333.5q0 299 -175 299q-86 0 -172 -36l-1 358q122 38 246 38q261 0 407 -170.5t146 -478.5q0 -244 -94.5 -435.5t-268.5 -295t-400 -103.5q-311 0 -471.5 165t-160.5 489v805z" />
    <glyph glyph-name="uni01B3" unicode="&#x1b3;" horiz-adv-x="1357" 
d="M496 1434l158 -460q9 -24 27 -104h4q13 68 32 110l81 177q77 169 162 235t235 66q81 0 162 -27v-313q-38 11 -70 11q-44 0 -79.5 -36.5t-85.5 -134.5l-248 -475v-483h-432v492l-442 942h496z" />
    <glyph glyph-name="uni01B4" unicode="&#x1b4;" horiz-adv-x="1253" 
d="M1253 711q-46 14 -83 14q-45 0 -78.5 -41t-68.5 -144l-204 -569q-91 -244 -211.5 -348t-306.5 -104q-73 0 -143.5 12t-108.5 29v321q78 -51 168 -51q120 0 158 94l33 80l-428 1020h471l133 -530q18 -67 24 -119h3q7 70 24 118l65 197q48 144 97.5 217t117.5 107.5
t170 34.5q91 0 168 -29v-309z" />
    <glyph glyph-name="uni01B5" unicode="&#x1b5;" horiz-adv-x="1313" 
d="M606 338h658v-338h-1203v303l235 278h-173v279h410l200 236h-631v338h1141v-301l-219 -273h173v-279h-397z" />
    <glyph glyph-name="uni01B6" unicode="&#x1b6;" horiz-adv-x="1042" 
d="M574 295h432v-295h-981v197l180 204h-103v223h300l93 105h-427v295h929v-242l-138 -158h107v-223h-300z" />
    <glyph glyph-name="uni01B7" unicode="&#x1b7;" horiz-adv-x="1397" 
d="M61 -372v409q218 -150 492 -150q156 0 246 72t90 196q0 127 -95 190t-292 63h-145v260l378 428h-643v338h1175v-285l-375 -430q230 -63 343 -198t113 -348q0 -317 -205 -485.5t-590 -168.5q-131 0 -262 28t-230 81z" />
    <glyph glyph-name="uni01B8" unicode="&#x1b8;" horiz-adv-x="1397" 
d="M1336 -372q-97 -51 -241.5 -80t-284.5 -29q-370 0 -565.5 156t-195.5 461q0 421 456 583l-375 430v285h1175v-338h-643l378 -428v-260h-145q-387 0 -387 -258q0 -121 88 -192t248 -71q274 0 492 150v-409z" />
    <glyph glyph-name="uni01B9" unicode="&#x1b9;" horiz-adv-x="1160" 
d="M1058 -420q-167 -61 -385 -61q-295 0 -459.5 132.5t-164.5 367.5q0 157 96 279t255 172l-274 312v242h919v-295h-417l274 -305l1 -172h-157q-126 0 -195.5 -58t-69.5 -155q0 -209 258 -209q80 0 154.5 19t164.5 61v-330z" />
    <glyph glyph-name="uni01BA" unicode="&#x1ba;" horiz-adv-x="1071" 
d="M910 -130v-296q-179 -55 -396 -55q-218 0 -343.5 87.5t-125.5 248.5q0 144 79 224.5t270 138.5q115 36 140.5 49t37 27t11.5 31q0 39 -42.5 52t-136.5 13h-115l-1 156l210 183h-415v295h919v-242l-228 -203q115 -24 177.5 -91.5t62.5 -168.5q0 -103 -44 -171t-145.5 -121
t-272.5 -97q-45 -12 -71 -25t-26 -45q0 -30 41 -46t117 -16q155 0 297 72z" />
    <glyph glyph-name="uni01BB" unicode="&#x1bb;" horiz-adv-x="1145" 
d="M61 0v315l220 225h-136v279h396q26 35 40 68.5t14 85.5q0 73 -45.5 114t-120.5 41q-163 0 -305 -127v349q206 106 419 106q226 0 350 -113t124 -311q0 -111 -56 -213h92v-279h-327l-194 -192v-6h532v-342h-1003z" />
    <glyph glyph-name="uni01BC" unicode="&#x1bc;" horiz-adv-x="1118" 
d="M57 1434h969v-332h-471l-36 -201q78 6 102 6q210 0 329 -113.5t119 -308.5q0 -147 -69.5 -263.5t-200.5 -181.5t-309 -65q-263 0 -433 60v332q192 -80 367 -80q111 0 167 40.5t56 112.5q0 158 -262 158q-74 0 -149 -9t-113 -16l95 529h-161v332z" />
    <glyph glyph-name="uni01BD" unicode="&#x1bd;" horiz-adv-x="1055" 
d="M78 29v264q144 -57 302 -57q84 0 125.5 20.5t41.5 67.5q0 49 -50 66t-151 17q-74 0 -170 -14l44 336h-126v295h858v-295h-373l-11 -92l78 4q162 0 252.5 -75.5t90.5 -211.5q0 -184 -134.5 -281.5t-400.5 -97.5q-245 0 -376 54z" />
    <glyph glyph-name="uni01BE" unicode="&#x1be;" horiz-adv-x="989" 
d="M75 1024h188v201l420 116v-317h213v-295h-187q12 -14 30 -28q87 -68 121.5 -111t53 -95.5t18.5 -116.5q0 -197 -126.5 -300t-363.5 -103q-118 0 -215.5 25.5t-158.5 62.5v393q172 -126 328 -126q116 0 116 71q0 21 -16 42.5t-79 68.5q-81 61 -110.5 107.5t-39.5 109.5
h-192v295z" />
    <glyph glyph-name="uni01BF" unicode="&#x1bf;" horiz-adv-x="1315" 
d="M528 -67v-404h-426v1495h421v-139h5q122 164 343 164q176 0 281 -113.5t105 -302.5q0 -508 -729 -700zM528 662v-397q297 110 297 326q0 66 -37 106t-100 40q-87 0 -160 -75z" />
    <glyph glyph-name="uni01C0" unicode="&#x1c0;" horiz-adv-x="815" 
d="M244 -481v2048h327v-2048h-327z" />
    <glyph glyph-name="uni01C1" unicode="&#x1c1;" horiz-adv-x="1349" 
d="M244 -481v2048h327v-2048h-327zM778 -481v2048h327v-2048h-327z" />
    <glyph glyph-name="uni01C2" unicode="&#x1c2;" horiz-adv-x="1024" 
d="M349 -481v691h-349v287h349v207h-349v287h349v576h327v-576h348v-287h-348v-207h348v-287h-348v-691h-327z" />
    <glyph glyph-name="uni01C3" unicode="&#x1c3;" horiz-adv-x="750" 
d="M543 483h-342l-54 951h449zM612 178q0 -89 -64.5 -146t-172.5 -57q-105 0 -171.5 58t-66.5 145q0 88 64.5 142.5t173.5 54.5q106 0 171.5 -54.5t65.5 -142.5z" />
    <glyph glyph-name="uni01C4" unicode="&#x1c4;" horiz-adv-x="2867" 
d="M1493 735q0 -218 -91.5 -385.5t-261.5 -258.5t-392 -91h-607v1434h594q758 0 758 -699zM1034 731q0 105 -42.5 189t-121.5 130t-186 46h-111v-758h121q155 0 247.5 106.5t92.5 286.5zM2170 338h648v-338h-1203v303l662 793h-621v338h1141v-301zM2636 1854l-256 -321h-317
l-256 321h262l147 -153l148 153h272z" />
    <glyph glyph-name="uni01C5" unicode="&#x1c5;" horiz-adv-x="2596" 
d="M1493 735q0 -218 -91.5 -385.5t-261.5 -258.5t-392 -91h-607v1434h594q758 0 758 -699zM1034 731q0 105 -42.5 189t-121.5 130t-186 46h-111v-758h121q155 0 247.5 106.5t92.5 286.5zM2138 295h422v-295h-981v197l460 532h-417v295h929v-242zM2501 1507l-256 -321h-317
l-256 321h262l147 -153l148 153h272z" />
    <glyph glyph-name="uni01C6" unicode="&#x1c6;" horiz-adv-x="2357" 
d="M786 0v119h-4q-51 -67 -133 -105.5t-162 -38.5q-131 0 -231 64.5t-149.5 180.5t-49.5 274q0 163 59 289t166 196t240 70q63 0 116.5 -18t93 -48.5t50.5 -60.5h4v594h426v-1516h-426zM795 543q0 92 -40.5 143t-109.5 51t-112.5 -63.5t-43.5 -169.5q0 -217 150 -217
q71 0 113.5 58.5t42.5 170.5v27zM1899 295h422v-295h-981v197l460 532h-417v295h929v-242zM2262 1507l-256 -321h-317l-256 321h262l147 -153l148 153h272z" />
    <glyph glyph-name="uni01C7" unicode="&#x1c7;" horiz-adv-x="2155" 
d="M141 0v1434h432v-1096h494v-338h-926zM2030 612q0 -637 -619 -637q-50 0 -120 12t-142 36v399q51 -35 113.5 -56.5t103.5 -21.5q116 0 173.5 71.5t57.5 221.5v797h433v-822z" />
    <glyph glyph-name="uni01C8" unicode="&#x1c8;" horiz-adv-x="1739" 
d="M141 0v1434h432v-1096h494v-338h-926zM1661 1300q0 -90 -65.5 -146t-172.5 -56q-104 0 -170.5 58t-66.5 144q0 88 64.5 142.5t172.5 54.5q107 0 172.5 -54.5t65.5 -142.5zM1636 -10q0 -135 -53 -246.5t-156 -168t-245 -56.5q-78 0 -170 30v312q56 -31 102 -31
q53 0 74.5 35.5t21.5 107.5v1051h426v-1034z" />
    <glyph glyph-name="uni01C9" unicode="&#x1c9;" horiz-adv-x="1262" 
d="M102 0v1516h426v-1516h-426zM1184 1300q0 -90 -65.5 -146t-172.5 -56q-104 0 -170.5 58t-66.5 144q0 88 64.5 142.5t172.5 54.5q107 0 172.5 -54.5t65.5 -142.5zM1159 -10q0 -135 -53 -246.5t-156 -168t-245 -56.5q-78 0 -170 30v312q56 -31 102 -31q53 0 74.5 35.5
t21.5 107.5v1051h426v-1034z" />
    <glyph glyph-name="uni01CA" unicode="&#x1ca;" horiz-adv-x="2710" 
d="M1143 0l-506 692q-60 82 -98 148h-4q6 -106 6 -238v-602h-400v1434h408l485 -658q9 -13 22 -31t26 -37t24.5 -37t17.5 -32h4q-6 44 -6 152v643h400v-1434h-379zM2585 612q0 -637 -619 -637q-50 0 -120 12t-142 36v399q51 -35 113.5 -56.5t103.5 -21.5q116 0 173.5 71.5
t57.5 221.5v797h433v-822z" />
    <glyph glyph-name="uni01CB" unicode="&#x1cb;" horiz-adv-x="2294" 
d="M1143 0l-506 692q-60 82 -98 148h-4q6 -106 6 -238v-602h-400v1434h408l485 -658q9 -13 22 -31t26 -37t24.5 -37t17.5 -32h4q-6 44 -6 152v643h400v-1434h-379zM2216 1300q0 -90 -65.5 -146t-172.5 -56q-104 0 -170.5 58t-66.5 144q0 88 64.5 142.5t172.5 54.5
q107 0 172.5 -54.5t65.5 -142.5zM2191 -10q0 -135 -53 -246.5t-156 -168t-245 -56.5q-78 0 -170 30v312q56 -31 102 -31q53 0 74.5 35.5t21.5 107.5v1051h426v-1034z" />
    <glyph glyph-name="uni01CC" unicode="&#x1cc;" horiz-adv-x="1837" 
d="M766 0v559q0 95 -28.5 136.5t-92.5 41.5q-55 0 -86 -43t-31 -110v-584h-426v1024h426v-160h4q51 88 137 136.5t187 48.5q336 0 336 -424v-625h-426zM1809 1300q0 -90 -65.5 -146t-172.5 -56q-104 0 -170.5 58t-66.5 144q0 88 64.5 142.5t172.5 54.5q107 0 172.5 -54.5
t65.5 -142.5zM1784 -10q0 -135 -53 -246.5t-156 -168t-245 -56.5q-78 0 -170 30v312q56 -31 102 -31q53 0 74.5 35.5t21.5 107.5v1051h426v-1034z" />
    <glyph glyph-name="uni01CD" unicode="&#x1cd;" horiz-adv-x="1536" 
d="M1040 0l-63 264h-428l-68 -264h-467l494 1434h536l465 -1434h-469zM768 1122h-10q-2 -24 -14 -79t-121 -472h274l-100 390q-21 86 -29 161zM1183 1879l-256 -321h-317l-256 321h262l147 -153l148 153h272z" />
    <glyph glyph-name="uni01CE" unicode="&#x1ce;" horiz-adv-x="1149" 
d="M670 0v156h-4q-102 -181 -312 -181q-145 0 -227 86t-82 230q0 302 371 350l254 33q0 50 -45 82t-121 32q-172 0 -363 -98v277q83 36 208 59t214 23q261 0 378.5 -111.5t117.5 -372.5v-565h-389zM418 348q0 -42 26.5 -69t75.5 -27q67 0 108.5 50t41.5 128v39l-144 -20
q-108 -18 -108 -101zM1002 1496l-256 -321h-317l-256 321h262l147 -153l148 153h272z" />
    <glyph glyph-name="uni01CF" unicode="&#x1cf;" horiz-adv-x="772" 
d="M141 0v1434h432v-1434h-432zM804 1879l-256 -321h-317l-256 321h262l147 -153l148 153h272z" />
    <glyph glyph-name="uni01D0" unicode="&#x1d0;" horiz-adv-x="631" 
d="M102 0v1024h426v-1024h-426zM731 1496l-256 -321h-317l-256 321h262l147 -153l148 153h272z" />
    <glyph glyph-name="uni01D1" unicode="&#x1d1;" horiz-adv-x="1567" 
d="M1505 721q0 -216 -93 -386.5t-260 -265t-374 -94.5q-202 0 -367.5 91.5t-257.5 257t-92 374.5q0 219 93 394t261 270.5t382 95.5q206 0 368.5 -91.5t251 -261t88.5 -384.5zM1047 709q0 177 -68 279t-186 102q-129 0 -201 -98t-72 -277q0 -175 71.5 -273t194.5 -98
q75 0 135 44t93 126t33 195zM1198 1879l-256 -321h-317l-256 321h262l147 -153l148 153h272z" />
    <glyph glyph-name="uni01D2" unicode="&#x1d2;" horiz-adv-x="1298" 
d="M1241 530q0 -259 -156.5 -407t-437.5 -148q-279 0 -434.5 144.5t-155.5 398.5q0 163 73 283t208 184t311 64q182 0 315.5 -67t205 -186t71.5 -266zM809 528q0 209 -160 209t-160 -219q0 -231 162 -231q158 0 158 241zM1064 1496l-256 -321h-317l-256 321h262l147 -153
l148 153h272z" />
    <glyph glyph-name="uni01D3" unicode="&#x1d3;" horiz-adv-x="1516" 
d="M1391 655q0 -345 -157.5 -512.5t-485.5 -167.5q-306 0 -464.5 167.5t-158.5 504.5v787h434v-803q0 -138 51.5 -212.5t147.5 -74.5q97 0 147.5 70t50.5 207v813h435v-779zM1173 1879l-256 -321h-317l-256 321h262l147 -153l148 153h272z" />
    <glyph glyph-name="uni01D4" unicode="&#x1d4;" horiz-adv-x="1282" 
d="M754 0v158h-4q-53 -73 -95.5 -107t-96 -55t-124.5 -21q-168 0 -256 109t-88 322v618h426v-586q0 -151 113 -151q62 0 93.5 41t31.5 116v580h426v-1024h-426zM1054 1496l-256 -321h-317l-256 321h262l147 -153l148 153h272z" />
    <glyph glyph-name="uni01D5" unicode="&#x1d5;" horiz-adv-x="1516" 
d="M1391 655q0 -345 -157.5 -512.5t-485.5 -167.5q-306 0 -464.5 167.5t-158.5 504.5v787h434v-803q0 -138 51.5 -212.5t147.5 -74.5q97 0 147.5 70t50.5 207v813h435v-779zM1155 2188v-223h-795v223h795zM315 1742q0 73 52 118.5t140 45.5q84 0 138.5 -46.5t54.5 -117.5
t-53 -115t-140 -44t-139.5 44.5t-52.5 114.5zM816 1742q0 71 51.5 117.5t141.5 46.5q85 0 138.5 -47.5t53.5 -116.5q0 -71 -53 -115t-139 -44q-87 0 -140 43.5t-53 115.5z" />
    <glyph glyph-name="uni01D6" unicode="&#x1d6;" horiz-adv-x="1282" 
d="M754 0v158h-4q-53 -73 -95.5 -107t-96 -55t-124.5 -21q-168 0 -256 109t-88 322v618h426v-586q0 -151 113 -151q62 0 93.5 41t31.5 116v580h426v-1024h-426zM1037 1780v-223h-795v223h795zM197 1334q0 73 52 118.5t140 45.5q84 0 138.5 -46.5t54.5 -117.5t-53 -115
t-140 -44t-139.5 44.5t-52.5 114.5zM698 1334q0 71 51.5 117.5t141.5 46.5q85 0 138.5 -47.5t53.5 -116.5q0 -71 -53 -115t-139 -44q-87 0 -140 43.5t-53 115.5z" />
    <glyph glyph-name="uni01D7" unicode="&#x1d7;" horiz-adv-x="1516" 
d="M1391 655q0 -345 -157.5 -512.5t-485.5 -167.5q-306 0 -464.5 167.5t-158.5 504.5v787h434v-803q0 -138 51.5 -212.5t147.5 -74.5q97 0 147.5 70t50.5 207v813h435v-779zM315 1690q0 73 52 118.5t140 45.5q84 0 138.5 -46.5t54.5 -117.5t-53 -115t-140 -44t-139.5 44.5
t-52.5 114.5zM816 1690q0 71 51.5 117.5t141.5 46.5q85 0 138.5 -47.5t53.5 -116.5q0 -71 -53 -115t-139 -44q-87 0 -140 43.5t-53 115.5zM861 1861h-265l229 323h358z" />
    <glyph glyph-name="uni01D8" unicode="&#x1d8;" horiz-adv-x="1282" 
d="M754 0v158h-4q-53 -73 -95.5 -107t-96 -55t-124.5 -21q-168 0 -256 109t-88 322v618h426v-586q0 -151 113 -151q62 0 93.5 41t31.5 116v580h426v-1024h-426zM198 1334q0 73 52 118.5t140 45.5q84 0 138.5 -46.5t54.5 -117.5t-53 -115t-140 -44t-139.5 44.5t-52.5 114.5z
M699 1334q0 71 51.5 117.5t141.5 46.5q85 0 138.5 -47.5t53.5 -116.5q0 -71 -53 -115t-139 -44q-87 0 -140 43.5t-53 115.5zM744 1505h-265l229 323h358z" />
    <glyph glyph-name="uni01D9" unicode="&#x1d9;" horiz-adv-x="1516" 
d="M1391 655q0 -345 -157.5 -512.5t-485.5 -167.5q-306 0 -464.5 167.5t-158.5 504.5v787h434v-803q0 -138 51.5 -212.5t147.5 -74.5q97 0 147.5 70t50.5 207v813h435v-779zM315 1692q0 73 52 118.5t140 45.5q84 0 138.5 -46.5t54.5 -117.5t-53 -115t-140 -44t-139.5 44.5
t-52.5 114.5zM816 1692q0 71 51.5 117.5t141.5 46.5q85 0 138.5 -47.5t53.5 -116.5q0 -71 -53 -115t-139 -44q-87 0 -140 43.5t-53 115.5zM1173 2188l-274 -321h-290l-265 321h262l147 -153l148 153h272z" />
    <glyph glyph-name="uni01DA" unicode="&#x1da;" horiz-adv-x="1282" 
d="M754 0v158h-4q-53 -73 -95.5 -107t-96 -55t-124.5 -21q-168 0 -256 109t-88 322v618h426v-586q0 -151 113 -151q62 0 93.5 41t31.5 116v580h426v-1024h-426zM198 1334q0 73 52 118.5t140 45.5q84 0 138.5 -46.5t54.5 -117.5t-53 -115t-140 -44t-139.5 44.5t-52.5 114.5z
M699 1334q0 71 51.5 117.5t141.5 46.5q85 0 138.5 -47.5t53.5 -116.5q0 -71 -53 -115t-139 -44q-87 0 -140 43.5t-53 115.5zM1056 1830l-274 -321h-290l-265 321h262l147 -153l148 153h272z" />
    <glyph glyph-name="uni01DB" unicode="&#x1db;" horiz-adv-x="1516" 
d="M1391 655q0 -345 -157.5 -512.5t-485.5 -167.5q-306 0 -464.5 167.5t-158.5 504.5v787h434v-803q0 -138 51.5 -212.5t147.5 -74.5q97 0 147.5 70t50.5 207v813h435v-779zM315 1690q0 73 52 118.5t140 45.5q84 0 138.5 -46.5t54.5 -117.5t-53 -115t-140 -44t-139.5 44.5
t-52.5 114.5zM816 1690q0 71 51.5 117.5t141.5 46.5q85 0 138.5 -47.5t53.5 -116.5q0 -71 -53 -115t-139 -44q-87 0 -140 43.5t-53 115.5zM333 2184h358l229 -323h-265z" />
    <glyph glyph-name="uni01DC" unicode="&#x1dc;" horiz-adv-x="1282" 
d="M754 0v158h-4q-53 -73 -95.5 -107t-96 -55t-124.5 -21q-168 0 -256 109t-88 322v618h426v-586q0 -151 113 -151q62 0 93.5 41t31.5 116v580h426v-1024h-426zM198 1334q0 73 52 118.5t140 45.5q84 0 138.5 -46.5t54.5 -117.5t-53 -115t-140 -44t-139.5 44.5t-52.5 114.5z
M699 1334q0 71 51.5 117.5t141.5 46.5q85 0 138.5 -47.5t53.5 -116.5q0 -71 -53 -115t-139 -44q-87 0 -140 43.5t-53 115.5zM216 1828h358l229 -323h-265z" />
    <glyph glyph-name="uni01DD" unicode="&#x1dd;" horiz-adv-x="1147" 
d="M678 633q-11 66 -76 103.5t-172 37.5q-149 0 -282 -57v270q155 62 376 62q268 0 417 -137t149 -377q0 -165 -65.5 -291t-194 -197.5t-283.5 -71.5q-159 0 -272 62t-171.5 174t-58.5 262v160h633zM422 410q0 -177 127 -177q53 0 89 48.5t42 128.5h-258z" />
    <glyph glyph-name="uni01DE" unicode="&#x1de;" horiz-adv-x="1536" 
d="M1040 0l-63 264h-428l-68 -264h-467l494 1434h536l465 -1434h-469zM768 1122h-10q-2 -24 -14 -79t-121 -472h274l-100 390q-21 86 -29 161zM1165 2157v-223h-795v223h795zM325 1711q0 73 52 118.5t140 45.5q84 0 138.5 -46.5t54.5 -117.5t-53 -115t-140 -44t-139.5 44.5
t-52.5 114.5zM826 1711q0 71 51.5 117.5t141.5 46.5q85 0 138.5 -47.5t53.5 -116.5q0 -71 -53 -115t-139 -44q-87 0 -140 43.5t-53 115.5z" />
    <glyph glyph-name="uni01DF" unicode="&#x1df;" horiz-adv-x="1149" 
d="M670 0v156h-4q-102 -181 -312 -181q-145 0 -227 86t-82 230q0 302 371 350l254 33q0 50 -45 82t-121 32q-172 0 -363 -98v277q83 36 208 59t214 23q261 0 378.5 -111.5t117.5 -372.5v-565h-389zM418 348q0 -42 26.5 -69t75.5 -27q67 0 108.5 50t41.5 128v39l-144 -20
q-108 -18 -108 -101zM971 1780v-223h-795v223h795zM131 1334q0 73 52 118.5t140 45.5q84 0 138.5 -46.5t54.5 -117.5t-53 -115t-140 -44t-139.5 44.5t-52.5 114.5zM632 1334q0 71 51.5 117.5t141.5 46.5q85 0 138.5 -47.5t53.5 -116.5q0 -71 -53 -115t-139 -44
q-87 0 -140 43.5t-53 115.5z" />
    <glyph glyph-name="uni01E0" unicode="&#x1e0;" horiz-adv-x="1536" 
d="M1040 0l-63 264h-428l-68 -264h-467l494 1434h536l465 -1434h-469zM768 1122h-10q-2 -24 -14 -79t-121 -472h274l-100 390q-21 86 -29 161zM1166 2159v-223h-795v223h795zM576 1713q0 71 51.5 117.5t141.5 46.5q85 0 138.5 -47.5t53.5 -116.5q0 -71 -53 -115t-139 -44
q-87 0 -140 43.5t-53 115.5z" />
    <glyph glyph-name="uni01E1" unicode="&#x1e1;" horiz-adv-x="1149" 
d="M670 0v156h-4q-102 -181 -312 -181q-145 0 -227 86t-82 230q0 302 371 350l254 33q0 50 -45 82t-121 32q-172 0 -363 -98v277q83 36 208 59t214 23q261 0 378.5 -111.5t117.5 -372.5v-565h-389zM418 348q0 -42 26.5 -69t75.5 -27q67 0 108.5 50t41.5 128v39l-144 -20
q-108 -18 -108 -101zM984 1784v-223h-795v223h795zM394 1338q0 71 51.5 117.5t141.5 46.5q85 0 138.5 -47.5t53.5 -116.5q0 -71 -53 -115t-139 -44q-87 0 -140 43.5t-53 115.5z" />
    <glyph glyph-name="uni01E2" unicode="&#x1e2;" horiz-adv-x="2030" 
d="M1040 0v264h-432l-119 -264h-501l747 1434h1198v-338h-460v-209h432v-338h-432v-211h493v-338h-926zM1040 1096h-55l-240 -525h295v525zM967 1568v223h655v-223h-655z" />
    <glyph glyph-name="uni01E3" unicode="&#x1e3;" horiz-adv-x="1716" 
d="M1038 391q31 -141 250 -141q149 0 285 59v-270q-163 -64 -395 -64q-133 0 -242.5 41t-171.5 111h-4q-143 -152 -344 -152q-181 0 -276 84.5t-95 237.5q0 146 96 235.5t271 106.5l258 25q0 59 -45 91.5t-123 32.5q-81 0 -177 -25.5t-184 -72.5v277q95 36 207 59t187 23
q206 0 342 -93h4q149 93 307 93q220 0 351.5 -136.5t131.5 -367.5v-154h-633zM1294 614q0 177 -127 177q-53 0 -91 -52t-38 -125h256zM668 459l-138 -10q-55 -5 -84.5 -33.5t-29.5 -69.5q0 -40 30 -67t76 -27q65 0 105.5 49t40.5 123v35zM531 1211v223h655v-223h-655z" />
    <glyph glyph-name="uni01E4" unicode="&#x1e4;" horiz-adv-x="1489" 
d="M711 532h254v77h-254v257h686v-334h92v-195h-92v-243q-81 -46 -242 -82.5t-307 -36.5q-377 0 -582 188.5t-205 528.5q0 228 103.5 405t291.5 269t443 92q187 0 399 -53v-377q-103 47 -193 63.5t-196 16.5q-181 0 -285 -111.5t-104 -306.5q0 -206 95 -320t267 -114
q48 0 83 8v73h-254v195z" />
    <glyph glyph-name="uni01E5" unicode="&#x1e5;" horiz-adv-x="1315" 
d="M620 35h167l1 18v143h-4q-46 -70 -126.5 -112t-172.5 -42q-197 0 -312.5 129t-115.5 356q0 157 60.5 275.5t166.5 182.5t236 64q177 0 264 -131h4v106h424v-881q0 -61 -5 -108h108v-195h-155q-71 -164 -228.5 -242.5t-396.5 -78.5q-97 0 -203.5 14t-161.5 35v304
q80 -39 177.5 -63.5t193.5 -24.5q127 0 187 56h-108v195zM795 570q0 76 -39.5 121.5t-108.5 45.5q-71 0 -114.5 -54t-43.5 -146q0 -85 41 -134t116 -49q69 0 109 49t40 137v30z" />
    <glyph glyph-name="Gcaron" unicode="&#x1e6;" horiz-adv-x="1489" 
d="M1397 94q-81 -46 -242 -82.5t-307 -36.5q-377 0 -582 188.5t-205 528.5q0 228 103.5 405t291.5 269t443 92q187 0 399 -53v-377q-99 45 -190 62.5t-199 17.5q-178 0 -283.5 -107t-105.5 -294q0 -179 88.5 -280t247.5 -101q74 0 109 8v205h-275v327h707v-772zM1204 1879
l-256 -321h-317l-256 321h262l147 -153l148 153h272z" />
    <glyph glyph-name="gcaron" unicode="&#x1e7;" horiz-adv-x="1315" 
d="M1212 143q0 -295 -185.5 -459.5t-541.5 -164.5q-96 0 -186 15t-129 34v334q64 -40 150 -64t153 -24q143 0 229 69t86 183v63h-4q-46 -70 -126.5 -112t-172.5 -42q-198 0 -313 137.5t-115 379.5q0 166 60 293t167 195.5t236 68.5q177 0 264 -131h4v106h424v-881zM795 541
q0 90 -40.5 143t-107.5 53q-72 0 -115 -64t-43 -171q0 -99 36 -157t114 -58q73 0 114.5 59.5t41.5 159.5v35zM1072 1496l-256 -321h-317l-256 321h262l147 -153l148 153h272z" />
    <glyph glyph-name="uni01E8" unicode="&#x1e8;" horiz-adv-x="1413" 
d="M934 0l-318 606q-32 72 -38 99h-5v-705h-432v1434h432v-682h5q19 54 43 100l286 582h512l-407 -684l446 -750h-524zM1136 1879l-256 -321h-317l-256 321h262l147 -153l148 153h272z" />
    <glyph glyph-name="uni01E9" unicode="&#x1e9;" horiz-adv-x="1214" 
d="M760 0l-228 526h-4v-526h-426v1516h426v-973h4l207 481h480l-277 -469l293 -555h-475zM1042 1889l-256 -321h-317l-256 321h262l147 -153l148 153h272z" />
    <glyph glyph-name="uni01EA" unicode="&#x1ea;" horiz-adv-x="1567" 
d="M1505 721q0 -206 -85.5 -371.5t-239 -263t-346.5 -109.5q-46 -80 -46 -148q0 -37 20 -56t53 -19q56 0 118 28v-154q-34 -19 -86.5 -31.5t-93.5 -12.5q-116 0 -174 54.5t-58 148.5q0 108 87 197q-175 28 -309.5 124t-209 248.5t-74.5 341.5q0 219 93 394t261 270.5
t382 95.5q206 0 368.5 -91.5t251 -261t88.5 -384.5zM1047 709q0 177 -68 279t-186 102q-129 0 -201 -98t-72 -277q0 -175 71.5 -273t194.5 -98q75 0 135 44t93 126t33 195z" />
    <glyph glyph-name="uni01EB" unicode="&#x1eb;" horiz-adv-x="1298" 
d="M1241 530q0 -245 -142.5 -392t-398.5 -161q-46 -80 -46 -148q0 -37 20 -56t53 -19q56 0 118 28v-154q-34 -19 -86.5 -31.5t-93.5 -12.5q-116 0 -174 54.5t-58 148.5q0 109 86 197q-222 32 -342 171.5t-120 362.5q0 163 73 283t208 184t311 64q182 0 315.5 -67t205 -186
t71.5 -266zM809 528q0 209 -160 209t-160 -219q0 -231 162 -231q158 0 158 241z" />
    <glyph glyph-name="uni01EC" unicode="&#x1ec;" horiz-adv-x="1567" 
d="M1505 721q0 -206 -85.5 -371.5t-239 -263t-346.5 -109.5q-46 -80 -46 -148q0 -37 20 -56t53 -19q56 0 118 28v-154q-34 -19 -86.5 -31.5t-93.5 -12.5q-116 0 -174 54.5t-58 148.5q0 108 87 197q-175 28 -309.5 124t-209 248.5t-74.5 341.5q0 219 93 394t261 270.5
t382 95.5q206 0 368.5 -91.5t251 -261t88.5 -384.5zM1047 709q0 177 -68 279t-186 102q-129 0 -201 -98t-72 -277q0 -175 71.5 -273t194.5 -98q75 0 135 44t93 126t33 195zM454 1568v223h655v-223h-655z" />
    <glyph glyph-name="uni01ED" unicode="&#x1ed;" horiz-adv-x="1298" 
d="M1241 530q0 -245 -142.5 -392t-398.5 -161q-46 -80 -46 -148q0 -37 20 -56t53 -19q56 0 118 28v-154q-34 -19 -86.5 -31.5t-93.5 -12.5q-116 0 -174 54.5t-58 148.5q0 109 86 197q-222 32 -342 171.5t-120 362.5q0 163 73 283t208 184t311 64q182 0 315.5 -67t205 -186
t71.5 -266zM809 528q0 209 -160 209t-160 -219q0 -231 162 -231q158 0 158 241zM320 1187v223h655v-223h-655z" />
    <glyph glyph-name="uni01EE" unicode="&#x1ee;" horiz-adv-x="1397" 
d="M61 -372v409q218 -150 492 -150q156 0 246 72t90 196q0 127 -95 190t-292 63h-145v260l378 428h-643v338h1175v-285l-375 -430q230 -63 343 -198t113 -348q0 -317 -205 -485.5t-590 -168.5q-131 0 -262 28t-230 81zM1089 1879l-256 -321h-317l-256 321h262l147 -153
l148 153h272z" />
    <glyph glyph-name="uni01EF" unicode="&#x1ef;" horiz-adv-x="1160" 
d="M102 -90q92 -42 167 -61t152 -19q258 0 258 209q0 97 -69 155t-196 58h-156v172l274 305h-417v295h919v-242l-274 -312q173 -52 262 -160.5t89 -270.5q0 -239 -167 -379.5t-457 -140.5q-210 0 -385 61v330zM984 1496l-256 -321h-317l-256 321h262l147 -153l148 153h272z
" />
    <glyph glyph-name="uni01F0" unicode="&#x1f0;" horiz-adv-x="631" 
d="M528 -10q0 -135 -53 -246.5t-156 -168t-245 -56.5q-78 0 -170 30v312q56 -31 102 -31q53 0 74.5 35.5t21.5 107.5v1051h426v-1034zM735 1496l-256 -321h-317l-256 321h262l147 -153l148 153h272z" />
    <glyph glyph-name="uni01F1" unicode="&#x1f1;" horiz-adv-x="2867" 
d="M1493 735q0 -218 -91.5 -385.5t-261.5 -258.5t-392 -91h-607v1434h594q758 0 758 -699zM1034 731q0 105 -42.5 189t-121.5 130t-186 46h-111v-758h121q155 0 247.5 106.5t92.5 286.5zM2170 338h648v-338h-1203v303l662 793h-621v338h1141v-301z" />
    <glyph glyph-name="uni01F2" unicode="&#x1f2;" horiz-adv-x="2596" 
d="M1493 735q0 -218 -91.5 -385.5t-261.5 -258.5t-392 -91h-607v1434h594q758 0 758 -699zM1034 731q0 105 -42.5 189t-121.5 130t-186 46h-111v-758h121q155 0 247.5 106.5t92.5 286.5zM2138 295h422v-295h-981v197l460 532h-417v295h929v-242z" />
    <glyph glyph-name="uni01F3" unicode="&#x1f3;" horiz-adv-x="2357" 
d="M786 0v119h-4q-51 -67 -133 -105.5t-162 -38.5q-131 0 -231 64.5t-149.5 180.5t-49.5 274q0 163 59 289t166 196t240 70q63 0 116.5 -18t93 -48.5t50.5 -60.5h4v594h426v-1516h-426zM795 543q0 92 -40.5 143t-109.5 51t-112.5 -63.5t-43.5 -169.5q0 -217 150 -217
q71 0 113.5 58.5t42.5 170.5v27zM1899 295h422v-295h-981v197l460 532h-417v295h929v-242z" />
    <glyph glyph-name="uni01F4" unicode="&#x1f4;" horiz-adv-x="1489" 
d="M1397 94q-81 -46 -242 -82.5t-307 -36.5q-377 0 -582 188.5t-205 528.5q0 228 103.5 405t291.5 269t443 92q187 0 399 -53v-377q-99 45 -190 62.5t-199 17.5q-178 0 -283.5 -107t-105.5 -294q0 -179 88.5 -280t247.5 -101q74 0 109 8v205h-275v327h707v-772zM890 1564
h-301l299 321h358z" />
    <glyph glyph-name="uni01F5" unicode="&#x1f5;" horiz-adv-x="1315" 
d="M1212 143q0 -295 -185.5 -459.5t-541.5 -164.5q-96 0 -186 15t-129 34v334q64 -40 150 -64t153 -24q143 0 229 69t86 183v63h-4q-46 -70 -126.5 -112t-172.5 -42q-198 0 -313 137.5t-115 379.5q0 166 60 293t167 195.5t236 68.5q177 0 264 -131h4v106h424v-881zM795 541
q0 90 -40.5 143t-107.5 53q-72 0 -115 -64t-43 -171q0 -99 36 -157t114 -58q73 0 114.5 59.5t41.5 159.5v35zM730 1188h-301l299 321h358z" />
    <glyph glyph-name="uni01F6" unicode="&#x1f6;" horiz-adv-x="2385" 
d="M2260 655q0 -345 -153.5 -512.5t-476.5 -167.5q-294 0 -452.5 146t-158.5 414h-446v-535h-432v1434h432v-531h446v531h432v-803q0 -140 49.5 -213.5t139.5 -73.5q93 0 140.5 70t47.5 207v403h432v-369z" />
    <glyph glyph-name="uni01F7" unicode="&#x1f7;" horiz-adv-x="1512" 
d="M573 -24v-447h-432v1905h427v-146h5q189 170 408 170q136 0 243.5 -62t166.5 -174.5t59 -257.5q0 -197 -87.5 -365.5t-271 -317t-518.5 -305.5zM573 981v-618q189 105 304.5 256t115.5 289q0 83 -42.5 132.5t-111.5 49.5q-68 0 -131 -27t-135 -82z" />
    <glyph glyph-name="uni01F8" unicode="&#x1f8;" horiz-adv-x="1663" 
d="M1143 0l-506 692q-60 82 -98 148h-4q6 -106 6 -238v-602h-400v1434h408l485 -658q9 -13 22 -31t26 -37t24.5 -37t17.5 -32h4q-6 44 -6 152v643h400v-1434h-379zM719 1570l-356 321h358l299 -321h-301z" />
    <glyph glyph-name="uni01F9" unicode="&#x1f9;" horiz-adv-x="1282" 
d="M766 0v559q0 95 -28.5 136.5t-92.5 41.5q-55 0 -86 -43t-31 -110v-584h-426v1024h426v-160h4q51 88 137 136.5t187 48.5q336 0 336 -424v-625h-426zM539 1188l-356 321h358l299 -321h-301z" />
    <glyph glyph-name="Aringacute" unicode="&#x1fa;" horiz-adv-x="1536" 
d="M1040 0l-63 264h-428l-68 -264h-467l494 1434q-27 54 -27 114q0 116 81.5 186t209.5 70q136 0 216.5 -71t80.5 -185q0 -67 -25 -114l465 -1434h-469zM879 1548q0 35 -26.5 61.5t-80.5 26.5q-49 0 -73.5 -25.5t-24.5 -62.5t27 -62.5t71 -25.5q48 0 77.5 25t29.5 63z
M768 1106h-10q-9 -57 -13 -74t-114 -430h258l-94 359q-14 55 -19 90zM821 1858h-301l299 321h358z" />
    <glyph glyph-name="aringacute" unicode="&#x1fb;" horiz-adv-x="1149" 
d="M670 0v156h-4q-102 -181 -312 -181q-145 0 -227 86t-82 230q0 302 371 350l254 33q0 50 -45 82t-121 32q-172 0 -363 -98v277q83 36 208 59t214 23q261 0 378.5 -111.5t117.5 -372.5v-565h-389zM418 348q0 -42 26.5 -69t75.5 -27q67 0 108.5 50t41.5 128v39l-144 -20
q-108 -18 -108 -101zM846 1354q0 -106 -75.5 -170.5t-195.5 -64.5q-115 0 -189.5 65.5t-74.5 169.5q0 72 34.5 124.5t95.5 81t134 28.5q124 0 197.5 -64.5t73.5 -169.5zM672 1354q0 32 -23.5 56t-73.5 24q-45 0 -67.5 -23t-22.5 -57t25.5 -57t64.5 -23q42 0 69.5 22.5
t27.5 57.5zM607 1659h-301l299 321h358z" />
    <glyph glyph-name="AEacute" unicode="&#x1fc;" horiz-adv-x="2030" 
d="M1040 0v264h-432l-119 -264h-501l747 1434h1198v-338h-460v-209h432v-338h-432v-211h493v-338h-926zM1040 1096h-55l-240 -525h295v525zM1320 1567h-301l299 321h358z" />
    <glyph glyph-name="aeacute" unicode="&#x1fd;" horiz-adv-x="1716" 
d="M1038 391q31 -141 250 -141q149 0 285 59v-270q-163 -64 -395 -64q-133 0 -242.5 41t-171.5 111h-4q-143 -152 -344 -152q-181 0 -276 84.5t-95 237.5q0 146 96 235.5t271 106.5l258 25q0 59 -45 91.5t-123 32.5q-81 0 -177 -25.5t-184 -72.5v277q95 36 207 59t187 23
q206 0 342 -93h4q149 93 307 93q220 0 351.5 -136.5t131.5 -367.5v-154h-633zM1294 614q0 177 -127 177q-53 0 -91 -52t-38 -125h256zM668 459l-138 -10q-55 -5 -84.5 -33.5t-29.5 -69.5q0 -40 30 -67t76 -27q65 0 105.5 49t40.5 123v35zM930 1186h-301l299 321h358z" />
    <glyph glyph-name="Oslashacute" unicode="&#x1fe;" horiz-adv-x="1567" 
d="M1505 721q0 -216 -93 -386.5t-260 -265t-374 -94.5q-228 0 -409 117l-146 -164l-160 133l150 172q-152 193 -152 465q0 219 93 394t261 270.5t382 95.5q230 0 401 -112l127 143l162 -133l-133 -152q151 -195 151 -483zM1094 707q0 86 -11 194l-481 -547q82 -61 186 -61
q84 0 155 51.5t111 144t40 218.5zM969 1083q-79 58 -174 58q-150 0 -236 -119.5t-86 -319.5q0 -97 10 -165zM830 1567h-301l299 321h358z" />
    <glyph glyph-name="oslashacute" unicode="&#x1ff;" horiz-adv-x="1298" 
d="M1116 862q125 -148 125 -338q0 -256 -153.5 -401.5t-440.5 -145.5q-198 0 -338 78l-133 -135l-143 125l133 135q-109 144 -109 340q0 163 73 283t208 184t311 64q182 0 318 -70l125 125l143 -125zM750 762q-48 20 -99 20q-105 0 -152.5 -66.5t-47.5 -193.5v-29l2 -26z
M850 528v33l-2 33l-318 -320q49 -28 121 -28q97 0 148 71.5t51 210.5zM702 1186h-301l299 321h358z" />
    <glyph glyph-name="uni0200" unicode="&#x200;" horiz-adv-x="1536" 
d="M1040 0l-63 264h-428l-68 -264h-467l494 1434h536l465 -1434h-469zM768 1122h-10q-2 -24 -14 -79t-121 -472h274l-100 390q-21 86 -29 161zM134 1892h346l217 -323h-303zM620 1892h346l217 -323h-303z" />
    <glyph glyph-name="uni0201" unicode="&#x201;" horiz-adv-x="1149" 
d="M670 0v156h-4q-102 -181 -312 -181q-145 0 -227 86t-82 230q0 302 371 350l254 33q0 50 -45 82t-121 32q-172 0 -363 -98v277q83 36 208 59t214 23q261 0 378.5 -111.5t117.5 -372.5v-565h-389zM418 348q0 -42 26.5 -69t75.5 -27q67 0 108.5 50t41.5 128v39l-144 -20
q-108 -18 -108 -101zM-42 1509h346l217 -323h-303zM444 1509h346l217 -323h-303z" />
    <glyph glyph-name="uni0202" unicode="&#x202;" horiz-adv-x="1536" 
d="M1040 0l-63 264h-428l-68 -264h-467l494 1434h536l465 -1434h-469zM768 1122h-10q-2 -24 -14 -79t-121 -472h274l-100 390q-21 86 -29 161zM379 1553q16 167 117 256.5t276 89.5q112 0 199 -44t136 -124t50 -178h-240q-10 55 -49 87t-102 32q-61 0 -99 -30.5t-49 -88.5
h-239z" />
    <glyph glyph-name="uni0203" unicode="&#x203;" horiz-adv-x="1149" 
d="M670 0v156h-4q-102 -181 -312 -181q-145 0 -227 86t-82 230q0 302 371 350l254 33q0 50 -45 82t-121 32q-172 0 -363 -98v277q83 36 208 59t214 23q261 0 378.5 -111.5t117.5 -372.5v-565h-389zM418 348q0 -42 26.5 -69t75.5 -27q67 0 108.5 50t41.5 128v39l-144 -20
q-108 -18 -108 -101zM196 1176q16 167 117 256.5t276 89.5q112 0 199 -44t136 -124t50 -178h-240q-10 55 -49 87t-102 32q-61 0 -99 -30.5t-49 -88.5h-239z" />
    <glyph glyph-name="uni0204" unicode="&#x204;" horiz-adv-x="1130" 
d="M141 0v1434h893v-338h-461v-209h433v-338h-433v-211h494v-338h-926zM-33 1892h346l217 -323h-303zM453 1892h346l217 -323h-303z" />
    <glyph glyph-name="uni0205" unicode="&#x205;" horiz-adv-x="1147" 
d="M469 391q11 -66 76 -103.5t172 -37.5q149 0 282 57v-270q-155 -62 -376 -62q-268 0 -417 137t-149 377q0 165 65.5 291t194 197.5t283.5 71.5q159 0 272 -62t171.5 -174t58.5 -262v-160h-633zM725 614q0 177 -127 177q-53 0 -89 -48.5t-42 -128.5h258zM-33 1509h346
l217 -323h-303zM453 1509h346l217 -323h-303z" />
    <glyph glyph-name="uni0206" unicode="&#x206;" horiz-adv-x="1130" 
d="M141 0v1434h893v-338h-461v-209h433v-338h-433v-211h494v-338h-926zM190 1557q16 167 117 256.5t276 89.5q112 0 199 -44t136 -124t50 -178h-240q-10 55 -49 87t-102 32q-61 0 -99 -30.5t-49 -88.5h-239z" />
    <glyph glyph-name="uni0207" unicode="&#x207;" horiz-adv-x="1147" 
d="M469 391q11 -66 76 -103.5t172 -37.5q149 0 282 57v-270q-155 -62 -376 -62q-268 0 -417 137t-149 377q0 165 65.5 291t194 197.5t283.5 71.5q159 0 272 -62t171.5 -174t58.5 -262v-160h-633zM725 614q0 177 -127 177q-53 0 -89 -48.5t-42 -128.5h258zM199 1176
q16 167 117 256.5t276 89.5q112 0 199 -44t136 -124t50 -178h-240q-10 55 -49 87t-102 32q-61 0 -99 -30.5t-49 -88.5h-239z" />
    <glyph glyph-name="uni0208" unicode="&#x208;" horiz-adv-x="772" 
d="M141 0v1434h432v-1434h-432zM-235 1892h346l217 -323h-303zM251 1892h346l217 -323h-303z" />
    <glyph glyph-name="uni0209" unicode="&#x209;" horiz-adv-x="631" 
d="M102 0v1024h426v-1024h-426zM-318 1509h346l217 -323h-303zM168 1509h346l217 -323h-303z" />
    <glyph glyph-name="uni020A" unicode="&#x20a;" horiz-adv-x="772" 
d="M141 0v1434h432v-1434h-432zM0 1557q16 167 117 256.5t276 89.5q112 0 199 -44t136 -124t50 -178h-240q-10 55 -49 87t-102 32q-61 0 -99 -30.5t-49 -88.5h-239z" />
    <glyph glyph-name="uni020B" unicode="&#x20b;" horiz-adv-x="631" 
d="M102 0v1024h426v-1024h-426zM-73 1176q16 167 117 256.5t276 89.5q112 0 199 -44t136 -124t50 -178h-240q-10 55 -49 87t-102 32q-61 0 -99 -30.5t-49 -88.5h-239z" />
    <glyph glyph-name="uni020C" unicode="&#x20c;" horiz-adv-x="1567" 
d="M1505 721q0 -216 -93 -386.5t-260 -265t-374 -94.5q-202 0 -367.5 91.5t-257.5 257t-92 374.5q0 219 93 394t261 270.5t382 95.5q206 0 368.5 -91.5t251 -261t88.5 -384.5zM1047 709q0 177 -68 279t-186 102q-129 0 -201 -98t-72 -277q0 -175 71.5 -273t194.5 -98
q75 0 135 44t93 126t33 195zM139 1892h346l217 -323h-303zM625 1892h346l217 -323h-303z" />
    <glyph glyph-name="uni020D" unicode="&#x20d;" horiz-adv-x="1298" 
d="M1241 530q0 -259 -156.5 -407t-437.5 -148q-279 0 -434.5 144.5t-155.5 398.5q0 163 73 283t208 184t311 64q182 0 315.5 -67t205 -186t71.5 -266zM809 528q0 209 -160 209t-160 -219q0 -231 162 -231q158 0 158 241zM25 1509h346l217 -323h-303zM511 1509h346l217 -323
h-303z" />
    <glyph glyph-name="uni020E" unicode="&#x20e;" horiz-adv-x="1567" 
d="M1505 721q0 -216 -93 -386.5t-260 -265t-374 -94.5q-202 0 -367.5 91.5t-257.5 257t-92 374.5q0 219 93 394t261 270.5t382 95.5q206 0 368.5 -91.5t251 -261t88.5 -384.5zM1047 709q0 177 -68 279t-186 102q-129 0 -201 -98t-72 -277q0 -175 71.5 -273t194.5 -98
q75 0 135 44t93 126t33 195zM394 1557q16 167 117 256.5t276 89.5q112 0 199 -44t136 -124t50 -178h-240q-10 55 -49 87t-102 32q-61 0 -99 -30.5t-49 -88.5h-239z" />
    <glyph glyph-name="uni020F" unicode="&#x20f;" horiz-adv-x="1298" 
d="M1241 530q0 -259 -156.5 -407t-437.5 -148q-279 0 -434.5 144.5t-155.5 398.5q0 163 73 283t208 184t311 64q182 0 315.5 -67t205 -186t71.5 -266zM809 528q0 209 -160 209t-160 -219q0 -231 162 -231q158 0 158 241zM260 1176q16 167 117 256.5t276 89.5q112 0 199 -44
t136 -124t50 -178h-240q-10 55 -49 87t-102 32q-61 0 -99 -30.5t-49 -88.5h-239z" />
    <glyph glyph-name="uni0210" unicode="&#x210;" horiz-adv-x="1397" 
d="M885 0l-107 309q-31 91 -80.5 143t-107.5 52h-17v-504h-432v1434h574q301 0 444.5 -98.5t143.5 -295.5q0 -148 -83.5 -248t-248.5 -145v-4q91 -28 151.5 -91t108.5 -187l141 -365h-487zM844 979q0 72 -44 114t-138 42h-89v-328h78q87 0 140 49t53 123zM74 1892h346
l217 -323h-303zM560 1892h346l217 -323h-303z" />
    <glyph glyph-name="uni0211" unicode="&#x211;" horiz-adv-x="893" 
d="M872 659q-24 11 -65 20t-68 9q-211 0 -211 -244v-444h-426v1024h426v-180h4q39 97 111 147.5t168 50.5q35 0 61 -12v-371zM-155 1509h346l217 -323h-303zM331 1509h346l217 -323h-303z" />
    <glyph glyph-name="uni0212" unicode="&#x212;" horiz-adv-x="1397" 
d="M885 0l-107 309q-31 91 -80.5 143t-107.5 52h-17v-504h-432v1434h574q301 0 444.5 -98.5t143.5 -295.5q0 -148 -83.5 -248t-248.5 -145v-4q91 -28 151.5 -91t108.5 -187l141 -365h-487zM844 979q0 72 -44 114t-138 42h-89v-328h78q87 0 140 49t53 123zM291 1556
q16 167 117 256.5t276 89.5q112 0 199 -44t136 -124t50 -178h-240q-10 55 -49 87t-102 32q-61 0 -99 -30.5t-49 -88.5h-239z" />
    <glyph glyph-name="uni0213" unicode="&#x213;" horiz-adv-x="893" 
d="M872 659q-24 11 -65 20t-68 9q-211 0 -211 -244v-444h-426v1024h426v-180h4q39 97 111 147.5t168 50.5q35 0 61 -12v-371zM97 1176q16 167 117 256.5t276 89.5q112 0 199 -44t136 -124t50 -178h-240q-10 55 -49 87t-102 32q-61 0 -99 -30.5t-49 -88.5h-239z" />
    <glyph glyph-name="uni0214" unicode="&#x214;" horiz-adv-x="1516" 
d="M1391 655q0 -345 -157.5 -512.5t-485.5 -167.5q-306 0 -464.5 167.5t-158.5 504.5v787h434v-803q0 -138 51.5 -212.5t147.5 -74.5q97 0 147.5 70t50.5 207v813h435v-779zM134 1892h346l217 -323h-303zM620 1892h346l217 -323h-303z" />
    <glyph glyph-name="uni0215" unicode="&#x215;" horiz-adv-x="1282" 
d="M754 0v158h-4q-53 -73 -95.5 -107t-96 -55t-124.5 -21q-168 0 -256 109t-88 322v618h426v-586q0 -151 113 -151q62 0 93.5 41t31.5 116v580h426v-1024h-426zM22 1509h346l217 -323h-303zM508 1509h346l217 -323h-303z" />
    <glyph glyph-name="uni0216" unicode="&#x216;" horiz-adv-x="1516" 
d="M1391 655q0 -345 -157.5 -512.5t-485.5 -167.5q-306 0 -464.5 167.5t-158.5 504.5v787h434v-803q0 -138 51.5 -212.5t147.5 -74.5q97 0 147.5 70t50.5 207v813h435v-779zM369 1553q16 167 117 256.5t276 89.5q112 0 199 -44t136 -124t50 -178h-240q-10 55 -49 87t-102 32
q-61 0 -99 -30.5t-49 -88.5h-239z" />
    <glyph glyph-name="uni0217" unicode="&#x217;" horiz-adv-x="1282" 
d="M754 0v158h-4q-53 -73 -95.5 -107t-96 -55t-124.5 -21q-168 0 -256 109t-88 322v618h426v-586q0 -151 113 -151q62 0 93.5 41t31.5 116v580h426v-1024h-426zM248 1176q16 167 117 256.5t276 89.5q112 0 199 -44t136 -124t50 -178h-240q-10 55 -49 87t-102 32
q-61 0 -99 -30.5t-49 -88.5h-239z" />
    <glyph glyph-name="uni0218" unicode="&#x218;" horiz-adv-x="1171" 
d="M1137 434q0 -143 -76.5 -249t-214.5 -158t-332 -52q-225 0 -412 76v393q90 -66 199 -106.5t203 -40.5q71 0 110 25.5t39 74.5q0 35 -19.5 61.5t-59 49.5t-146.5 63q-346 133 -346 430q0 208 158 332.5t424 124.5q75 0 138 -6t114.5 -15t144.5 -34v-365q-181 99 -356 99
q-72 0 -116 -27t-44 -74q0 -45 35.5 -74.5t148.5 -76.5q223 -90 315.5 -197t92.5 -254zM788 -107l-201 -364h-220l63 364h358z" />
    <glyph glyph-name="uni0219" unicode="&#x219;" horiz-adv-x="989" 
d="M934 340q0 -174 -132.5 -269.5t-369.5 -95.5q-69 0 -170.5 14t-165.5 34v299q189 -84 316 -84q125 0 125 65q0 27 -29 44.5t-152 58.5q-136 43 -198 114t-62 185q0 159 126.5 251.5t355.5 92.5q134 0 284 -39v-287q-63 27 -138 45t-126 18q-42 0 -67 -14t-25 -39
q0 -29 27 -47t108 -43q157 -46 225 -118t68 -185zM687 -107l-201 -364h-220l63 364h358z" />
    <glyph glyph-name="uni021A" unicode="&#x21a;" horiz-adv-x="1303" 
d="M866 1096v-1096h-434v1096h-401v338h1241v-338h-406zM853 -107l-201 -364h-220l63 364h358z" />
    <glyph glyph-name="uni021B" unicode="&#x21b;" horiz-adv-x="854" 
d="M823 14q-29 -14 -95 -26.5t-159 -12.5q-178 0 -278.5 98t-100.5 279v377h-161v295h161v201l420 116v-317h213v-295h-213v-307q0 -135 107 -135q50 0 106 22v-295zM697 -107l-201 -364h-220l63 364h358z" />
    <glyph glyph-name="uni021C" unicode="&#x21c;" horiz-adv-x="1225" 
d="M61 -455v370q98 -27 238 -27q202 0 314 78.5t112 221.5q0 98 -56.5 149t-156.5 51q-107 0 -226 -40v327l125 35q251 70 251 259q0 80 -60 129t-158 49q-172 0 -354 -94v325q74 34 193 57t250 23q271 0 416.5 -118t145.5 -329q0 -135 -70.5 -235t-205.5 -153v-5
q344 -103 344 -432q0 -201 -92.5 -350t-276 -233t-418.5 -84q-189 0 -315 26z" />
    <glyph glyph-name="uni021D" unicode="&#x21d;" horiz-adv-x="1168" 
d="M88 -463v314q88 -21 249 -21q162 0 256 56.5t94 152.5q0 137 -204 137q-93 0 -202 -35v302l99 26q129 34 186 72.5t57 97.5q0 98 -172 98q-190 0 -336 -78v326q180 64 433 64q234 0 364.5 -92.5t130.5 -261.5q0 -225 -232 -310v-2q144 -31 226 -125.5t82 -230.5
q0 -245 -206.5 -376.5t-590.5 -131.5q-162 0 -234 18z" />
    <glyph glyph-name="uni021E" unicode="&#x21e;" horiz-adv-x="1645" 
d="M1069 0v535h-496v-535h-432v1434h432v-531h496v531h432v-1434h-432zM1237 1879l-256 -321h-317l-256 321h262l147 -153l148 153h272z" />
    <glyph glyph-name="uni021F" unicode="&#x21f;" horiz-adv-x="1264" 
d="M762 0v584q0 153 -117 153q-57 0 -87 -43.5t-30 -111.5v-582h-426v1516h426v-631h4q55 79 133.5 121.5t168.5 42.5q166 0 253 -106.5t87 -313.5v-629h-412zM1047 1879l-256 -321h-317l-256 321h262l147 -153l148 153h272z" />
    <glyph glyph-name="uni0220" unicode="&#x220;" horiz-adv-x="1626" 
d="M1501 -471h-432v1273q0 147 -56 217.5t-173 70.5q-127 0 -197 -80t-70 -220v-790h-432v1434h427v-200h5q158 224 445 224q231 0 357 -148t126 -422v-1359z" />
    <glyph glyph-name="uni0221" unicode="&#x221;" horiz-adv-x="1454" 
d="M1036 -401q-11 -20 -15.5 -38t-12.5 -42h-267q34 137 105 254q-37 63 -48.5 140t-11.5 171v35h-4q-49 -65 -130 -104.5t-165 -39.5q-130 0 -231 65t-150 181.5t-49 272.5q0 163 59 289t166 196t240 70q63 0 118 -18t92.5 -48t49.5 -61h4v594h426v-1377q0 -53 5 -106
q58 27 103.5 36t96.5 9q147 0 235.5 -74.5t88.5 -196.5q0 -130 -94.5 -204t-270.5 -74q-102 0 -186.5 14.5t-153.5 55.5zM795 543q0 92 -40.5 143t-109.5 51t-112.5 -63.5t-43.5 -169.5q0 -217 150 -217q71 0 113.5 58.5t42.5 170.5v27zM1282 -186q14 -25 45.5 -45.5
t71.5 -20.5q86 0 86 55q0 56 -80 56q-60 0 -123 -45z" />
    <glyph glyph-name="uni0222" unicode="&#x222;" horiz-adv-x="1542" 
d="M332 932q-217 88 -217 315q0 98 44 187h413q-22 -70 -22 -154q0 -87 57.5 -139t161.5 -52q223 0 223 191q0 76 -23 154h414q43 -84 43 -187q0 -106 -58.5 -187t-158.5 -128q140 -61 210.5 -162.5t70.5 -255.5q0 -162 -88.5 -284.5t-254.5 -188.5t-384 -66
q-327 0 -519 139.5t-192 379.5q0 160 70 265.5t210 172.5zM767 730q-125 0 -192 -51.5t-67 -144.5q0 -89 71.5 -140t187.5 -51q121 0 194.5 54t73.5 143q0 87 -74 138.5t-194 51.5z" />
    <glyph glyph-name="uni0223" unicode="&#x223;" horiz-adv-x="1298" 
d="M308 942q-219 117 -219 353q0 114 37 221h412q-20 -110 -20 -199q0 -118 35 -181.5t103 -63.5q66 0 101 61.5t35 183.5q0 89 -20 199h408q39 -110 39 -216q0 -114 -57 -205t-169 -153q248 -145 248 -435q0 -159 -72 -280.5t-208 -186.5t-317 -65q-274 0 -430.5 139.5
t-156.5 388.5q0 286 251 439zM809 528q0 103 -41 156t-117 53q-78 0 -120 -56.5t-42 -162.5q0 -231 162 -231q158 0 158 241z" />
    <glyph glyph-name="uni0224" unicode="&#x224;" horiz-adv-x="1313" 
d="M616 338h205q237 0 364.5 -108t127.5 -306q0 -154 -56 -272h-362q16 44 25.5 82t9.5 88q0 92 -53 135t-163 43h-653v303l662 793h-621v338h1141v-301z" />
    <glyph glyph-name="uni0225" unicode="&#x225;" horiz-adv-x="1076" 
d="M666 296q204 0 309.5 -93.5t105.5 -270.5q0 -131 -49 -241h-326q35 88 35 151q0 158 -195 158h-521v197l460 532h-417v295h929v-242l-412 -486h81z" />
    <glyph glyph-name="uni0226" unicode="&#x226;" horiz-adv-x="1536" 
d="M1040 0l-63 264h-428l-68 -264h-467l494 1434h536l465 -1434h-469zM768 1122h-10q-2 -24 -14 -79t-121 -472h274l-100 390q-21 86 -29 161zM961 1731q0 -73 -53 -118.5t-139 -45.5q-84 0 -138.5 47t-54.5 117q0 72 53.5 115.5t139.5 43.5q87 0 139.5 -43.5t52.5 -115.5z
" />
    <glyph glyph-name="uni0227" unicode="&#x227;" horiz-adv-x="1149" 
d="M670 0v156h-4q-102 -181 -312 -181q-145 0 -227 86t-82 230q0 302 371 350l254 33q0 50 -45 82t-121 32q-172 0 -363 -98v277q83 36 208 59t214 23q261 0 378.5 -111.5t117.5 -372.5v-565h-389zM418 348q0 -42 26.5 -69t75.5 -27q67 0 108.5 50t41.5 128v39l-144 -20
q-108 -18 -108 -101zM772 1356q0 -73 -53 -118.5t-139 -45.5q-84 0 -138.5 47t-54.5 117q0 72 53.5 115.5t139.5 43.5q87 0 139.5 -43.5t52.5 -115.5z" />
    <glyph glyph-name="uni0228" unicode="&#x228;" horiz-adv-x="1130" 
d="M667 0v-66q195 -14 195 -178q0 -111 -90.5 -170t-257.5 -59q-53 0 -115 6v172q37 -8 82 -8q57 0 86 16.5t29 42.5q0 31 -23 45.5t-80 14.5h-18l-21 -2v186h-313v1434h893v-338h-461v-209h433v-338h-433v-211h494v-338h-400z" />
    <glyph glyph-name="uni0229" unicode="&#x229;" horiz-adv-x="1147" 
d="M830 -244q0 -111 -90.5 -170t-257.5 -59q-53 0 -115 6v172q37 -8 82 -8q57 0 86 16.5t29 42.5q0 31 -23 45.5t-80 14.5h-18l-21 -2v185q-177 46 -271 174t-94 316q0 165 65.5 291t194 197.5t283.5 71.5q159 0 272 -62t171.5 -174t58.5 -262v-160h-633q11 -66 76 -103.5
t172 -37.5q149 0 282 57v-270q-147 -59 -364 -62v-41q195 -14 195 -178zM725 614q0 177 -127 177q-54 0 -89.5 -49.5t-41.5 -127.5h258z" />
    <glyph glyph-name="uni022A" unicode="&#x22a;" horiz-adv-x="1567" 
d="M1505 721q0 -216 -93 -386.5t-260 -265t-374 -94.5q-202 0 -367.5 91.5t-257.5 257t-92 374.5q0 219 93 394t261 270.5t382 95.5q206 0 368.5 -91.5t251 -261t88.5 -384.5zM1047 709q0 177 -68 279t-186 102q-129 0 -201 -98t-72 -277q0 -175 71.5 -273t194.5 -98
q75 0 135 44t93 126t33 195zM1180 2157v-223h-795v223h795zM340 1711q0 73 52 118.5t140 45.5q84 0 138.5 -46.5t54.5 -117.5t-53 -115t-140 -44t-139.5 44.5t-52.5 114.5zM841 1711q0 71 51.5 117.5t141.5 46.5q85 0 138.5 -47.5t53.5 -116.5q0 -71 -53 -115t-139 -44
q-87 0 -140 43.5t-53 115.5z" />
    <glyph glyph-name="uni022B" unicode="&#x22b;" horiz-adv-x="1298" 
d="M1241 530q0 -259 -156.5 -407t-437.5 -148q-279 0 -434.5 144.5t-155.5 398.5q0 163 73 283t208 184t311 64q182 0 315.5 -67t205 -186t71.5 -266zM809 528q0 209 -160 209t-160 -219q0 -231 162 -231q158 0 158 241zM1046 1780v-223h-795v223h795zM206 1334
q0 73 52 118.5t140 45.5q84 0 138.5 -46.5t54.5 -117.5t-53 -115t-140 -44t-139.5 44.5t-52.5 114.5zM707 1334q0 71 51.5 117.5t141.5 46.5q85 0 138.5 -47.5t53.5 -116.5q0 -71 -53 -115t-139 -44q-87 0 -140 43.5t-53 115.5z" />
    <glyph glyph-name="uni022C" unicode="&#x22c;" horiz-adv-x="1567" 
d="M1505 721q0 -216 -93 -386.5t-260 -265t-374 -94.5q-202 0 -367.5 91.5t-257.5 257t-92 374.5q0 219 93 394t261 270.5t382 95.5q206 0 368.5 -91.5t251 -261t88.5 -384.5zM1047 709q0 177 -68 279t-186 102q-129 0 -201 -98t-72 -277q0 -175 71.5 -273t194.5 -98
q75 0 135 44t93 126t33 195zM1181 2196v-223h-795v223h795zM1181 1904q0 -165 -60 -252.5t-173 -87.5q-88 0 -170 49q-34 20 -62.5 38t-60.5 18q-38 0 -60 -31t-22 -88h-174q0 170 61.5 255t167.5 85q35 0 63.5 -5.5t51.5 -14t74 -38.5q29 -17 55 -32t57 -15q34 0 55 29.5
t21 89.5h176z" />
    <glyph glyph-name="uni022D" unicode="&#x22d;" horiz-adv-x="1298" 
d="M1241 530q0 -259 -156.5 -407t-437.5 -148q-279 0 -434.5 144.5t-155.5 398.5q0 163 73 283t208 184t311 64q182 0 315.5 -67t205 -186t71.5 -266zM809 528q0 209 -160 209t-160 -219q0 -231 162 -231q158 0 158 241zM1047 1828v-223h-795v223h795zM1047 1536
q0 -165 -60 -252.5t-173 -87.5q-88 0 -170 49q-34 20 -62.5 38t-60.5 18q-38 0 -60 -31t-22 -88h-174q0 170 61.5 255t167.5 85q35 0 63.5 -5.5t51.5 -14t74 -38.5q29 -17 55 -32t57 -15q34 0 55 29.5t21 89.5h176z" />
    <glyph glyph-name="uni022E" unicode="&#x22e;" horiz-adv-x="1567" 
d="M1505 721q0 -216 -93 -386.5t-260 -265t-374 -94.5q-202 0 -367.5 91.5t-257.5 257t-92 374.5q0 219 93 394t261 270.5t382 95.5q206 0 368.5 -91.5t251 -261t88.5 -384.5zM1047 709q0 177 -68 279t-186 102q-129 0 -201 -98t-72 -277q0 -175 71.5 -273t194.5 -98
q75 0 135 44t93 126t33 195zM976 1731q0 -73 -53 -118.5t-139 -45.5q-84 0 -138.5 47t-54.5 117q0 72 53.5 115.5t139.5 43.5q87 0 139.5 -43.5t52.5 -115.5z" />
    <glyph glyph-name="uni022F" unicode="&#x22f;" horiz-adv-x="1298" 
d="M1241 530q0 -259 -156.5 -407t-437.5 -148q-279 0 -434.5 144.5t-155.5 398.5q0 163 73 283t208 184t311 64q182 0 315.5 -67t205 -186t71.5 -266zM809 528q0 209 -160 209t-160 -219q0 -231 162 -231q158 0 158 241zM842 1356q0 -73 -53 -118.5t-139 -45.5
q-84 0 -138.5 47t-54.5 117q0 72 53.5 115.5t139.5 43.5q87 0 139.5 -43.5t52.5 -115.5z" />
    <glyph glyph-name="uni0230" unicode="&#x230;" horiz-adv-x="1567" 
d="M1505 721q0 -216 -93 -386.5t-260 -265t-374 -94.5q-202 0 -367.5 91.5t-257.5 257t-92 374.5q0 219 93 394t261 270.5t382 95.5q206 0 368.5 -91.5t251 -261t88.5 -384.5zM1047 709q0 177 -68 279t-186 102q-129 0 -201 -98t-72 -277q0 -175 71.5 -273t194.5 -98
q75 0 135 44t93 126t33 195zM1181 2159v-223h-795v223h795zM591 1713q0 71 51.5 117.5t141.5 46.5q85 0 138.5 -47.5t53.5 -116.5q0 -71 -53 -115t-139 -44q-87 0 -140 43.5t-53 115.5z" />
    <glyph glyph-name="uni0231" unicode="&#x231;" horiz-adv-x="1298" 
d="M1241 530q0 -259 -156.5 -407t-437.5 -148q-279 0 -434.5 144.5t-155.5 398.5q0 163 73 283t208 184t311 64q182 0 315.5 -67t205 -186t71.5 -266zM809 528q0 209 -160 209t-160 -219q0 -231 162 -231q158 0 158 241zM1047 1780v-223h-795v223h795zM457 1334
q0 71 51.5 117.5t141.5 46.5q85 0 138.5 -47.5t53.5 -116.5q0 -71 -53 -115t-139 -44q-87 0 -140 43.5t-53 115.5z" />
    <glyph glyph-name="uni0232" unicode="&#x232;" horiz-adv-x="1331" 
d="M874 498v-498h-432v492l-442 942h496l155 -451q16 -46 22.5 -80t14.5 -69h4q13 91 29 141l153 459h457zM358 1586v223h655v-223h-655z" />
    <glyph glyph-name="uni0233" unicode="&#x233;" horiz-adv-x="1176" 
d="M301 -481q-60 0 -129 10.5t-123 30.5v321q25 -19 74.5 -35t93.5 -16q119 0 158 94l33 80l-428 1020h471l124 -494q36 -138 39 -186h4q3 22 8.5 49t155.5 631h414l-377 -1053q-85 -242 -210.5 -347t-307.5 -105zM281 1211v223h655v-223h-655z" />
    <glyph glyph-name="uni0234" unicode="&#x234;" horiz-adv-x="770" 
d="M352 -401q-11 -20 -15.5 -38t-12.5 -42h-267q34 137 105 254q-37 63 -48.5 140t-11.5 171v1432h426v-1377q0 -64 4 -106q64 28 109 36.5t92 8.5q147 0 235.5 -74.5t88.5 -196.5q0 -130 -94.5 -204t-270.5 -74q-102 0 -186.5 14.5t-153.5 55.5zM598 -186
q14 -25 45.5 -45.5t71.5 -20.5q86 0 86 55q0 56 -80 56q-60 0 -123 -45z" />
    <glyph glyph-name="uni0235" unicode="&#x235;" horiz-adv-x="1434" 
d="M1016 -401q-11 -20 -16 -38t-13 -42h-266q20 79 42.5 134t61.5 120q-37 63 -48 140t-11 171v475q0 95 -28.5 136.5t-92.5 41.5q-55 0 -86 -43t-31 -110v-584h-426v1024h426v-160h4q51 88 137 136.5t187 48.5q336 0 336 -424v-486q0 -64 4 -106q64 28 109 36.5t92 8.5
q148 0 235.5 -75t87.5 -196q0 -132 -94.5 -205t-269.5 -73q-102 0 -186.5 14.5t-153.5 55.5zM1260 -186q14 -25 45 -45.5t71 -20.5q86 0 86 55q0 56 -80 56q-59 0 -122 -45z" />
    <glyph glyph-name="uni0236" unicode="&#x236;" horiz-adv-x="858" 
d="M440 -401q-11 -20 -15.5 -38t-12.5 -42h-267q34 137 105 254q-37 63 -48.5 140t-11.5 171v645h-161v295h161v201l420 116v-317h213v-295h-213v-569q0 -81 11 -127q58 27 103.5 36t96.5 9q147 0 235.5 -74.5t88.5 -196.5q0 -130 -94.5 -204t-270.5 -74q-102 0 -186.5 14.5
t-153.5 55.5zM686 -186q14 -25 45.5 -45.5t71.5 -20.5q86 0 86 55q0 56 -80 56q-60 0 -123 -45z" />
    <glyph glyph-name="uni0237" unicode="&#x237;" horiz-adv-x="631" 
d="M528 -10q0 -135 -53 -246.5t-156 -168t-245 -56.5q-78 0 -170 30v312q56 -31 102 -31q53 0 74.5 35.5t21.5 107.5v1051h426v-1034z" />
    <glyph glyph-name="uni0238" unicode="&#x238;" horiz-adv-x="1999" 
d="M1941 543q0 -168 -55.5 -297.5t-157.5 -200t-231 -70.5q-186 0 -281 131h-4v-106h-426v119h-4q-51 -67 -133 -105.5t-162 -38.5q-131 0 -231 64.5t-149.5 180.5t-49.5 274q0 163 59 289t166 196t240 70q61 0 114.5 -17.5t93.5 -48t52 -61.5h4v594h426v-631h4
q50 76 135.5 120t188.5 44q194 0 297.5 -129t103.5 -377zM1509 530q0 103 -39.5 155t-113.5 52q-65 0 -108.5 -54.5t-43.5 -141.5v-62q0 -88 39 -140t105 -52q77 0 119 63.5t42 179.5zM795 543q0 92 -40.5 143t-109.5 51t-112.5 -63.5t-43.5 -169.5q0 -217 150 -217
q72 0 114 58.5t42 170.5v27z" />
    <glyph glyph-name="uni0239" unicode="&#x239;" horiz-adv-x="1999" 
d="M1941 543q0 -168 -57 -297t-161 -200t-234 -71q-180 0 -273 131h-4v-577h-426v588h-4q-48 -64 -129.5 -103t-167.5 -39q-127 0 -223.5 60t-150.5 174.5t-54 282.5q0 166 60 293t167 195.5t236 68.5q175 0 262 -131h4v106h426v-139h4q51 77 132 120.5t184 43.5
q198 0 303.5 -132t105.5 -374zM795 539q0 93 -40.5 145.5t-107.5 52.5q-70 0 -114 -64t-44 -171q0 -99 37 -157t111 -58t116 58t42 161v33zM1509 530q0 97 -37.5 152t-115.5 55q-68 0 -110 -58t-42 -159v-20q0 -97 36 -155t108 -58q77 0 119 63.5t42 179.5z" />
    <glyph glyph-name="uni023A" unicode="&#x23a;" horiz-adv-x="1536" 
d="M1432 1583l-284 -472l361 -1111h-469l-63 264h-338l-248 -414h-245l90 150h-222l494 1434h536l20 -63l128 212h240zM768 1122h-10q-2 -24 -14 -78.5t-89 -350.5l148 245q-27 103 -35 184zM897 571l-22 85l-51 -85h73z" />
    <glyph glyph-name="uni023B" unicode="&#x23b;" horiz-adv-x="1290" 
d="M1346 1583l-138 -230v-339q-67 41 -167 61l-395 -656q98 -75 245 -75q157 0 317 80v-385q-178 -64 -411 -64q-212 0 -372 75l-120 -200h-246l194 321q-99 98 -145.5 230.5t-46.5 282.5q0 227 98 404t277 273.5t412 96.5q100 0 176 -10l82 135h240zM518 715q0 -46 8 -92
l277 458q-137 -27 -211 -122t-74 -244z" />
    <glyph glyph-name="uni023C" unicode="&#x23c;" horiz-adv-x="1014" 
d="M1139 1231l-193 -313v-244q-39 30 -119 51l-247 -401q59 -37 147 -37q119 0 219 57v-315q-31 -19 -111.5 -36.5t-220.5 -17.5q-118 0 -226 38l-132 -214h-262l206 332q-143 143 -143 358q0 175 75 301.5t212.5 192.5t319.5 66q57 0 105 -4l116 186h254z" />
    <glyph glyph-name="uni023D" unicode="&#x23d;" horiz-adv-x="1108" 
d="M141 0v666h-104v221h104v547h432v-547h119v-221h-119v-328h494v-338h-926z" />
    <glyph glyph-name="uni023E" unicode="&#x23e;" horiz-adv-x="1303" 
d="M1294 1583l-90 -149h68v-338h-270l-136 -227v-869h-434v146l-178 -296h-246l424 702v544h-401v338h934l90 149h239z" />
    <glyph glyph-name="uni023F" unicode="&#x23f;" horiz-adv-x="989" 
d="M934 340q0 -160 -107.5 -252.5t-314.5 -105.5q26 -19 41 -37q56 -62 109 -62q50 0 102 21v-236q-85 -35 -176 -35q-79 0 -138.5 37t-111.5 127q-52 88 -70.5 113.5t-37 43.5t-37 30t-97.5 43v295q189 -84 316 -84q125 0 125 65q0 21 -15 34t-58 30.5t-108 38.5
q-136 43 -198 114t-62 185q0 159 126.5 251.5t355.5 92.5q134 0 284 -39v-287q-58 25 -133 44t-131 19q-42 0 -67 -14t-25 -39q0 -29 27 -47t108 -43q160 -47 226.5 -119t66.5 -184z" />
    <glyph glyph-name="uni0240" unicode="&#x240;" horiz-adv-x="1065" 
d="M530 238q105 -74 179 -148q72 -72 120 -98.5t93 -26.5q49 0 122 25v-330q-94 -27 -186 -27q-82 0 -149.5 22t-127 62t-145.5 131q-69 74 -103.5 99.5t-72 39t-80.5 13.5h-141v207l457 522h-428v295h929v-242z" />
    <glyph glyph-name="uni0241" unicode="&#x241;" horiz-adv-x="1231" 
d="M1182 1108q0 -123 -57 -220.5t-214 -211.5q-83 -62 -110 -106t-27 -111v-459h-426v518q0 109 45.5 193.5t143.5 160.5q122 98 144.5 121t32 45t9.5 47q0 101 -215 101q-105 0 -222 -30t-223 -79v383q232 80 533 80q286 0 436 -110t150 -322z" />
    <glyph glyph-name="uni0242" unicode="&#x242;" horiz-adv-x="932" 
d="M29 129v295h187v70q0 82 26.5 145.5t89.5 113.5q97 77 117.5 106t20.5 69q0 34 -32 57.5t-83 23.5q-157 0 -326 -117v355q91 38 191.5 59.5t193.5 21.5q461 0 461 -353q0 -97 -47.5 -179t-159.5 -163q-47 -35 -71.5 -60.5t-34.5 -50t-10 -75.5v-23h245v-295h-768z" />
    <glyph glyph-name="uni0243" unicode="&#x243;" horiz-adv-x="1415" 
d="M15 498h126v936h609q571 0 571 -347q0 -75 -36 -137.5t-109.5 -109.5t-161.5 -64v-4q102 -12 183 -60.5t125 -121t44 -150.5q0 -211 -148 -325.5t-423 -114.5h-654v378h-126v120zM862 1012q0 133 -209 133h-80v-271h125q72 0 118 38.5t46 99.5zM907 442q0 62 -45 102
t-119 40h-170v-86h165v-120h-165v-87h144q88 0 139 40.5t51 110.5z" />
    <glyph glyph-name="uni0244" unicode="&#x244;" horiz-adv-x="1516" 
d="M1391 655q0 -345 -157.5 -512.5t-485.5 -167.5q-306 0 -464.5 167.5t-158.5 504.5v28h-113v195h113v564h434v-564h397v564h435v-564h113v-195h-113v-20zM758 344q97 0 147.5 70t50.5 207v54h-397v-44q0 -138 51.5 -212.5t147.5 -74.5z" />
    <glyph glyph-name="uni0245" unicode="&#x245;" horiz-adv-x="1536" 
d="M1040 0l-245 961q-14 55 -19 90l-8 55h-10q-6 -34 -16.5 -81.5t-260.5 -1024.5h-467l494 1434h536l465 -1434h-469z" />
    <glyph glyph-name="uni0246" unicode="&#x246;" horiz-adv-x="1130" 
d="M1215 1583l-181 -302v-185h-111l-126 -209h209v-338h-412l-21 -36v-175h494v-338h-802l-90 -150h-246l212 351v1233h745l90 149h239zM573 916l109 180h-109v-180z" />
    <glyph glyph-name="uni0247" unicode="&#x247;" horiz-adv-x="1147" 
d="M150 -201l114 268q-105 69 -156 177.5t-51 244.5q0 164 65 289.5t193 198t285 72.5q40 0 80 -4l79 186h240l-108 -255q102 -62 156.5 -173.5t54.5 -251.5v-160h-457l-53 -124q51 -17 125 -17q149 0 282 57v-270q-155 -62 -376 -62q-81 0 -148 12l-79 -188h-246zM467 614
h29l74 173q-45 -12 -72.5 -62.5t-30.5 -110.5z" />
    <glyph glyph-name="uni0248" unicode="&#x248;" horiz-adv-x="1063" 
d="M348 887h141v547h433v-547h141v-295h-142q-5 -310 -161 -463.5t-457 -153.5q-58 0 -132 14.5t-130 33.5v399q45 -30 109.5 -54t107.5 -24q215 0 229 248h-139v295z" />
    <glyph glyph-name="uni0249" unicode="&#x249;" horiz-adv-x="692" 
d="M584 1300q0 -90 -65.5 -146t-172.5 -56q-104 0 -170.5 58t-66.5 144q0 88 64.5 142.5t172.5 54.5q107 0 172.5 -54.5t65.5 -142.5zM559 -10q0 -135 -53 -246.5t-156 -168t-245 -56.5q-78 0 -170 30v312q56 -31 102 -31q53 0 74.5 35.5t21.5 107.5v394h-133v278h133v379
h426v-379h133v-278h-133v-377z" />
    <glyph glyph-name="uni024A" unicode="&#x24a;" horiz-adv-x="1642" 
d="M676 -25q-177 0 -317.5 88t-219 251.5t-78.5 379.5q0 225 84.5 398.5t238.5 269.5t345 96q118 0 212.5 -49t148.5 -137v162h411v-1294q0 -152 29 -209t104 -57q53 0 97 24v-352q-94 -27 -221 -27q-441 0 -441 468v171q-131 -183 -393 -183zM805 1090q-132 0 -208.5 -99.5
t-76.5 -273.5q0 -176 75 -274.5t204 -98.5q127 0 198.5 72.5t71.5 204.5v202q0 130 -69.5 198.5t-194.5 68.5z" />
    <glyph glyph-name="uni024B" unicode="&#x24b;" horiz-adv-x="1315" 
d="M786 117h-4q-47 -64 -129.5 -103t-165.5 -39q-131 0 -231 64.5t-149.5 180.5t-49.5 274q0 162 58.5 288.5t166 196.5t240.5 70q83 0 151 -33.5t109 -97.5h4v106h426v-1046q0 -135 88 -135q41 0 93 25v-310q-78 -39 -228 -39q-178 0 -278.5 98.5t-100.5 278.5v221z
M795 543q0 92 -40.5 143t-109.5 51t-112.5 -63.5t-43.5 -169.5q0 -217 150 -217q72 0 114 58.5t42 170.5v27z" />
    <glyph glyph-name="uni024C" unicode="&#x24c;" horiz-adv-x="1397" 
d="M0 807h141v627h574q301 0 444.5 -98.5t143.5 -295.5q0 -148 -83.5 -248t-248.5 -145v-4q91 -28 151.5 -91t108.5 -187l141 -365h-487l-107 309q-30 91 -80.5 143t-107.5 52h-17v-504h-432v504h-141v303zM844 979q0 72 -44 114t-138 42h-89v-328h78q87 0 140 49t53 123z
" />
    <glyph glyph-name="uni024D" unicode="&#x24d;" horiz-adv-x="932" 
d="M911 659q-24 11 -65 20t-68 9q-206 0 -211 -227h155v-221h-155v-240h-426v240h-141v221h141v563h426v-180h4q39 97 110.5 147.5t168.5 50.5q35 0 61 -12v-371z" />
    <glyph glyph-name="uni024E" unicode="&#x24e;" horiz-adv-x="1331" 
d="M874 498v-498h-432v492l-257 547h-185v195h94l-94 200h490l66 -200h250l68 200h457l-98 -200h98v-195h-193zM681 834h5q7 39 14.5 72.5t39.5 132.5h-119q40 -119 60 -205z" />
    <glyph glyph-name="uni024F" unicode="&#x24f;" horiz-adv-x="1216" 
d="M321 -481q-60 0 -129 10.5t-123 30.5v321q25 -19 74.5 -35t93.5 -16q119 0 158 94l33 80l-234 558h-194v221h101l-101 241h471l60 -241h211l60 241h414l-87 -241h87v-221h-166l-211 -591q-85 -242 -210.5 -347t-307.5 -105zM634 344h4l17 83l32 135h-100q45 -178 47 -218
z" />
    <glyph glyph-name="uni0250" unicode="&#x250;" horiz-adv-x="1149" 
d="M479 1024v-156h4q102 181 312 181q145 0 227 -86t82 -230q0 -302 -371 -350l-254 -33q0 -50 45 -82t121 -32q172 0 363 98v-277q-83 -36 -208 -59t-214 -23q-261 0 -378.5 111.5t-117.5 372.5v565h389zM731 676q0 42 -26.5 69t-75.5 27q-67 0 -108.5 -50t-41.5 -128v-39
l144 20q108 18 108 101z" />
    <glyph glyph-name="uni0251" unicode="&#x251;" horiz-adv-x="1315" 
d="M786 0v117h-4q-48 -64 -129.5 -103t-167.5 -39q-127 0 -223.5 60t-150.5 174.5t-54 282.5q0 166 60 293t167 195.5t236 68.5q175 0 262 -131h4v106h426v-1024h-426zM795 539q0 93 -40.5 145.5t-107.5 52.5q-70 0 -114 -64t-44 -171q0 -99 37 -157t111 -58t116 58t42 161
v33z" />
    <glyph glyph-name="uni0252" unicode="&#x252;" horiz-adv-x="1315" 
d="M1257 543q0 -168 -57 -297t-161 -200t-234 -71q-180 0 -273 131h-4v-106h-426v1024h426v-139h4q51 77 132 120.5t184 43.5q198 0 303.5 -132t105.5 -374zM825 530q0 97 -37.5 152t-115.5 55q-68 0 -110 -58t-42 -159v-20q0 -97 36 -155t108 -58q77 0 119 63.5t42 179.5z
" />
    <glyph glyph-name="uni0253" unicode="&#x253;" horiz-adv-x="1315" 
d="M913 1200q-101 29 -181 29q-100 0 -152 -54t-52 -151v-139h4q50 76 135.5 120t188.5 44q194 0 297.5 -129t103.5 -377q0 -168 -55.5 -297.5t-157.5 -200t-231 -70.5q-186 0 -281 131h-4v-106h-426v1043q0 497 528 497q143 0 283 -27v-313zM825 530q0 103 -39.5 155
t-113.5 52q-65 0 -108.5 -54.5t-43.5 -141.5v-62q0 -88 39 -140t105 -52q77 0 119 63.5t42 179.5z" />
    <glyph glyph-name="uni0254" unicode="&#x254;" horiz-adv-x="1014" 
d="M68 995q41 24 129 39t203 15q162 0 289.5 -65.5t197.5 -183.5t70 -265q0 -176 -74.5 -301.5t-212.5 -192t-320 -66.5q-100 0 -179.5 13t-102.5 30v332q32 -25 92 -44t111 -19q125 0 189.5 59.5t64.5 167.5q0 106 -63.5 164.5t-174.5 58.5q-119 0 -219 -57v315z" />
    <glyph glyph-name="uni0255" unicode="&#x255;" horiz-adv-x="1062" 
d="M436 3q-20 -69 -24 -144h-222q8 120 51 237q-184 156 -184 393q0 261 161 410.5t446 149.5q175 0 282 -43v-332q-40 29 -96.5 46t-106.5 17q-128 0 -191 -61t-63 -168q0 -49 14 -87q102 87 232 87q128 0 213.5 -70.5t85.5 -179.5q0 -123 -108.5 -203t-282.5 -80
q-131 0 -207 28zM599 251q44 -42 119 -42q36 0 62.5 13t26.5 40q0 45 -76 45q-78 0 -132 -56z" />
    <glyph glyph-name="uni0256" unicode="&#x256;" horiz-adv-x="1315" 
d="M786 -104v223h-4q-51 -67 -133 -105.5t-162 -38.5q-131 0 -231 64.5t-149.5 180.5t-49.5 274q0 163 59 289t166 196t240 70q63 0 116.5 -18t93 -48.5t50.5 -60.5h4v594h426v-1538q0 -135 88 -135q41 0 93 25v-310q-78 -39 -228 -39q-178 0 -278.5 98t-100.5 279zM795 543
q0 92 -40.5 143t-109.5 51t-112.5 -63.5t-43.5 -169.5q0 -217 150 -217q71 0 113.5 58.5t42.5 170.5v27z" />
    <glyph glyph-name="uni0257" unicode="&#x257;" horiz-adv-x="1315" 
d="M786 1165q0 180 100.5 278.5t278.5 98.5q127 0 228 -39v-310q-52 25 -93 25q-88 0 -88 -135v-1083h-426v119h-4q-51 -67 -133 -105.5t-162 -38.5q-131 0 -231 64.5t-149.5 180.5t-49.5 274q0 163 59 289t166 196t240 70q61 0 114.5 -17.5t93.5 -48t52 -61.5h4v243z
M795 543q0 92 -40.5 143t-109.5 51t-112.5 -63.5t-43.5 -169.5q0 -217 150 -217q72 0 114 58.5t42 170.5v27z" />
    <glyph glyph-name="uni0258" unicode="&#x258;" horiz-adv-x="1147" 
d="M45 391v160q0 150 58 261.5t170.5 174t273.5 62.5q165 0 291.5 -69t189 -188t62.5 -280q0 -249 -151 -393t-415 -144q-221 0 -376 62v270q133 -57 282 -57q106 0 171.5 37.5t76.5 103.5h-633zM680 614q-6 79 -41.5 128t-89.5 49q-127 0 -127 -177h258z" />
    <glyph glyph-name="uni0259" unicode="&#x259;" horiz-adv-x="1147" 
d="M678 633q-11 66 -76 103.5t-172 37.5q-149 0 -282 -57v270q155 62 376 62q268 0 417 -137t149 -377q0 -165 -65.5 -291t-194 -197.5t-283.5 -71.5q-159 0 -272 62t-171.5 174t-58.5 262v160h633zM422 410q0 -177 127 -177q53 0 89 48.5t42 128.5h-258z" />
    <glyph glyph-name="uni025A" unicode="&#x25a;" horiz-adv-x="1397" 
d="M606 734q-44 24 -86 32t-90 8q-149 0 -282 -57v270q155 62 376 62q262 0 411 -132l237 132l27 -86q19 -60 45.5 -88.5t68.5 -28.5t84 21v-198q-56 -26 -126 -26q-137 0 -194 109l-22 -12q35 -94 35 -205q0 -165 -65.5 -291t-194 -197.5t-283.5 -71.5q-219 0 -343.5 108.5
t-158.5 345.5zM422 392q23 -159 127 -159q65 0 100 66t35 183v16l-4 37z" />
    <glyph glyph-name="uni025B" unicode="&#x25b;" horiz-adv-x="1023" 
d="M941 23q-165 -48 -402 -48q-236 0 -356.5 73.5t-120.5 217.5q0 102 56 168t159 94v4q-83 24 -130.5 86t-47.5 148q0 138 119.5 210.5t347.5 72.5q171 0 332 -39v-265l-62 19q-91 27 -178 27q-57 0 -92 -19.5t-35 -56.5q0 -86 160 -86h162v-223h-197q-74 0 -118 -20
t-44 -62q0 -91 166 -91q78 0 147 18t134 40v-268z" />
    <glyph glyph-name="uni025C" unicode="&#x25c;" horiz-adv-x="1040" 
d="M984 299q0 -117 -64 -184.5t-191 -100t-316 -32.5q-173 0 -340 47v264q148 -57 280 -57q102 0 145.5 18.5t43.5 62.5q0 52 -38.5 72.5t-145.5 20.5h-197v227h201q87 0 122 20t35 68q0 40 -37 57t-122 17q-119 0 -248 -45v247q180 48 348 48q265 0 383.5 -63.5
t118.5 -209.5q0 -93 -67 -156.5t-195 -84.5v-3q136 -10 210 -71.5t74 -161.5z" />
    <glyph glyph-name="uni025D" unicode="&#x25d;" horiz-adv-x="1329" 
d="M993 299q0 -117 -64 -184.5t-191 -100t-316 -32.5q-173 0 -340 47v264q150 -57 280 -57q102 0 145.5 18.5t43.5 62.5q0 52 -38.5 72.5t-145.5 20.5h-197v227h201q87 0 122 20t35 68q0 40 -37 57t-122 17q-119 0 -248 -45v247q180 48 348 48q193 0 309.5 -33.5
t162.5 -113.5l163 147l27 -86q19 -60 45.5 -88.5t68.5 -28.5t84 21v-198q-56 -26 -126 -26q-122 0 -179 89l-86 -78q-100 -92 -229 -119v-3q136 -10 210 -71.5t74 -161.5z" />
    <glyph glyph-name="uni025E" unicode="&#x25e;" horiz-adv-x="1337" 
d="M996 535v-3q143 -11 213.5 -74.5t70.5 -158.5q0 -159 -155 -241.5t-430 -82.5q-307 0 -472.5 140t-165.5 403q0 254 169 392.5t474 138.5q267 0 412.5 -72t145.5 -210q0 -94 -67.5 -153t-194.5 -79zM645 410v227h24q78 0 112 20.5t34 67.5q0 74 -108 74q-99 0 -158.5 -75
t-59.5 -212q0 -135 57 -205.5t168 -70.5q55 0 89.5 22t34.5 59q0 36 -16.5 55.5t-47.5 28.5t-122 9h-7z" />
    <glyph glyph-name="uni025F" unicode="&#x25f;" horiz-adv-x="692" 
d="M559 -10q0 -135 -53 -246.5t-156 -168t-245 -56.5q-78 0 -170 30v312q56 -31 102 -31q53 0 74.5 35.5t21.5 107.5v394h-133v278h133v379h426v-379h133v-278h-133v-377z" />
    <glyph glyph-name="uni0260" unicode="&#x260;" horiz-adv-x="1315" 
d="M1212 143q0 -300 -188.5 -462t-538.5 -162q-93 0 -181.5 14.5t-133.5 34.5v334q59 -36 144.5 -62t158.5 -26q143 0 229 69t86 183v63h-4q-46 -70 -126.5 -112t-172.5 -42q-198 0 -313 137.5t-115 379.5q0 166 60 293t167 195.5t236 68.5q177 0 264 -131h4v247
q0 179 98.5 278t278.5 99q127 0 228 -39v-310q-52 25 -93 25q-88 0 -88 -135v-940zM795 541q0 90 -40.5 143t-107.5 53q-72 0 -115 -64t-43 -171q0 -215 150 -215q73 0 114.5 59.5t41.5 159.5v35z" />
    <glyph glyph-name="uni0261" unicode="&#x261;" horiz-adv-x="1315" 
d="M1212 143q0 -295 -185.5 -459.5t-541.5 -164.5q-96 0 -186 15t-129 34v334q64 -40 150 -64t153 -24q143 0 229 69t86 183v63h-4q-46 -70 -126.5 -112t-172.5 -42q-198 0 -313 137.5t-115 379.5q0 166 60 293t167 195.5t236 68.5q177 0 264 -131h4v106h424v-881zM795 541
q0 90 -40.5 143t-107.5 53q-72 0 -115 -64t-43 -171q0 -99 36 -157t114 -58q73 0 114.5 59.5t41.5 159.5v35z" />
    <glyph glyph-name="uni0262" unicode="&#x262;" horiz-adv-x="1282" 
d="M1202 61q-229 -86 -522 -86q-291 0 -457 136t-166 378q0 272 170.5 416t497.5 144q189 0 385 -39v-325q-172 55 -350 55q-129 0 -200 -63t-71 -181t62 -182t174 -64q32 0 57 5v130h-163v233h583v-557z" />
    <glyph glyph-name="uni0263" unicode="&#x263;" horiz-adv-x="1248" 
d="M800 1024h448l-408 -797l50 -82q56 -91 83 -165t27 -151q0 -146 -100.5 -228t-275.5 -82t-275.5 82t-100.5 228q0 75 26 148t84 168l50 82l-408 797h448l176 -428zM624 15q-60 -88 -60 -144q0 -76 60 -76t60 76q0 56 -60 144z" />
    <glyph glyph-name="uni0264" unicode="&#x264;" horiz-adv-x="1186" 
d="M1186 704q-68 33 -156 33q-102 0 -200 -61q157 -184 157 -357q0 -153 -110.5 -248.5t-292.5 -95.5q-183 0 -284 91.5t-101 246.5q0 179 155 364q-38 27 -87.5 43.5t-98.5 16.5q-96 0 -168 -35v312q90 35 205 35q108 0 197 -37.5t192 -132.5q99 92 189 131t198 39
q122 0 205 -33v-312zM594 483q-79 -75 -79 -146q0 -38 23 -62t58 -24t55.5 24t20.5 61q0 73 -78 147z" />
    <glyph glyph-name="uni0265" unicode="&#x265;" horiz-adv-x="1282" 
d="M754 -471v629h-4q-53 -73 -95.5 -107t-96 -55t-124.5 -21q-168 0 -256 109t-88 322v618h426v-586q0 -151 113 -151q62 0 93.5 41t31.5 116v580h426v-1495h-426z" />
    <glyph glyph-name="uni0266" unicode="&#x266;" horiz-adv-x="1264" 
d="M762 0v584q0 153 -117 153q-57 0 -87 -43t-30 -112v-582h-426v1043q0 497 528 497q143 0 283 -27v-313q-101 29 -181 29q-100 0 -152 -54t-52 -151v-139h4q55 79 133.5 121.5t168.5 42.5q166 0 253 -106.5t87 -313.5v-629h-412z" />
    <glyph glyph-name="uni0267" unicode="&#x267;" horiz-adv-x="1264" 
d="M762 584q0 153 -117 153q-57 0 -87 -43t-30 -112v-582h-426v1043q0 497 528 497q143 0 283 -27v-313q-101 29 -181 29q-100 0 -152 -54t-52 -151v-139h4q55 79 133.5 121.5t168.5 42.5q166 0 253 -106.5t87 -313.5v-664q0 -213 -115 -329.5t-325 -116.5q-78 0 -170 30
v312q56 -31 102 -31q54 0 75 35.5t21 107.5v611z" />
    <glyph glyph-name="uni0268" unicode="&#x268;" horiz-adv-x="692" 
d="M133 0v367h-133v278h133v379h426v-379h133v-278h-133v-367h-426zM584 1300q0 -90 -65.5 -146t-172.5 -56q-104 0 -170.5 58t-66.5 144q0 88 64.5 142.5t172.5 54.5q107 0 172.5 -54.5t65.5 -142.5z" />
    <glyph glyph-name="uni0269" unicode="&#x269;" horiz-adv-x="772" 
d="M748 14q-78 -39 -228 -39q-178 0 -278.5 98t-100.5 279v672h426v-590q0 -135 88 -135q41 0 93 25v-310z" />
    <glyph glyph-name="uni026A" unicode="&#x26a;" horiz-adv-x="824" 
d="M793 0h-762v295h172v434h-172v295h762v-295h-172v-434h172v-295z" />
    <glyph glyph-name="uni026B" unicode="&#x26b;" horiz-adv-x="877" 
d="M712 833q91 0 165 49v-270q-71 -41 -173 -41l-53 4v-575h-426v670q-35 7 -62 7q-90 0 -163 -49v272q71 38 171 38q31 0 54 -4v582h426v-676q41 -7 61 -7z" />
    <glyph glyph-name="uni026C" unicode="&#x26c;" horiz-adv-x="931" 
d="M931 615h-133v-615h-426v615h-36q-158 0 -252 73t-94 199q0 114 65.5 182.5t169.5 68.5q86 0 147 -56v434h426v-623h133v-278zM372 850q-27 88 -92 88q-45 0 -45 -41q0 -47 100 -47h37z" />
    <glyph glyph-name="uni026D" unicode="&#x26d;" horiz-adv-x="631" 
d="M709 -442q-78 -39 -228 -39q-178 0 -278.5 98t-100.5 279v1620h426v-1538q0 -135 88 -135q41 0 93 25v-310z" />
    <glyph glyph-name="uni026E" unicode="&#x26e;" horiz-adv-x="1573" 
d="M102 0v1516h426v-492h919v-242l-274 -312q173 -52 262 -160.5t89 -270.5q0 -239 -167 -379.5t-457 -140.5q-114 0 -198.5 12t-173.5 43v330q95 -44 162 -59t144 -15q258 0 258 209q0 97 -69 155t-196 58h-156v172l274 305h-417v-729h-426z" />
    <glyph glyph-name="uni026F" unicode="&#x26f;" horiz-adv-x="1946" 
d="M516 1024v-590q0 -74 26.5 -110.5t86.5 -36.5q59 0 92 44.5t33 123.5v569h426v-580q0 -157 107 -157q65 0 98 45.5t33 130.5v561h426v-1024h-426v162h-4q-24 -43 -76.5 -87.5t-118.5 -72t-143 -27.5q-109 0 -183.5 43t-124.5 136q-54 -86 -144 -132.5t-200 -46.5
q-161 0 -247 105t-86 303v641h425z" />
    <glyph glyph-name="uni0270" unicode="&#x270;" horiz-adv-x="1946" 
d="M516 1024v-590q0 -74 26.5 -110.5t86.5 -36.5q59 0 92 44.5t33 123.5v569h426v-580q0 -157 107 -157q65 0 98 45.5t33 130.5v561h426v-1495h-426v633h-4q-24 -43 -76.5 -87.5t-118.5 -72t-143 -27.5q-109 0 -183.5 43t-124.5 136q-54 -86 -144 -132.5t-200 -46.5
q-161 0 -247 105t-86 303v641h425z" />
    <glyph glyph-name="uni0271" unicode="&#x271;" horiz-adv-x="1946" 
d="M1430 590q0 75 -26.5 111t-86.5 36t-92.5 -44.5t-32.5 -123.5v-569h-426v580q0 157 -107 157q-131 0 -131 -176v-561h-426v1024h426v-162h4q22 41 75.5 86.5t119.5 73t143 27.5q109 0 183.5 -43t124.5 -136q54 86 144 132.5t200 46.5q161 0 247 -105t86 -303v-676
q0 -214 -118 -330t-334 -116q-78 0 -170 30v312q56 -31 102 -31q54 0 74.5 35.5t20.5 107.5v617z" />
    <glyph glyph-name="uni0272" unicode="&#x272;" horiz-adv-x="1282" 
d="M766 0v559q0 95 -28.5 136.5t-92.5 41.5q-55 0 -86 -43t-31 -110v-614q0 -127 -55.5 -235.5t-158.5 -162t-240 -53.5q-78 0 -170 30v312q56 -31 102 -31q54 0 75 35.5t21 107.5v1051h426v-160h4q51 88 137 136.5t187 48.5q336 0 336 -424v-625h-426z" />
    <glyph glyph-name="uni0273" unicode="&#x273;" horiz-adv-x="1282" 
d="M1192 -22q0 -135 88 -135q41 0 93 25v-310q-78 -39 -228 -39q-178 0 -278.5 98t-100.5 279v663q0 95 -28.5 136.5t-92.5 41.5q-55 0 -86 -43t-31 -110v-584h-426v1024h426v-160h4q51 88 137 136.5t187 48.5q336 0 336 -424v-647z" />
    <glyph glyph-name="uni0274" unicode="&#x274;" horiz-adv-x="1343" 
d="M102 0v1024h401l271 -397q48 -69 75 -127v524h392v-1024h-377l-291 416q-43 64 -82 139v-555h-389z" />
    <glyph glyph-name="uni0275" unicode="&#x275;" horiz-adv-x="1298" 
d="M1241 530q0 -259 -156.5 -407t-437.5 -148q-279 0 -434.5 144.5t-155.5 398.5q0 163 73 283t208 184t311 64q182 0 315.5 -67t205 -186t71.5 -266zM651 267q117 0 147 142h-300l3 -12q18 -67 54 -98.5t96 -31.5zM649 757q-120 0 -149 -132h299q-29 132 -150 132z" />
    <glyph glyph-name="uni0276" unicode="&#x276;" horiz-adv-x="1583" 
d="M848 0q-100 -25 -201 -25q-279 0 -434.5 144.5t-155.5 398.5q0 163 73 283t208 184t311 64q101 0 193 -25h659v-250h-342v-143h322v-238h-322v-143h365v-250h-676zM651 287q49 0 82 12v424q-30 14 -84 14q-160 0 -160 -219q0 -231 162 -231z" />
    <glyph glyph-name="uni0277" unicode="&#x277;" horiz-adv-x="1723" 
d="M861 154h-6q-69 -98 -151.5 -138.5t-202.5 -40.5q-198 0 -321 127.5t-123 340.5q0 186 98 323.5t284.5 210t437.5 72.5q372 0 580.5 -155.5t208.5 -439.5q0 -232 -118.5 -355.5t-347.5 -123.5q-117 0 -198.5 42t-140.5 137zM669 551h385v-76q0 -188 115 -188
q111 0 111 153q0 297 -419 297q-205 0 -311 -75t-106 -216q0 -159 113 -159q112 0 112 188v76z" />
    <glyph glyph-name="uni0278" unicode="&#x278;" horiz-adv-x="1776" 
d="M1724 518q0 -156 -67 -273t-196 -181t-306 -64h-65v-471h-404v471h-65q-176 0 -304.5 64t-197 181t-68.5 273q0 154 65.5 268t191.5 176t304 62h74v451h404v-451h73q265 0 413 -133.5t148 -372.5zM1294 508q0 109 -50 172t-140 63h-14v-462h8q94 0 145 60.5t51 166.5z
M686 743h-14q-89 0 -140 -62t-51 -173q0 -109 51 -168t144 -59h10v462z" />
    <glyph glyph-name="uni0279" unicode="&#x279;" horiz-adv-x="893" 
d="M21 365q24 -11 65 -20t68 -9q211 0 211 244v444h426v-1024h-426v180h-4q-39 -97 -111 -147.5t-168 -50.5q-35 0 -61 12v371z" />
    <glyph glyph-name="uni027A" unicode="&#x27a;" horiz-adv-x="893" 
d="M21 365q24 -11 65 -20t68 -9q211 0 211 244v936h426v-1516h-426v180h-4q-39 -97 -111 -147.5t-168 -50.5q-35 0 -61 12v371z" />
    <glyph glyph-name="uni027B" unicode="&#x27b;" horiz-adv-x="893" 
d="M972 -442q-78 -39 -228 -39q-178 0 -278.5 98t-100.5 279v284h-4q-39 -97 -111 -147.5t-168 -50.5q-35 0 -61 12v371q24 -11 65 -20t68 -9q211 0 211 244v444h426v-1046q0 -135 88 -135q41 0 93 25v-310z" />
    <glyph glyph-name="uni027C" unicode="&#x27c;" horiz-adv-x="893" 
d="M872 659q-24 11 -65 20t-68 9q-211 0 -211 -244v-915h-426v1495h426v-180h4q39 97 111 147.5t168 50.5q35 0 61 -12v-371z" />
    <glyph glyph-name="uni027D" unicode="&#x27d;" horiz-adv-x="893" 
d="M872 659q-24 11 -65 20t-68 9q-211 0 -211 -244v-466q0 -135 88 -135q41 0 93 25v-310q-78 -39 -228 -39q-178 0 -278.5 98t-100.5 279v1128h426v-180h4q39 97 111 147.5t168 50.5q35 0 61 -12v-371z" />
    <glyph glyph-name="uni027E" unicode="&#x27e;" horiz-adv-x="772" 
d="M748 700q-52 25 -93 25q-88 0 -88 -135v-590h-426v672q0 180 100.5 278.5t278.5 98.5q150 0 228 -39v-310z" />
    <glyph glyph-name="uni027F" unicode="&#x27f;" horiz-adv-x="772" 
d="M24 1010q78 39 228 39q178 0 278.5 -98t100.5 -279v-672h-426v590q0 135 -88 135q-41 0 -93 -25v310z" />
    <glyph glyph-name="uni0280" unicode="&#x280;" horiz-adv-x="1280" 
d="M102 0v1024h570q241 0 361 -73t120 -226q0 -116 -65.5 -178.5t-196.5 -87.5q87 -22 143.5 -69.5t93.5 -133.5l113 -256h-465l-78 211q-27 77 -62 108t-83 31h-25v-350h-426zM528 571h54q147 0 147 107q0 51 -31 77.5t-112 26.5h-58v-211z" />
    <glyph glyph-name="uni0281" unicode="&#x281;" horiz-adv-x="1280" 
d="M528 1024v-350h25q48 0 83 31t62 108l78 211h465l-113 -256q-38 -87 -94 -134t-143 -69q131 -25 196.5 -87.5t65.5 -178.5q0 -153 -120 -226t-361 -73h-570v1024h426zM528 242h58q81 0 112 26.5t31 77.5q0 107 -147 107h-54v-211z" />
    <glyph glyph-name="uni0282" unicode="&#x282;" horiz-adv-x="989" 
d="M934 340q0 -174 -132.5 -269.5t-369.5 -95.5h-20v-4q0 -80 30.5 -113.5t88.5 -33.5q49 0 117 32v-243q-83 -31 -172 -31q-196 0 -288 94.5t-92 297.5v348q189 -84 316 -84q125 0 125 65q0 27 -29 44.5t-152 58.5q-139 44 -199.5 115.5t-60.5 183.5q0 159 126.5 251.5
t355.5 92.5q134 0 284 -39v-287q-70 30 -142.5 46.5t-121.5 16.5q-42 0 -67 -14t-25 -39q0 -29 27 -47t108 -43q157 -46 225 -118t68 -185z" />
    <glyph glyph-name="uni0283" unicode="&#x283;" horiz-adv-x="747" 
d="M848 1206q-66 23 -123 23q-72 0 -106 -36.5t-34 -98.5v-1168q0 -125 -58 -220.5t-168.5 -148.5t-268.5 -53q-40 0 -98 6.5t-95 16.5v311q63 -22 123 -22q71 0 105 36.5t34 98.5v1167q0 125 58 220.5t168.5 148.5t269.5 53q114 0 193 -22v-312z" />
    <glyph glyph-name="uni0284" unicode="&#x284;" horiz-adv-x="747" 
d="M848 1206q-66 23 -123 23q-140 0 -140 -135v-425h133v-278h-133v-465q0 -128 -57 -222.5t-167 -147t-271 -52.5q-40 0 -98 6.5t-95 16.5v311q63 -22 123 -22q139 0 139 135v440h-133v278h133v449q0 125 58 220.5t168.5 148.5t269.5 53q114 0 193 -22v-312z" />
    <glyph glyph-name="uni0285" unicode="&#x285;" horiz-adv-x="772" 
d="M-40 1501q78 39 228 39q178 0 278.5 -98.5t100.5 -278.5v-729q0 -135 88 -135q41 0 93 25v-310q-78 -39 -228 -39q-178 0 -278.5 98t-100.5 279v729q0 135 -88 135q-41 0 -93 -25v310z" />
    <glyph glyph-name="uni0286" unicode="&#x286;" horiz-adv-x="744" 
d="M845 1206q-66 23 -123 23q-140 0 -140 -135v-1094q0 -65 -20 -133l149 -98v-250q-128 100 -245 176q-162 -176 -443 -176q-163 0 -257 72.5t-94 201.5q0 126 95.5 203.5t248.5 77.5q67 0 140 -18v1062q0 125 58 220.5t168.5 148.5t269.5 53q114 0 193 -22v-312zM14 -127
q-104 0 -104 -67q0 -27 20.5 -42.5t54.5 -15.5q53 0 91 31.5t53 77.5q-64 16 -115 16z" />
    <glyph glyph-name="uni0287" unicode="&#x287;" horiz-adv-x="854" 
d="M29 1010q29 14 95 26.5t159 12.5q178 0 278.5 -98t100.5 -279v-377h161v-295h-161v-201l-420 -116v317h-213v295h213v307q0 135 -107 135q-50 0 -106 -22v295z" />
    <glyph glyph-name="uni0288" unicode="&#x288;" horiz-adv-x="854" 
d="M823 -442q-29 -14 -95 -26.5t-159 -12.5q-178 0 -278.5 98t-100.5 279v833h-161v295h161v201l420 116v-317h213v-295h-213v-763q0 -135 107 -135q50 0 106 22v-295z" />
    <glyph glyph-name="uni0289" unicode="&#x289;" horiz-adv-x="1282" 
d="M754 0v158h-4q-53 -73 -95.5 -107t-96 -55t-124.5 -21q-168 0 -256 109t-88 322v16h-133v278h133v324h426v-324h238v324h426v-324h133v-278h-133v-422h-426zM629 287q58 0 89 36.5t35 98.5h-237q6 -135 113 -135z" />
    <glyph glyph-name="uni028A" unicode="&#x28a;" horiz-adv-x="1334" 
d="M1158 737q100 -126 100 -305q0 -209 -161 -333t-438 -124q-275 0 -429 122.5t-154 334.5q0 179 100 305h-145v287h583v-233q-63 -75 -85 -139.5t-22 -143.5q0 -100 39 -160.5t119 -60.5t121 57t41 164q0 80 -22.5 144.5t-84.5 138.5v233h583v-287h-145z" />
    <glyph glyph-name="uni028B" unicode="&#x28b;" horiz-adv-x="1274" 
d="M90 1024h426v-568q0 -91 28.5 -130t92.5 -39q148 0 148 241q0 209 -93 209q-26 0 -56 -11v302q71 21 178 21q198 0 300.5 -130t102.5 -389q0 -257 -154 -406t-412 -149q-286 0 -423.5 120t-137.5 374v555z" />
    <glyph glyph-name="uni028C" unicode="&#x28c;" horiz-adv-x="1204" 
d="M356 1024h506l342 -1024h-444l-125 559q-30 135 -33 203h-6q-2 -20 -5.5 -41t-148.5 -721h-442z" />
    <glyph glyph-name="uni028D" unicode="&#x28d;" horiz-adv-x="1731" 
d="M300 1024h443l102 -498q19 -90 19 -159h6q11 106 22 153l111 504h442l271 -1024h-428l-88 596l-15 133h-6q-13 -117 -18 -137l-131 -592h-406l-113 592l-8 72l-6 63h-6l-3 -29l-91 -698h-383z" />
    <glyph glyph-name="uni028E" unicode="&#x28e;" horiz-adv-x="1176" 
d="M875 1505q60 0 129 -10.5t123 -30.5v-321q-25 19 -74.5 35t-93.5 16q-119 0 -158 -94l-33 -80l428 -1020h-471l-124 494q-36 138 -39 186h-4q-3 -22 -8.5 -49t-155.5 -631h-414l377 1053q85 242 210.5 347t307.5 105z" />
    <glyph glyph-name="uni028F" unicode="&#x28f;" horiz-adv-x="1082" 
d="M1102 1024l-349 -688v-336h-426v336l-347 688h442q97 -284 108 -324.5t17 -81.5h4q13 78 42 163l87 243h422z" />
    <glyph glyph-name="uni0290" unicode="&#x290;" horiz-adv-x="1042" 
d="M584 295h452q-58 -182 -58 -278q0 -51 22.5 -87.5t68.5 -36.5q37 0 75 13v-243q-60 -12 -113 -12q-360 0 -360 334v15h-646v197l460 532h-417v295h929v-242z" />
    <glyph glyph-name="uni0291" unicode="&#x291;" horiz-adv-x="1253" 
d="M766 0q-15 -74 -18 -156h-221q4 72 19 156h-521v197l346 532h-303v295h773v-241l-334 -496h112q60 156 155.5 235.5t221.5 79.5q132 0 204.5 -74t72.5 -206q0 -152 -97.5 -237t-274.5 -85h-135zM848 287h87q58 0 88 18.5t30 50.5q0 56 -62 56q-43 0 -81.5 -34.5
t-61.5 -90.5z" />
    <glyph glyph-name="uni0292" unicode="&#x292;" horiz-adv-x="1160" 
d="M102 -90q92 -42 167 -61t152 -19q258 0 258 209q0 97 -69 155t-196 58h-156v172l274 305h-417v295h919v-242l-274 -312q173 -52 262 -160.5t89 -270.5q0 -239 -167 -379.5t-457 -140.5q-210 0 -385 61v330z" />
    <glyph glyph-name="uni0293" unicode="&#x293;" horiz-adv-x="1160" 
d="M1161 -481q-113 84 -212 146q-100 -76 -214.5 -111t-283.5 -35q-190 0 -299.5 73t-109.5 201t100.5 204.5t259.5 76.5q81 0 141 -11t136 -39v12q0 107 -72 161.5t-202 54.5h-147v172l274 305h-417v295h919v-242l-274 -312q351 -108 351 -436q0 -115 -42 -208l92 -57v-250
zM615 -163q-109 36 -189 36q-57 0 -85 -17t-28 -45q0 -54 113 -54q123 0 189 80z" />
    <glyph glyph-name="uni0294" unicode="&#x294;" horiz-adv-x="992" 
d="M943 1115q0 -96 -34.5 -177.5t-136.5 -194.5q-82 -89 -100.5 -128.5t-18.5 -106.5v-508h-426v564q0 89 28 161t106 156l64 66q48 48 67 81.5t19 72.5q0 38 -32 61t-91 23q-76 0 -161.5 -29t-163.5 -79v382q71 35 171 58t203 23q242 0 374 -109t132 -316z" />
    <glyph glyph-name="uni0295" unicode="&#x295;" horiz-adv-x="992" 
d="M49 1096q0 213 131.5 328.5t374.5 115.5q103 0 202.5 -22.5t171.5 -58.5v-382q-78 50 -163.5 79t-161.5 29q-59 0 -91 -23t-32 -61t18.5 -71.5t67.5 -82.5q93 -93 128 -143t52.5 -110.5t17.5 -129.5v-564h-426v508q0 66 -18.5 106t-100.5 129q-100 111 -135.5 189.5
t-35.5 163.5z" />
    <glyph glyph-name="uni0296" unicode="&#x296;" horiz-adv-x="992" 
d="M943 400q0 -208 -132.5 -316.5t-373.5 -108.5q-103 0 -203 22.5t-171 58.5v382q78 -50 163.5 -79t161.5 -29q59 0 91 23t32 61t-18.5 71.5t-67.5 82.5q-93 93 -128 143t-52.5 110.5t-17.5 129.5v565h426v-509q0 -66 18.5 -106t100.5 -129q102 -112 136.5 -194.5
t34.5 -177.5z" />
    <glyph glyph-name="uni0297" unicode="&#x297;" horiz-adv-x="1014" 
d="M946 -427q-30 -18 -111 -36t-221 -18q-264 0 -410.5 191t-146.5 541q0 390 157 594t450 204q76 0 140 -8.5t142 -34.5v-332q-41 26 -95.5 44.5t-107.5 18.5q-254 0 -254 -457q0 -449 257 -449q100 0 200 57v-315z" />
    <glyph glyph-name="uni0298" unicode="&#x298;" horiz-adv-x="1439" 
d="M1390 784q0 -386 -176 -597.5t-497 -211.5q-317 0 -492.5 207t-175.5 584q0 238 82.5 412.5t235.5 268t352 93.5q313 0 492 -199.5t179 -556.5zM958 773q0 213 -64 334t-175 121q-110 0 -174 -121.5t-64 -336.5q0 -234 62.5 -358.5t178.5 -124.5q110 0 173 126.5
t63 359.5zM888 760q0 -72 -46 -118t-122 -46q-75 0 -122 47.5t-47 116.5q0 71 46.5 115t122.5 44q77 0 122.5 -44t45.5 -115z" />
    <glyph glyph-name="uni0299" unicode="&#x299;" horiz-adv-x="1247" 
d="M1186 315q0 -156 -98.5 -235.5t-290.5 -79.5h-695v1024h662q201 0 295 -61t94 -187q0 -60 -29 -106t-78 -77.5t-104 -41.5q108 -12 176 -78t68 -158zM715 715q0 45 -26.5 63.5t-82.5 18.5h-78v-168h80q53 0 80 24.5t27 61.5zM745 328q0 40 -27.5 63t-78.5 23h-111v-181
h99q118 0 118 95z" />
    <glyph glyph-name="uni029A" unicode="&#x29a;" horiz-adv-x="1337" 
d="M341 535q-127 20 -194.5 79t-67.5 153q0 139 146 210.5t412 71.5q305 0 474 -138.5t169 -392.5q0 -263 -166 -403t-472 -140q-277 0 -431 82.5t-154 241.5q0 95 70.5 158.5t213.5 74.5v3zM685 410q-89 0 -120.5 -8.5t-48.5 -28t-17 -56.5t35 -59t89 -22q113 0 169 71.5
t56 204.5q0 137 -59.5 212t-158.5 75q-108 0 -108 -74q0 -43 32 -65.5t114 -22.5h24v-227h-7z" />
    <glyph glyph-name="uni029B" unicode="&#x29b;" horiz-adv-x="1282" 
d="M725 1049q84 0 147 -9q29 99 101.5 153.5t177.5 54.5q79 0 127 -15v-270q-38 11 -72 11q-103 0 -103 -146q0 -59 16 -142l-9 -6q-165 60 -350 60q-129 0 -200 -63t-71 -181t62 -182t174 -64q32 0 57 5v130h-163v233h583v-557q-229 -86 -522 -86q-291 0 -457 136t-166 378
q0 272 170.5 416t497.5 144z" />
    <glyph glyph-name="uni029C" unicode="&#x29c;" horiz-adv-x="1294" 
d="M766 0v399h-238v-399h-426v1024h426v-348h238v348h426v-1024h-426z" />
    <glyph glyph-name="uni029D" unicode="&#x29d;" horiz-adv-x="711" 
d="M16 74q67 0 140 -18v968h426v-1024q0 -65 -20 -133l149 -98v-250q-128 100 -245 176q-162 -176 -443 -176q-163 0 -257 72.5t-94 201.5q0 126 95.5 203.5t248.5 77.5zM14 -127q-104 0 -104 -67q0 -27 20.5 -42.5t54.5 -15.5q53 0 91 31.5t53 77.5q-64 16 -115 16z
M607 1300q0 -90 -65.5 -146t-172.5 -56q-104 0 -170.5 58t-66.5 144q0 88 64.5 142.5t172.5 54.5q107 0 172.5 -54.5t65.5 -142.5z" />
    <glyph glyph-name="uni029E" unicode="&#x29e;" horiz-adv-x="1214" 
d="M454 1024l228 -526h4v526h426v-1495h-426v952h-4l-207 -481h-480l277 469l-293 555h475z" />
    <glyph glyph-name="uni029F" unicode="&#x29f;" horiz-adv-x="937" 
d="M906 0h-804v1024h426v-729h378v-295z" />
    <glyph glyph-name="uni02A0" unicode="&#x2a0;" horiz-adv-x="1315" 
d="M786 -471v588h-4q-48 -64 -129.5 -103t-167.5 -39q-127 0 -223.5 60t-150.5 174.5t-54 282.5q0 166 60 293t167 195.5t236 68.5q175 0 262 -131h4v247q0 180 100.5 278.5t278.5 98.5q127 0 228 -39v-310q-52 25 -93 25q-88 0 -88 -135v-1554h-426zM795 539
q0 93 -40.5 145.5t-107.5 52.5q-70 0 -114 -64t-44 -171q0 -99 37 -157t111 -58t116 58t42 161v33z" />
    <glyph glyph-name="uni02A1" unicode="&#x2a1;" horiz-adv-x="992" 
d="M943 1115q0 -96 -34.5 -177.5t-136.5 -194.5q-70 -75 -91 -110.5t-26 -77.5h132v-278h-134v-277h-426v277h-133v278h133v9q0 89 28 161t106 156l64 66q48 48 67 81.5t19 72.5q0 38 -32 61t-91 23q-76 0 -161.5 -29t-163.5 -79v382q71 35 171 58t203 23q242 0 374 -109
t132 -316z" />
    <glyph glyph-name="uni02A2" unicode="&#x2a2;" horiz-adv-x="992" 
d="M49 1096q0 213 131.5 328.5t374.5 115.5q103 0 202.5 -22.5t171.5 -58.5v-382q-78 50 -163.5 79t-161.5 29q-59 0 -91 -23t-32 -61t18.5 -71.5t67.5 -82.5q93 -93 128 -143t52.5 -110.5t17.5 -129.5v-9h133v-278h-133v-277h-426v277h-134v278h131q-4 38 -22.5 71.5
t-93.5 116.5q-100 111 -135.5 189.5t-35.5 163.5z" />
    <glyph glyph-name="uni02A3" unicode="&#x2a3;" horiz-adv-x="2111" 
d="M786 0v119h-4q-51 -67 -133 -105.5t-162 -38.5q-131 0 -231 64.5t-149.5 180.5t-49.5 274q0 163 59 289t166 196t240 70q63 0 116.5 -18t93 -48.5t50.5 -60.5h4v594h426v-492h854v-242l-370 -487h379v-295h-1289zM795 543q0 92 -40.5 143t-109.5 51t-112.5 -63.5
t-43.5 -169.5q0 -217 150 -217q71 0 113.5 58.5t42.5 170.5v27zM1554 729h-342v-442z" />
    <glyph glyph-name="uni02A4" unicode="&#x2a4;" horiz-adv-x="2192" 
d="M786 0v119h-4q-51 -67 -133 -105.5t-162 -38.5q-131 0 -231 64.5t-149.5 180.5t-49.5 274q0 163 59 289t166 196t240 70q61 0 114.5 -17.5t93.5 -48t52 -61.5h4v594h426v-492h854v-242l-274 -312q173 -52 262 -160.5t89 -270.5q0 -239 -167 -379.5t-457 -140.5
q-210 0 -385 61v330q92 -42 167 -61t152 -19q258 0 258 209q0 97 -69 155t-196 58h-156v172l274 305h-352v-729h-426zM795 543q0 92 -40.5 143t-109.5 51t-112.5 -63.5t-43.5 -169.5q0 -217 150 -217q72 0 114 58.5t42 170.5v27z" />
    <glyph glyph-name="uni02A5" unicode="&#x2a5;" horiz-adv-x="2397" 
d="M786 0v119h-4q-51 -67 -133 -105.5t-162 -38.5q-131 0 -231 64.5t-149.5 180.5t-49.5 274q0 163 59 289t166 196t240 70q61 0 114.5 -17.5t93.5 -48t52 -61.5h4v594h426v-492h773v-241l-334 -496h112q60 156 155.5 235.5t221.5 79.5q132 0 204.5 -74t72.5 -206
q0 -152 -97.5 -237t-274.5 -85h-135q-15 -74 -18 -156h-221q4 72 19 156h-904zM795 543q0 92 -40.5 143t-109.5 51t-112.5 -63.5t-43.5 -169.5q0 -217 150 -217q72 0 114 58.5t42 170.5v27zM1515 729h-303v-466zM1992 287h87q58 0 88 18.5t30 50.5q0 56 -62 56
q-43 0 -81.5 -34.5t-61.5 -90.5z" />
    <glyph glyph-name="uni02A6" unicode="&#x2a6;" horiz-adv-x="1643" 
d="M1588 340q0 -137 -79 -216.5t-228 -114t-407 -34.5q-227 0 -376 40t-228.5 137.5t-79.5 275.5v301h-161v295h161v201l420 116v-317h413q96 25 209 25q134 0 284 -39v-287q-70 30 -142.5 46.5t-121.5 16.5q-42 0 -67 -14t-25 -39q0 -29 27 -47t108 -43q157 -46 225 -118
t68 -185zM610 473q0 -235 300 -235q133 0 207 18.5t74 50.5q0 25 -25.5 40.5t-155.5 58.5q-139 44 -199.5 115.5t-60.5 183.5v12l1 12h-141v-256z" />
    <glyph glyph-name="uni02A7" unicode="&#x2a7;" horiz-adv-x="1411" 
d="M1512 1206q-66 23 -123 23q-140 0 -140 -135v-1168q0 -125 -58 -220.5t-168.5 -148.5t-268.5 -53q-40 0 -98 6.5t-95 16.5v311q63 -22 123 -22q139 0 139 135v63q-29 -14 -94.5 -26.5t-159.5 -12.5q-178 0 -278.5 98t-100.5 279v377h-161v295h161v201l420 116v-317h213
v94q0 125 58 220.5t168.5 148.5t269.5 53q114 0 193 -22v-312zM823 729h-213v-307q0 -135 107 -135q50 0 106 22v420z" />
    <glyph glyph-name="uni02A8" unicode="&#x2a8;" horiz-adv-x="1793" 
d="M788 489q0 261 161 410.5t446 149.5q175 0 282 -43v-332q-40 29 -96.5 46t-106.5 17q-128 0 -191 -61t-63 -168l3 -43q65 28 122 35.5t121 7.5q140 0 219.5 -66.5t79.5 -183.5q0 -125 -108 -204t-283 -79q-235 0 -394 116q-103 -63 -194.5 -89.5t-216.5 -26.5
q-178 0 -278.5 98t-100.5 279v377h-161v295h161v201l420 116v-317h213v-295h-213v-307q0 -135 107 -135q54 0 101 20q-30 88 -30 182zM1309 275q19 -28 61 -47t79 -19q36 0 62.5 13t26.5 40q0 45 -88 45q-73 0 -141 -32z" />
    <glyph glyph-name="uni02A9" unicode="&#x2a9;" horiz-adv-x="2046" 
d="M891 1206q-66 23 -123 23q-139 0 -139 -135v-70h663v-160h4q51 88 137 136.5t187 48.5q336 0 336 -424v-625q0 -127 -55 -235t-157 -162t-242 -54q-78 0 -170 30v311q54 -30 102 -30q54 0 75 35.5t21 107.5v556q0 95 -28.5 136.5t-92.5 41.5q-55 0 -86 -43t-31 -110v-584
h-426v729h-237v-729h-426v729h-172v295h172v94q0 125 58 220.5t168.5 148.5t268.5 53q114 0 193 -22v-312z" />
    <glyph glyph-name="uni02AA" unicode="&#x2aa;" horiz-adv-x="1526" 
d="M102 1516h426v-996q0 -139 77.5 -210.5t228.5 -71.5q107 0 166.5 17.5t59.5 50.5q0 25 -15 38.5t-50.5 30.5t-94.5 42q-127 54 -180 117t-53 176q0 157 129 248t337 91q162 0 300 -39v-287q-58 26 -134 44.5t-125 18.5q-48 0 -72.5 -14t-24.5 -37q0 -26 17.5 -41.5
t83.5 -41.5q119 -47 163 -73.5t74 -59.5t43 -73t13 -108q0 -363 -681 -363q-363 0 -525.5 117t-162.5 377v1047z" />
    <glyph glyph-name="uni02AB" unicode="&#x2ab;" horiz-adv-x="1462" 
d="M1019 295h407v-295h-1324v1516h426v-492h889v-242zM905 729h-377v-478z" />
    <glyph glyph-name="uni02AC" unicode="&#x2ac;" horiz-adv-x="1075" 
d="M1032 1434l-160 -648h-262l-65 318q-6 28 -10 82h-5l-10 -82l-65 -318h-262l-150 648h231l58 -336l6 -80h4l10 82l68 334h256l63 -334l9 -80h4l10 80l47 334h223zM1032 647l-160 -647h-262l-65 317q-6 28 -10 82h-5l-10 -82l-65 -317h-262l-150 647h231l58 -336l6 -80h4
l10 82l68 334h256l63 -334l9 -80h4l10 80l47 334h223z" />
    <glyph glyph-name="uni02AD" unicode="&#x2ad;" horiz-adv-x="1075" 
d="M963 922h-209v323h-432v-323h-209v512h850v-512zM963 0h-209v324h-432v-324h-209v512h850v-512z" />
    <glyph glyph-name="uni02AE" unicode="&#x2ae;" horiz-adv-x="1372" 
d="M844 -471v629h-4q-53 -73 -95.5 -107t-96 -55t-124.5 -21q-169 0 -256.5 109t-87.5 322v184q0 78 -19 106.5t-57 28.5q-37 0 -79 -18v309q59 20 109.5 26.5t117.5 6.5q173 0 263.5 -94t90.5 -283v-234q0 -151 113 -151q125 0 125 157v580h426v-1495h-426z" />
    <glyph glyph-name="uni02AF" unicode="&#x2af;" horiz-adv-x="1372" 
d="M844 158h-4q-53 -73 -95.5 -107t-96 -55t-124.5 -21q-169 0 -256.5 109t-87.5 322v184q0 78 -19 106.5t-57 28.5q-37 0 -79 -18v309q59 20 109.5 26.5t117.5 6.5q173 0 263.5 -94t90.5 -283v-234q0 -151 113 -151q125 0 125 155v582h426v-1047q0 -72 22 -103.5t66 -31.5
q40 0 92 27v-311q-78 -39 -227 -39q-181 0 -280 99t-99 278v262z" />
    <glyph glyph-name="uni02B0" unicode="&#x2b0;" horiz-adv-x="744" 
d="M659 666h-227v317q0 82 -61 82q-68 0 -68 -84v-315h-227v811h227v-342h2q59 96 168 96q186 0 186 -230v-335z" />
    <glyph glyph-name="uni02B1" unicode="&#x2b1;" horiz-adv-x="744" 
d="M659 666h-227v317q0 82 -61 82q-68 0 -68 -84v-315h-227v491q0 320 393 320q96 0 166 -29v-172q-74 43 -164 43q-168 0 -168 -135v-49h2q59 96 168 96q186 0 186 -230v-335z" />
    <glyph glyph-name="uni02B2" unicode="&#x2b2;" horiz-adv-x="385" 
d="M190 1253q-57 0 -93 32t-36 79q0 104 129 104q127 0 127 -104q0 -49 -34.5 -80t-92.5 -31zM303 657q0 -113 -61.5 -183.5t-182.5 -70.5q-41 0 -92 17v168q34 -17 56 -17q53 0 53 78v565h227v-557z" />
    <glyph glyph-name="uni02B3" unicode="&#x2b3;" horiz-adv-x="525" 
d="M494 1020q-34 14 -72 14q-113 0 -113 -131v-237h-227v548h227v-96h2q43 107 150 107q15 0 33 -8v-197z" />
    <glyph glyph-name="uni02B4" unicode="&#x2b4;" horiz-adv-x="525" 
d="M440 666h-227v96h-2q-42 -107 -150 -107q-11 0 -32 9v196q34 -14 71 -14q113 0 113 131v237h227v-548z" />
    <glyph glyph-name="uni02B5" unicode="&#x2b5;" horiz-adv-x="537" 
d="M549 420q-51 -17 -92 -17q-121 0 -182.5 70.5t-61.5 183.5v105h-2q-42 -107 -150 -107q-11 0 -32 9v196q34 -14 71 -14q113 0 113 131v237h227v-565q0 -78 54 -78q21 0 55 17v-168z" />
    <glyph glyph-name="uni02B6" unicode="&#x2b6;" horiz-adv-x="729" 
d="M713 1212l-60 -135q-38 -86 -129 -108q142 -26 142 -144q0 -159 -258 -159h-306v546h228v-186h14q50 0 78 76l41 110h250zM330 907v-112h30q78 0 78 57q0 55 -80 55h-28z" />
    <glyph glyph-name="uni02B7" unicode="&#x2b7;" horiz-adv-x="955" 
d="M934 1212l-154 -546h-235l-56 264q-10 47 -10 86h-4q-4 -48 -12 -82l-60 -268h-235l-145 546h229l47 -317l8 -72h2q4 46 10 74l70 315h219l60 -315l8 -72h2l51 387h205z" />
    <glyph glyph-name="uni02B8" unicode="&#x2b8;" horiz-adv-x="678" 
d="M664 1212l-201 -565q-86 -241 -279 -241q-77 0 -135 22v172q38 -27 90 -27q63 0 84 50l19 43l-230 546h252l68 -264q16 -63 20 -100h2l88 364h222z" />
    </font>
</defs>
</svg>
